<svg xmlns="http://www.w3.org/2000/svg" width="20" height="20" viewBox="0 0 20 20" fill="none"><path fill-rule="evenodd" clip-rule="evenodd" d="M7.6 8.93552V7.33555H2V12.1355H7.6V10.5355H10V12.1355H12V13.7355H10V18.5355H15.6V16.9355H18V15.3355H15.6V13.7355H13.6V12.1355H15.6V10.5355H18V8.93552H15.6V7.33555H13.6V5.73555H15.6V4.13555H18V2.53555H15.6V0.935547H10V5.73555H12V7.33555H10V8.93552H7.6ZM11.6 2.53555H14V4.13555H11.6V2.53555ZM14 16.9355H11.6V15.3355H14V16.9355ZM14 10.5355H11.6V8.93552H14V10.5355ZM6 10.5355H3.6V8.93552H6V10.5355Z" fill="#1E61F0"/></svg>