<svg xmlns="http://www.w3.org/2000/svg" width="20" height="20" viewBox="0 0 20 20" fill="none"><path fill-rule="evenodd" clip-rule="evenodd" d="M17.4993 16.2497H15.4993C17.2327 14.7247 18.3327 12.4913 18.3327 9.99967C18.3327 5.67467 15.041 2.12467 10.8327 1.70801V3.39134C14.116 3.79967 16.666 6.60801 16.666 9.99967C16.666 12.0997 15.691 13.9663 14.166 15.1913V12.9163H12.4993V17.9163H17.4993V16.2497ZM5.83268 4.80801C4.30768 6.02467 3.33268 7.89967 3.33268 9.99967C3.33268 13.3913 5.88268 16.1997 9.16602 16.608V18.2913C4.95768 17.8747 1.66602 14.3247 1.66602 9.99967C1.66602 7.50801 2.76602 5.27467 4.49935 3.74967H2.49935V2.08301H7.49935V7.08301H5.83268V4.80801ZM11.3328 6.99976V11.1664L7.7911 13.2664L7.14943 12.1998L10.0828 10.4581V6.99976H11.3328Z" fill="#1E61F0"/></svg>