<svg xmlns="http://www.w3.org/2000/svg" width="20" height="20" viewBox="0 0 20 20" fill="none"><path d="M12.5586 0.841797H7.55859V2.50846H12.5586V0.841797ZM9.22524 11.6751H10.8919V6.67513H9.22524V11.6751ZM15.9169 6.15846L17.1002 4.97513C16.7419 4.55013 16.3502 4.15013 15.9252 3.80013L14.7419 4.98346C13.4502 3.95013 11.8252 3.33346 10.0586 3.33346C5.91693 3.33346 2.55859 6.6918 2.55859 10.8335C2.55859 14.9751 5.90859 18.3335 10.0586 18.3335C14.2086 18.3335 17.5586 14.9751 17.5586 10.8335C17.5586 9.07512 16.9419 7.45013 15.9169 6.15846ZM10.0586 16.6751C6.83359 16.6751 4.22526 14.0668 4.22526 10.8418C4.22526 7.6168 6.83359 5.00846 10.0586 5.00846C13.2836 5.00846 15.8919 7.6168 15.8919 10.8418C15.8919 14.0668 13.2836 16.6751 10.0586 16.6751Z" fill="#1E61F0"/></svg>