<svg xmlns="http://www.w3.org/2000/svg" width="20" height="20" viewBox="0 0 20 20" fill="none"><g clip-path="url(#clip0_1971_19568)"><path d="M10.0007 19.1663H9.16732V13.6913C8.27565 14.4997 7.10065 14.9997 5.83398 14.9997C3.12565 14.9997 0.833984 12.708 0.833984 9.99967V9.16634H6.30898C5.50065 8.27467 5.00065 7.09967 5.00065 5.83301C5.00065 3.12467 7.29232 0.833008 10.0007 0.833008H10.834V6.30801C11.7256 5.49967 12.9007 4.99967 14.1673 4.99967C16.8757 4.99967 19.1673 7.29134 19.1673 9.99967V10.833H13.6923C14.5007 11.7247 15.0006 12.8997 15.0006 14.1663C15.0006 16.8747 12.709 19.1663 10.0007 19.1663ZM10.834 10.9413V17.3913C12.2507 17.008 13.334 15.6913 13.334 14.1663C13.334 12.6413 12.2507 11.3247 10.834 10.9413ZM2.60898 10.833C2.99232 12.2497 4.30898 13.333 5.83398 13.333C7.35898 13.333 8.67565 12.2497 9.05898 10.833H2.60898ZM10.9423 9.16634H17.3923C17.009 7.74967 15.684 6.66634 14.1673 6.66634C12.6507 6.66634 11.3257 7.74967 10.9423 9.16634ZM9.16732 2.60801C7.75065 2.99134 6.66732 4.31634 6.66732 5.83301C6.66732 7.34967 7.75065 8.67467 9.16732 9.05801V2.60801Z" fill="#1E61F0"/></g><defs><clipPath id="clip0_1971_19568"><rect width="20" height="20" fill="white"/></clipPath></defs></svg>