<svg xmlns="http://www.w3.org/2000/svg" width="20" height="20" viewBox="0 0 20 20" fill="none"><path d="M5.83333 8.33333C3.99167 8.33333 2.5 9.825 2.5 11.6667C2.5 13.5083 3.99167 15 5.83333 15C7.675 15 9.16667 13.5083 9.16667 11.6667C9.16667 9.825 7.675 8.33333 5.83333 8.33333ZM5.83333 13.3333C4.91667 13.3333 4.16667 12.5833 4.16667 11.6667C4.16667 10.75 4.91667 10 5.83333 10C6.75 10 7.5 10.75 7.5 11.6667C7.5 12.5833 6.75 13.3333 5.83333 13.3333ZM12.5083 12.5C11.1333 12.5 10.0083 13.625 10.0083 15C10.0083 16.375 11.1333 17.5 12.5083 17.5C13.8833 17.5 15.0083 16.375 15.0083 15C15.0083 13.625 13.8833 12.5 12.5083 12.5ZM12.5083 15.8333C12.05 15.8333 11.675 15.4583 11.675 15C11.675 14.5417 12.05 14.1667 12.5083 14.1667C12.9667 14.1667 13.3417 14.5417 13.3417 15C13.3417 15.4583 12.9667 15.8333 12.5083 15.8333ZM13.75 2.5C11.225 2.5 9.16667 4.55833 9.16667 7.08333C9.16667 9.60833 11.225 11.6667 13.75 11.6667C16.275 11.6667 18.3333 9.60833 18.3333 7.08333C18.3333 4.55833 16.275 2.5 13.75 2.5ZM13.75 10C12.1417 10 10.8333 8.69167 10.8333 7.08333C10.8333 5.475 12.1417 4.16667 13.75 4.16667C15.3583 4.16667 16.6667 5.475 16.6667 7.08333C16.6667 8.69167 15.3583 10 13.75 10Z" fill="#1E61F0"/></svg>