<svg width="42" height="42" viewBox="0 0 42 42" fill="none" xmlns="http://www.w3.org/2000/svg">
<path d="M0 8C0 3.58172 3.58172 0 8 0H34C38.4183 0 42 3.58172 42 8V34C42 38.4183 38.4183 42 34 42H8C3.58172 42 0 38.4183 0 34V8Z" fill="white" fill-opacity="0.2"/>
<path d="M19.9965 11.6226C20.0403 11.3885 20.1645 11.177 20.3478 11.0248C20.5311 10.8726 20.7618 10.7892 21 10.7892C21.2382 10.7892 21.469 10.8726 21.6522 11.0248C21.8355 11.177 21.9597 11.3885 22.0035 11.6226L23.0764 17.2964C23.1526 17.6998 23.3486 18.0709 23.6389 18.3611C23.9292 18.6514 24.3002 18.8474 24.7036 18.9236L30.3774 19.9965C30.6116 20.0403 30.8231 20.1645 30.9753 20.3478C31.1275 20.5311 31.2108 20.7618 31.2108 21C31.2108 21.2382 31.1275 21.469 30.9753 21.6522C30.8231 21.8355 30.6116 21.9598 30.3774 22.0035L24.7036 23.0764C24.3002 23.1526 23.9292 23.3486 23.6389 23.6389C23.3486 23.9292 23.1526 24.3002 23.0764 24.7036L22.0035 30.3774C21.9597 30.6116 21.8355 30.8231 21.6522 30.9753C21.469 31.1275 21.2382 31.2108 21 31.2108C20.7618 31.2108 20.5311 31.1275 20.3478 30.9753C20.1645 30.8231 20.0403 30.6116 19.9965 30.3774L18.9236 24.7036C18.8474 24.3002 18.6514 23.9292 18.3611 23.6389C18.0708 23.3486 17.6998 23.1526 17.2964 23.0764L11.6226 22.0035C11.3884 21.9598 11.1769 21.8355 11.0247 21.6522C10.8725 21.469 10.7892 21.2382 10.7892 21C10.7892 20.7618 10.8725 20.5311 11.0247 20.3478C11.1769 20.1645 11.3884 20.0403 11.6226 19.9965L17.2964 18.9236C17.6998 18.8474 18.0708 18.6514 18.3611 18.3611C18.6514 18.0709 18.8474 17.6998 18.9236 17.2964L19.9965 11.6226Z" stroke="white" stroke-width="2.04167" stroke-linecap="round" stroke-linejoin="round"/>
<path d="M29.1667 10.7917V14.875" stroke="white" stroke-width="2.04167" stroke-linecap="round" stroke-linejoin="round"/>
<path d="M31.2083 12.8333H27.125" stroke="white" stroke-width="2.04167" stroke-linecap="round" stroke-linejoin="round"/>
<path d="M12.8333 31.2083C13.9609 31.2083 14.875 30.2942 14.875 29.1667C14.875 28.0391 13.9609 27.125 12.8333 27.125C11.7057 27.125 10.7917 28.0391 10.7917 29.1667C10.7917 30.2942 11.7057 31.2083 12.8333 31.2083Z" stroke="white" stroke-width="2.04167" stroke-linecap="round" stroke-linejoin="round"/>
</svg>
