<svg xmlns="http://www.w3.org/2000/svg" xmlns:xlink="http://www.w3.org/1999/xlink" version="1.1" width="549px" height="311px" viewBox="-0.5 -0.5 549 311"><defs/><g><rect x="0" y="0" width="547.68" height="310" fill="#f5f5f5" stroke="#666666"/><rect x="20" y="41" width="480" height="230" fill="#fff2cc" stroke="#d6b656"/><rect x="30" y="51" width="480" height="230" fill="#fff2cc" stroke="#d6b656"/><rect x="40" y="61" width="480" height="230" fill="#fff2cc" stroke="#d6b656"/><rect x="60" y="111" width="250" height="140" fill="#e1d5e7" stroke="#9673a6"/><g transform="translate(-0.5 -0.5)"><switch><text x="185" y="185" fill="rgb(0, 0, 0)" font-family="Helvetica" font-size="12px" text-anchor="middle"></text></switch></g><rect x="60" y="111" width="150" height="40" fill="none" stroke="none"/><g transform="translate(-0.5 -0.5)"><switch><text x="135" y="135" fill="rgb(0, 0, 0)" font-family="Courier New" font-size="12px" text-anchor="middle"> flag / experiment </text></switch></g><rect x="70" y="151" width="110" height="30" fill="#d5e8d4" stroke="#82b366"/><g transform="translate(-0.5 -0.5)"><switch><text x="125" y="170" fill="rgb(0, 0, 0)" font-family="Courier New" font-size="12px" text-anchor="middle"> variant 0 </text></switch></g><rect x="70" y="211" width="110" height="30" fill="#d5e8d4" stroke="#82b366"/><g transform="translate(-0.5 -0.5)"><switch><text x="125" y="230" fill="rgb(0, 0, 0)" font-family="Courier New" font-size="12px" text-anchor="middle"> variant n </text></switch></g><rect x="190" y="151" width="110" height="30" fill="#dae8fc" stroke="#6c8ebf" stroke-dasharray="3 3"/><g transform="translate(-0.5 -0.5)"><switch><text x="245" y="170" fill="rgb(0, 0, 0)" font-family="Helvetica" font-size="12px" text-anchor="middle"> deployment 0 </text></switch></g><rect x="190" y="211" width="110" height="30" fill="#dae8fc" stroke="#6c8ebf" stroke-dasharray="3 3"/><g transform="translate(-0.5 -0.5)"><switch><text x="245" y="230" fill="rgb(0, 0, 0)" font-family="Helvetica" font-size="12px" text-anchor="middle"> deployment n </text></switch></g><rect x="95" y="181" width="60" height="30" fill="none" stroke="none" transform="rotate(90,125,196)"/><g transform="translate(-0.5 -0.5)rotate(90 125 196)"><switch><text x="125" y="200" fill="rgb(0, 0, 0)" font-family="Courier New" font-size="12px" text-anchor="middle"> ... </text></switch></g><rect x="215" y="181" width="60" height="30" fill="none" stroke="none" transform="rotate(90,245,196)"/><g transform="translate(-0.5 -0.5)rotate(90 245 196)"><switch><text x="245" y="200" fill="rgb(0, 0, 0)" font-family="Courier New" font-size="12px" text-anchor="middle"> ... </text></switch></g><rect x="360" y="171" width="110" height="30" fill="#dae8fc" stroke="#6c8ebf"/><g transform="translate(-0.5 -0.5)"><switch><text x="415" y="190" fill="rgb(0, 0, 0)" font-family="Helvetica" font-size="12px" text-anchor="middle"> deployment </text></switch></g><rect x="370" y="181" width="110" height="30" fill="#dae8fc" stroke="#6c8ebf"/><g transform="translate(-0.5 -0.5)"><switch><text x="425" y="200" fill="rgb(0, 0, 0)" font-family="Helvetica" font-size="12px" text-anchor="middle"> deployment </text></switch></g><rect x="380" y="191" width="110" height="30" fill="#dae8fc" stroke="#6c8ebf"/><g transform="translate(-0.5 -0.5)"><switch><text x="435" y="210" fill="rgb(0, 0, 0)" font-family="Helvetica" font-size="12px" text-anchor="middle"> deployment </text></switch></g><rect x="70" y="121" width="250" height="140" fill="#e1d5e7" stroke="#9673a6"/><g transform="translate(-0.5 -0.5)"><switch><text x="195" y="195" fill="rgb(0, 0, 0)" font-family="Helvetica" font-size="12px" text-anchor="middle"></text></switch></g><rect x="70" y="121" width="150" height="40" fill="none" stroke="none"/><g transform="translate(-0.5 -0.5)"><switch><text x="145" y="145" fill="rgb(0, 0, 0)" font-family="Courier New" font-size="12px" text-anchor="middle"> flag / experiment </text></switch></g><rect x="80" y="161" width="110" height="30" fill="#d5e8d4" stroke="#82b366"/><g transform="translate(-0.5 -0.5)"><switch><text x="135" y="180" fill="rgb(0, 0, 0)" font-family="Courier New" font-size="12px" text-anchor="middle"> variant 0 </text></switch></g><rect x="80" y="221" width="110" height="30" fill="#d5e8d4" stroke="#82b366"/><g transform="translate(-0.5 -0.5)"><switch><text x="135" y="240" fill="rgb(0, 0, 0)" font-family="Courier New" font-size="12px" text-anchor="middle"> variant n </text></switch></g><rect x="200" y="161" width="110" height="30" fill="#dae8fc" stroke="#6c8ebf" stroke-dasharray="3 3"/><g transform="translate(-0.5 -0.5)"><switch><text x="255" y="180" fill="rgb(0, 0, 0)" font-family="Helvetica" font-size="12px" text-anchor="middle"> deployment 0 </text></switch></g><rect x="200" y="221" width="110" height="30" fill="#dae8fc" stroke="#6c8ebf" stroke-dasharray="3 3"/><g transform="translate(-0.5 -0.5)"><switch><text x="255" y="240" fill="rgb(0, 0, 0)" font-family="Helvetica" font-size="12px" text-anchor="middle"> deployment n </text></switch></g><rect x="105" y="191" width="60" height="30" fill="none" stroke="none" transform="rotate(90,135,206)"/><g transform="translate(-0.5 -0.5)rotate(90 135 206)"><switch><text x="135" y="210" fill="rgb(0, 0, 0)" font-family="Courier New" font-size="12px" text-anchor="middle"> ... </text></switch></g><rect x="225" y="191" width="60" height="30" fill="none" stroke="none" transform="rotate(90,255,206)"/><g transform="translate(-0.5 -0.5)rotate(90 255 206)"><switch><text x="255" y="210" fill="rgb(0, 0, 0)" font-family="Courier New" font-size="12px" text-anchor="middle"> ... </text></switch></g><rect x="80" y="131" width="250" height="140" fill="#e1d5e7" stroke="#9673a6"/><g transform="translate(-0.5 -0.5)"><switch><text x="205" y="205" fill="rgb(0, 0, 0)" font-family="Helvetica" font-size="12px" text-anchor="middle"></text></switch></g><rect x="80" y="131" width="150" height="40" fill="none" stroke="none"/><g transform="translate(-0.5 -0.5)"><switch><text x="155" y="155" fill="rgb(0, 0, 0)" font-family="Courier New" font-size="12px" text-anchor="middle"> flag / experiment </text></switch></g><rect x="90" y="171" width="110" height="30" fill="#d5e8d4" stroke="#82b366"/><g transform="translate(-0.5 -0.5)"><switch><text x="145" y="190" fill="rgb(0, 0, 0)" font-family="Courier New" font-size="12px" text-anchor="middle"> variant 1 </text></switch></g><rect x="90" y="231" width="110" height="30" fill="#d5e8d4" stroke="#82b366"/><g transform="translate(-0.5 -0.5)"><switch><text x="145" y="250" fill="rgb(0, 0, 0)" font-family="Courier New" font-size="12px" text-anchor="middle"> variant k </text></switch></g><path d="M 320 186 L 353.63 186" fill="none" stroke="rgb(0, 0, 0)" stroke-miterlimit="10"/><path d="M 358.88 186 L 351.88 189.5 L 353.63 186 L 351.88 182.5 Z" fill="rgb(0, 0, 0)" stroke="rgb(0, 0, 0)" stroke-miterlimit="10"/><rect x="210" y="171" width="110" height="30" fill="#dae8fc" stroke="#6c8ebf" stroke-dasharray="3 3"/><g transform="translate(-0.5 -0.5)"><switch><text x="265" y="190" fill="rgb(0, 0, 0)" font-family="Helvetica" font-size="12px" text-anchor="middle"> deployment 0 </text></switch></g><path d="M 320 246 L 435 246 L 435 227.37" fill="none" stroke="rgb(0, 0, 0)" stroke-miterlimit="10"/><path d="M 435 222.12 L 438.5 229.12 L 435 227.37 L 431.5 229.12 Z" fill="rgb(0, 0, 0)" stroke="rgb(0, 0, 0)" stroke-miterlimit="10"/><rect x="210" y="231" width="110" height="30" fill="#dae8fc" stroke="#6c8ebf" stroke-dasharray="3 3"/><g transform="translate(-0.5 -0.5)"><switch><text x="265" y="250" fill="rgb(0, 0, 0)" font-family="Helvetica" font-size="12px" text-anchor="middle"> deployment n </text></switch></g><rect x="115" y="201" width="60" height="30" fill="none" stroke="none" transform="rotate(90,145,216)"/><g transform="translate(-0.5 -0.5)rotate(90 145 216)"><switch><text x="145" y="220" fill="rgb(0, 0, 0)" font-family="Courier New" font-size="12px" text-anchor="middle"> ... </text></switch></g><rect x="235" y="201" width="60" height="30" fill="none" stroke="none" transform="rotate(90,265,216)"/><g transform="translate(-0.5 -0.5)rotate(90 265 216)"><switch><text x="265" y="220" fill="rgb(0, 0, 0)" font-family="Courier New" font-size="12px" text-anchor="middle"> ... </text></switch></g><rect x="50" y="71" width="100" height="20" fill="none" stroke="none"/><g transform="translate(-0.5 -0.5)"><switch><text x="52" y="85" fill="rgb(0, 0, 0)" font-family="Courier New" font-size="12px" font-weight="bold"> Project </text></switch></g><rect x="10" y="10" width="100" height="20" fill="none" stroke="none"/><g transform="translate(-0.5 -0.5)"><switch><text x="12" y="24" fill="rgb(0, 0, 0)" font-family="Courier New" font-size="12px" font-weight="bold"> Organization </text></switch></g></g><switch><g/><a transform="translate(0,-5)" xlink:href="https://www.diagrams.net/doc/faq/svg-export-text-problems"><text text-anchor="middle" font-size="10px" x="50%" y="100%"> Viewer does not support full SVG 1.1 </text></a></switch></svg>