<svg width="25" height="24" viewBox="0 0 25 24" fill="none" xmlns="http://www.w3.org/2000/svg">
<g id="icon-search">
<path id="Vector" d="M15.999 14H15.209L14.929 13.73C15.909 12.59 16.499 11.11 16.499 9.5C16.499 5.91 13.589 3 9.99902 3C6.40902 3 3.49902 5.91 3.49902 9.5C3.49902 13.09 6.40902 16 9.99902 16C11.609 16 13.089 15.41 14.229 14.43L14.499 14.71V15.5L19.499 20.49L20.989 19L15.999 14ZM9.99902 14C7.50902 14 5.49902 11.99 5.49902 9.5C5.49902 7.01 7.50902 5 9.99902 5C12.489 5 14.499 7.01 14.499 9.5C14.499 11.99 12.489 14 9.99902 14Z" fill="#A8ABB3"/>
</g>
</svg>
