<svg width="20" height="21" viewBox="0 0 20 21" fill="none" xmlns="http://www.w3.org/2000/svg">
<g id="schedule">
<mask id="mask0_388_26358" style="mask-type:alpha" maskUnits="userSpaceOnUse" x="0" y="0" width="20" height="21">
<rect id="Bounding box" y="0.987793" width="20" height="20" fill="#D9D9D9"/>
</mask>
<g mask="url(#mask0_388_26358)">
<path id="schedule_2" d="M12.7917 14.5295L13.8542 13.467L10.75 10.3628V5.98779H9.25V10.9878L12.7917 14.5295ZM10 18.9878C8.89756 18.9878 7.86153 18.7795 6.89192 18.3628C5.92231 17.9461 5.07292 17.3732 4.34375 16.644C3.61458 15.9149 3.04167 15.0645 2.625 14.0928C2.20833 13.1212 2 12.083 2 10.9783C2 9.8735 2.20833 8.83502 2.625 7.86279C3.04167 6.89057 3.61458 6.04335 4.34375 5.32113C5.07292 4.5989 5.92332 4.02946 6.89496 3.61279C7.86661 3.19613 8.90481 2.98779 10.0095 2.98779C11.1143 2.98779 12.1528 3.19779 13.1251 3.61779C14.0974 4.03779 14.9432 4.60779 15.6625 5.32779C16.3817 6.04779 16.9511 6.89446 17.3707 7.86779C17.7902 8.84113 18 9.88113 18 10.9878C18 12.0902 17.7917 13.1263 17.375 14.0959C16.9583 15.0655 16.3889 15.9149 15.6667 16.644C14.9444 17.3732 14.0963 17.9461 13.1223 18.3628C12.1482 18.7795 11.1075 18.9878 10 18.9878ZM10.0099 17.4878C11.8082 17.4878 13.3395 16.8524 14.6037 15.5815C15.8679 14.3107 16.5 12.7761 16.5 10.9779C16.5 9.17956 15.8679 7.64831 14.6037 6.38411C13.3395 5.1199 11.8082 4.48779 10.0099 4.48779C8.21165 4.48779 6.67708 5.1199 5.40625 6.38411C4.13542 7.64831 3.5 9.17956 3.5 10.9779C3.5 12.7761 4.13542 14.3107 5.40625 15.5815C6.67708 16.8524 8.21165 17.4878 10.0099 17.4878Z" fill="#5A5E68"/>
</g>
</g>
</svg>
