<svg width="362" height="172" viewBox="0 0 362 172" fill="none" xmlns="http://www.w3.org/2000/svg"><g clip-path="url(#clip0_2_9)"><path d="M362 159C362 96.0395 310.96 45 248 45C185.04 45 134 96.0395 134 159V189.089C134 252.049 185.04 303.089 248 303.089C310.96 303.089 362 252.049 362 189.089V159Z" fill="#C1E0FE"/><path d="M194 214.167C194 158.11 148.557 112.667 92.5 112.667C36.4431 112.667 -9 158.11 -9 214.167V379.057C-9 435.113 36.4431 480.557 92.5 480.557C148.557 480.557 194 435.113 194 379.057V214.167Z" fill="#91D9E3"/></g><defs><clipPath id="clip0_2_9"><rect width="362" height="172" fill="white"/></clipPath></defs></svg>
