<svg width="54" height="54" viewBox="0 0 54 54" fill="none" xmlns="http://www.w3.org/2000/svg">
<path d="M18.5166 22.3294H24.6499V41.0044H18.5166V22.3294ZM28.9333 41.0044H35.0666V13.9961H28.9333V41.0044ZM39.3499 28.9961V41.0044H45.4833V28.9961H39.3499Z" fill="#0D1F91"/>
<path d="M20.25 0H54V33.75C54 44.9269 44.9269 54 33.75 54H0V20.25C0 9.07312 9.07312 0 20.25 0Z" fill="#91D9E3"/>
<path d="M40.9044 39.0165C40.4294 40.0665 39.621 40.5915 38.4793 40.5915H15.5284C14.3867 40.5915 13.5784 40.0665 13.1033 39.0165C12.6283 37.9665 12.7783 36.9999 13.57 36.1332L22.7537 25.7665V15.9415H21.0203C20.662 15.9415 20.362 15.8165 20.1203 15.5749C19.8786 15.3332 19.7536 15.0249 19.7536 14.6665C19.7536 14.3082 19.8786 14.0082 20.1203 13.7665C20.362 13.5249 20.662 13.4082 21.0203 13.4082H32.9791C33.3375 13.4082 33.6375 13.5332 33.8875 13.7749C34.1375 14.0165 34.2542 14.3249 34.2542 14.6832C34.2542 15.0415 34.1292 15.3415 33.8875 15.5832C33.6458 15.8249 33.3375 15.9415 32.9791 15.9415H31.254V25.7665L40.4377 36.1332C41.2211 37.0082 41.3711 37.9665 40.8961 39.0165H40.9044Z" fill="#0F4F73"/>
</svg>
