<svg xmlns="http://www.w3.org/2000/svg" width="79" height="23" viewBox="0 0 79 23" fill="none"><g clip-path="url(#clip0_9_3)"><path d="M71.495 0.396553H7.505C3.57826 0.396553 0.395004 3.59231 0.395004 7.53448V15.4655C0.395004 19.4077 3.57826 22.6034 7.505 22.6034H71.495C75.4217 22.6034 78.605 19.4077 78.605 15.4655V7.53448C78.605 3.59231 75.4217 0.396553 71.495 0.396553Z" stroke="#1E40AF"/><path d="M12.64 16.4404C11.9111 16.4404 11.2233 16.3001 10.5765 16.0196C9.92975 15.7391 9.36569 15.3572 8.88434 14.8739C8.40292 14.3906 8.02249 13.8243 7.74311 13.175C7.46369 12.5257 7.32397 11.8352 7.32397 11.1034C7.32397 10.3659 7.46369 9.67396 7.74311 9.02754C8.02249 8.38108 8.40292 7.81627 8.88434 7.33303C9.36569 6.84972 9.92975 6.4678 10.5765 6.18728C11.2233 5.9068 11.9111 5.76654 12.64 5.76654C13.3746 5.76654 14.0639 5.9068 14.7078 6.18728C15.3517 6.4678 15.9143 6.84972 16.3957 7.33303C16.8771 7.81627 17.2575 8.38108 17.5369 9.02754C17.8163 9.67396 17.956 10.3659 17.956 11.1034C17.956 11.8352 17.8163 12.5257 17.5369 13.175C17.2575 13.8243 16.8771 14.3906 16.3957 14.8739C15.9143 15.3572 15.3517 15.7391 14.7078 16.0196C14.0639 16.3001 13.3746 16.4404 12.64 16.4404ZM12.64 15.5858C12.9256 15.2055 13.1659 14.822 13.361 14.4352C13.5561 14.0484 13.7151 13.6257 13.8378 13.1669H11.4422C11.5721 13.6401 11.7329 14.0701 11.9244 14.4568C12.1159 14.8436 12.3544 15.2199 12.64 15.5858ZM11.5564 15.4313C11.3419 15.1223 11.1492 14.771 10.9785 14.3775C10.8077 13.9839 10.675 13.5803 10.5803 13.1669H8.68206C8.97764 13.7503 9.37398 14.2404 9.87117 14.6373C10.3684 15.0341 10.9301 15.2988 11.5564 15.4313ZM13.7236 15.4313C14.3499 15.2988 14.9116 15.0341 15.4088 14.6373C15.906 14.2404 16.3024 13.7503 16.5979 13.1669H14.6997C14.587 13.5839 14.4453 13.9892 14.2746 14.3829C14.1039 14.7765 13.9202 15.126 13.7236 15.4313ZM8.33008 12.3242H10.4103C10.3752 12.1154 10.3497 11.9107 10.3338 11.71C10.3181 11.5095 10.3102 11.3073 10.3102 11.1034C10.3102 10.8996 10.3181 10.6974 10.3338 10.4969C10.3497 10.2962 10.3752 10.0915 10.4103 9.8827H8.33008C8.27628 10.0735 8.23504 10.2719 8.20644 10.4779C8.17769 10.6839 8.16335 10.8924 8.16335 11.1034C8.16335 11.3145 8.17769 11.523 8.20644 11.729C8.23504 11.935 8.27628 12.1334 8.33008 12.3242ZM11.2496 12.3242H14.0304C14.0655 12.1154 14.091 11.9125 14.1068 11.7155C14.1226 11.5185 14.1305 11.3145 14.1305 11.1034C14.1305 10.8924 14.1226 10.6884 14.1068 10.4914C14.091 10.2944 14.0655 10.0915 14.0304 9.8827H11.2496C11.2145 10.0915 11.189 10.2944 11.1732 10.4914C11.1574 10.6884 11.1495 10.8924 11.1495 11.1034C11.1495 11.3145 11.1574 11.5185 11.1732 11.7155C11.189 11.9125 11.2145 12.1154 11.2496 12.3242ZM14.8697 12.3242H16.9499C17.0037 12.1334 17.045 11.935 17.0736 11.729C17.1023 11.523 17.1167 11.3145 17.1167 11.1034C17.1167 10.8924 17.1023 10.6839 17.0736 10.4779C17.045 10.2719 17.0037 10.0735 16.9499 9.8827H14.8697C14.9048 10.0915 14.9303 10.2962 14.9462 10.4969C14.9619 10.6974 14.9698 10.8996 14.9698 11.1034C14.9698 11.3073 14.9619 11.5095 14.9462 11.71C14.9303 11.9107 14.9048 12.1154 14.8697 12.3242ZM14.6997 9.04003H16.5979C16.2988 8.44941 15.9052 7.95927 15.4169 7.56958C14.9287 7.17997 14.3643 6.91348 13.7236 6.77013C13.9381 7.09709 14.129 7.45474 14.2961 7.843C14.4633 8.23118 14.5979 8.6302 14.6997 9.04003ZM11.4422 9.04003H13.8378C13.7079 8.57036 13.5445 8.13768 13.3476 7.74188C13.1506 7.34612 12.9148 6.97253 12.64 6.62115C12.3652 6.97253 12.1294 7.34612 11.9324 7.74188C11.7355 8.13768 11.5721 8.57036 11.4422 9.04003ZM8.68206 9.04003H10.5803C10.6821 8.6302 10.8167 8.23118 10.9839 7.843C11.1511 7.45474 11.3419 7.09709 11.5564 6.77013C10.9121 6.91348 10.3468 7.18092 9.86043 7.57235C9.37395 7.96375 8.98116 8.45298 8.68206 9.04003Z" fill="#1E40AF"/><path d="M35.1803 7.37586L32.2225 16.2586H31.186L28.9488 9.35545L26.7115 16.2586H25.675L22.7046 7.37586H23.9939L26.2185 14.279L28.4558 7.37586H29.4923L31.7043 14.2917L33.891 7.37586H35.1803ZM37.2593 16.3855C36.6694 16.3855 36.1343 16.2459 35.654 15.9668C35.1737 15.6791 34.7945 15.2858 34.5164 14.7866C34.2383 14.2875 34.0993 13.7376 34.0993 13.137C34.0993 12.5532 34.2383 12.0203 34.5164 11.5381C34.7945 11.0474 35.1737 10.6625 35.654 10.3833C36.1343 10.0957 36.6652 9.95186 37.2466 9.95186C37.7944 9.95186 38.2915 10.083 38.7382 10.3452C39.1932 10.6075 39.5514 10.967 39.8125 11.4239C40.0822 11.8807 40.2169 12.3925 40.2169 12.9593L40.2043 13.4161H35.2116C35.2621 13.9999 35.4728 14.4736 35.8436 14.8374C36.2144 15.1927 36.6905 15.3703 37.2719 15.3703C37.7101 15.3703 38.0893 15.2688 38.4095 15.0658C38.7297 14.8628 38.9278 14.5963 39.0036 14.2663H40.1537C40.0443 14.9093 39.72 15.4253 39.1806 15.8145C38.6497 16.1952 38.0092 16.3855 37.2593 16.3855ZM38.9783 12.5152C38.9362 12.0668 38.7508 11.6946 38.4222 11.3985C38.0935 11.1024 37.6891 10.9543 37.2087 10.9543C36.7115 10.9543 36.2902 11.0939 35.9447 11.3731C35.5992 11.6438 35.3717 12.0245 35.2622 12.5152H38.9783ZM43.9793 15.2688C44.3668 15.2688 44.7207 15.1758 45.0411 14.9897C45.361 14.8036 45.6138 14.5498 45.7995 14.2283C45.9847 13.9068 46.0775 13.5515 46.0775 13.1623C46.0775 12.7732 45.9847 12.4179 45.7995 12.0964C45.6138 11.7749 45.361 11.5211 45.0411 11.335C44.7207 11.1489 44.3668 11.0559 43.9793 11.0559C43.4145 11.0559 42.9385 11.2293 42.551 11.5761C42.1631 11.923 41.9399 12.3713 41.8811 12.9212V13.4034C41.9399 13.9533 42.1631 14.4017 42.551 14.7486C42.9385 15.0954 43.4145 15.2688 43.9793 15.2688ZM40.7055 7.37586H41.8811V11.3097C42.1086 10.8698 42.4202 10.5313 42.8164 10.2945C43.2209 10.0576 43.6886 9.93917 44.2195 9.93917C44.7669 9.93917 45.2686 10.083 45.7236 10.3706C46.187 10.6582 46.5492 11.0516 46.8107 11.5508C47.0801 12.0414 47.2151 12.5786 47.2151 13.1623C47.2151 13.7461 47.0801 14.2875 46.8107 14.7866C46.5492 15.2773 46.187 15.6664 45.7236 15.9541C45.2686 16.2417 44.7669 16.3855 44.2195 16.3855C43.6886 16.3855 43.2209 16.2671 42.8164 16.0302C42.4202 15.7933 42.1086 15.4549 41.8811 15.015V16.2586H40.7055V7.37586ZM52.7724 9.93917C53.3621 9.93917 53.8974 10.083 54.3777 10.3706C54.8663 10.6498 55.2498 11.0389 55.5279 11.5381C55.8143 12.0287 55.9577 12.5744 55.9577 13.175C55.9577 13.7672 55.8143 14.3087 55.5279 14.7993C55.2498 15.29 54.8663 15.6791 54.3777 15.9668C53.8974 16.2459 53.3621 16.3855 52.7724 16.3855C52.1823 16.3855 51.6431 16.2459 51.1545 15.9668C50.6655 15.6791 50.278 15.29 49.9916 14.7993C49.7135 14.3087 49.5745 13.7672 49.5745 13.175C49.5745 12.5744 49.7135 12.0287 49.9916 11.5381C50.278 11.0389 50.6615 10.6498 51.1418 10.3706C51.6305 10.083 52.174 9.93917 52.7724 9.93917ZM50.6994 13.175C50.6994 13.5642 50.7919 13.9195 50.9775 14.241C51.1628 14.554 51.4112 14.8036 51.7233 14.9897C52.0432 15.1758 52.3932 15.2688 52.7724 15.2688C53.1429 15.2688 53.4885 15.1758 53.8089 14.9897C54.1288 14.8036 54.3816 14.554 54.5673 14.241C54.7525 13.9195 54.8454 13.5642 54.8454 13.175C54.8454 12.7859 54.7525 12.4306 54.5673 12.1091C54.3816 11.7792 54.1288 11.5211 53.8089 11.335C53.4885 11.1489 53.1429 11.0559 52.7724 11.0559C52.3932 11.0559 52.0432 11.1489 51.7233 11.335C51.4112 11.5211 51.1628 11.7792 50.9775 12.1091C50.7919 12.4306 50.6994 12.7859 50.6994 13.175ZM57.6522 11.1828C57.8458 10.7851 58.1156 10.4806 58.4612 10.2691C58.8064 10.0491 59.2026 9.93917 59.6494 9.93917C60.4413 9.93917 61.069 10.1887 61.5327 10.6879C61.9961 11.187 62.2279 11.8638 62.2279 12.7182V16.2586H61.0524V12.8451C61.0524 12.3037 60.9007 11.8722 60.5974 11.5508C60.294 11.2208 59.8895 11.0559 59.3839 11.0559C58.8696 11.0559 58.4525 11.2208 58.1326 11.5508C57.8205 11.8722 57.6649 12.3037 57.6649 12.8451H57.6522V16.2586H56.4894V10.0661H57.6522V11.1828ZM64.2633 16.2586H63.0878V7.37586H64.2633V16.2586ZM66.9896 16.0429L64.4996 10.0661H65.7509L67.5837 14.6851L69.4292 10.0661H70.6805L67.154 18.5174H65.9026L66.9896 16.0429Z" fill="#1E40AF"/></g><defs><clipPath id="clip0_9_3"><rect width="79" height="23" fill="white"/></clipPath></defs></svg>