<svg width="55" height="54" viewBox="0 0 55 54" fill="none" xmlns="http://www.w3.org/2000/svg">
<path d="M20.75 0H54.5V33.75C54.5 44.9269 45.4269 54 34.25 54H0.5V20.25C0.5 9.07312 9.57312 0 20.75 0Z" fill="#F5D9E1"/>
<path d="M34.3751 24.5832H41.8751C43.3001 24.5832 44.4584 23.4248 44.4584 21.9998V14.4998C44.4584 13.0748 43.3001 11.9165 41.8751 11.9165H34.3751C32.9501 11.9165 31.7917 13.0748 31.7917 14.4998V16.9165H30.6251C27.8251 16.9165 25.5417 19.1998 25.5417 21.9998V25.6665H20.7084V24.4998C20.7084 23.0748 19.5501 21.9165 18.1251 21.9165H13.1251C11.7001 21.9165 10.5417 23.0748 10.5417 24.4998V29.4998C10.5417 30.9248 11.7001 32.0832 13.1251 32.0832H18.1251C19.5501 32.0832 20.7084 30.9248 20.7084 29.4998V28.3332H25.5417V31.9998C25.5417 34.7998 27.8251 37.0832 30.6251 37.0832H31.7917V39.4998C31.7917 40.9248 32.9501 42.0832 34.3751 42.0832H41.8751C43.3001 42.0832 44.4584 40.9248 44.4584 39.4998V31.9998C44.4584 30.5748 43.3001 29.4165 41.8751 29.4165H34.3751C32.9501 29.4165 31.7917 30.5748 31.7917 31.9998V34.4165H30.6251C29.2917 34.4165 28.2084 33.3332 28.2084 31.9998V21.9998C28.2084 20.6665 29.2917 19.5832 30.6251 19.5832H31.7917V21.9998C31.7917 23.4248 32.9501 24.5832 34.3751 24.5832ZM18.0417 29.4165H13.2084V24.5832H18.0417V29.4165ZM34.4584 32.0832H41.7917V39.4165H34.4584V32.0832ZM34.4584 14.5832H41.7917V21.9165H34.4584V14.5832Z" fill="#F54F4F"/>
</svg>
