<svg xmlns="http://www.w3.org/2000/svg" width="64" height="64" viewBox="0 0 64 64" fill="none"><path d="M24 0H64V40C64 53.2467 53.2467 64 40 64H0V24C0 10.7533 10.7533 0 24 0Z" fill="#91D9E3"/><path d="M46.5459 39.1291C44.9043 37.4875 42.1876 37.1791 40.1459 38.3625L37.3793 35.6041C38.1126 34.5125 38.5043 33.2625 38.5043 31.9708C38.5043 30.6791 38.1126 29.4291 37.3793 28.3375L40.1293 25.5875C40.9376 26.0791 41.8709 26.3458 42.8376 26.3458C44.2293 26.3458 45.5459 25.8041 46.5376 24.8208C47.5209 23.8375 48.0709 22.5208 48.0709 21.1208C48.0709 19.7208 47.5293 18.4125 46.5376 17.4208C44.5709 15.4541 41.1126 15.4541 39.1459 17.4208C37.4459 19.1208 37.1293 21.7875 38.3709 23.8291L35.6126 26.5875C33.4543 25.1708 30.5293 25.1708 28.3709 26.5875L25.6126 23.8291C26.8543 21.7875 26.5376 19.1208 24.8376 17.4208C22.8709 15.4541 19.4126 15.4541 17.4459 17.4208C16.4543 18.4041 15.9126 19.7208 15.9126 21.1208C15.9126 22.5208 16.4543 23.8291 17.4459 24.8208C18.4293 25.8041 19.7459 26.3458 21.1459 26.3458C22.1043 26.3458 23.0376 26.0875 23.8543 25.5875L26.6043 28.3375C25.8709 29.4291 25.4793 30.6791 25.4793 31.9708C25.4793 33.2625 25.8709 34.5125 26.6043 35.6041L23.8459 38.3625C21.8043 37.1708 19.0876 37.4875 17.4459 39.1291C16.4543 40.1125 15.9126 41.4291 15.9126 42.8291C15.9126 44.2291 16.4543 45.5375 17.4459 46.5291C18.4293 47.5125 19.7459 48.0541 21.1459 48.0541C22.5459 48.0541 23.8543 47.5125 24.8459 46.5291C26.5459 44.8291 26.8626 42.1625 25.6209 40.1208L28.3709 37.3708C30.5459 38.8458 33.4543 38.8458 35.6293 37.3708L38.3793 40.1208C37.1376 42.1625 37.4543 44.8291 39.1543 46.5291C40.1376 47.5125 41.4543 48.0541 42.8543 48.0541C44.2543 48.0541 45.5626 47.5125 46.5543 46.5291C47.5376 45.5458 48.0876 44.2291 48.0876 42.8291C48.0876 41.4291 47.5459 40.1208 46.5543 39.1291H46.5459ZM19.2043 40.8875C19.7209 40.3708 20.4043 40.0875 21.1376 40.0875C21.8709 40.0875 22.5543 40.3708 23.0709 40.8875C24.1376 41.9541 24.1376 43.6958 23.0709 44.7625C22.5793 45.2541 21.8709 45.5375 21.1376 45.5375C20.4043 45.5375 19.6959 45.2541 19.2043 44.7625C18.6876 44.2458 18.4043 43.5625 18.4043 42.8291C18.4043 42.0958 18.6876 41.4125 19.2043 40.8958V40.8875ZM23.0793 23.0541C22.0459 24.0875 20.2376 24.0875 19.2043 23.0541C18.1376 21.9875 18.1376 20.2458 19.2043 19.1791C19.7209 18.6625 20.4043 18.3791 21.1376 18.3791C21.8709 18.3791 22.5543 18.6625 23.0709 19.1791C24.1376 20.2458 24.1376 21.9875 23.0709 23.0541H23.0793ZM36.0209 31.9708C36.0209 33.0458 35.6043 34.0541 34.8376 34.8208C33.3209 36.3375 30.6626 36.3375 29.1459 34.8208C28.3876 34.0625 27.9626 33.0458 27.9626 31.9708C27.9626 30.8958 28.3793 29.8875 29.1459 29.1208C29.9043 28.3625 30.9126 27.9375 31.9959 27.9375C33.0793 27.9375 34.0793 28.3541 34.8459 29.1208C35.6043 29.8791 36.0293 30.8875 36.0293 31.9708H36.0209ZM40.9126 19.1791C41.4293 18.6625 42.1126 18.3791 42.8459 18.3791C43.5793 18.3791 44.2626 18.6625 44.7793 19.1791C45.8459 20.2458 45.8459 21.9875 44.7793 23.0541C43.7459 24.0875 41.9376 24.0875 40.9043 23.0541C40.3876 22.5375 40.1043 21.8458 40.1043 21.1125C40.1043 20.3791 40.3876 19.6958 40.9043 19.1791H40.9126ZM40.9126 40.8875C41.4293 40.3708 42.1126 40.0875 42.8459 40.0875C43.5793 40.0875 44.2626 40.3708 44.7793 40.8875C45.2959 41.4041 45.5793 42.0875 45.5793 42.8208C45.5793 43.5541 45.2959 44.2375 44.7793 44.7541C43.7459 45.7875 41.9376 45.7875 40.9043 44.7541C39.8376 43.6875 39.8376 41.9458 40.9043 40.8791L40.9126 40.8875Z" fill="#0F4F73"/></svg>