<svg xmlns="http://www.w3.org/2000/svg" width="64" height="64" viewBox="0 0 64 64" fill="none"><path d="M24 0H64V40C64 53.2467 53.2467 64 40 64H0V24C0 10.7533 10.7533 0 24 0Z" fill="#C9C2F5"/><path d="M26.9915 23.5325L17.4665 31.9992L26.9915 40.4659C27.5748 40.9825 27.6248 41.8825 27.1082 42.4659C26.8248 42.7825 26.4415 42.9409 26.0498 42.9409C25.7165 42.9409 25.3832 42.8242 25.1082 42.5825L14.3915 33.0575C14.0915 32.7909 13.9165 32.3992 13.9165 31.9992C13.9165 31.5992 14.0915 31.2075 14.3915 30.9409L25.1082 21.4159C25.6915 20.8992 26.5915 20.9492 27.1082 21.5325C27.6248 22.1159 27.5748 23.0159 26.9915 23.5325ZM49.6082 30.9409L38.8915 21.4159C38.3082 20.8992 37.4082 20.9492 36.8915 21.5325C36.3748 22.1159 36.4248 23.0159 37.0082 23.5325L46.5332 31.9992L37.0082 40.4659C36.4248 40.9825 36.3748 41.8825 36.8915 42.4659C37.1748 42.7825 37.5582 42.9409 37.9498 42.9409C38.2832 42.9409 38.6165 42.8242 38.8915 42.5825L49.6082 33.0575C49.9082 32.7909 50.0832 32.3992 50.0832 31.9992C50.0832 31.5992 49.9082 31.2075 49.6082 30.9409Z" fill="#2F1761"/></svg>