<svg width="55" height="54" viewBox="0 0 55 54" fill="none" xmlns="http://www.w3.org/2000/svg">
<path d="M20.75 0H54.5V33.75C54.5 44.9269 45.4269 54 34.25 54H0.5V20.25C0.5 9.07312 9.57312 0 20.75 0Z" fill="#F5D9E1"/>
<path d="M44.1291 17.873C43.5791 17.3229 42.6791 17.3229 42.1291 17.873L36.8791 23.123L31.3791 17.623L36.6291 12.3729C37.1791 11.8229 37.1791 10.9229 36.6291 10.3729C36.0791 9.82295 35.1791 9.82295 34.6291 10.3729L29.3791 15.623L25.3791 11.6229C24.8291 11.0729 23.9291 11.0729 23.3791 11.6229C22.8291 12.1729 22.8291 13.0729 23.3791 13.6229L24.2541 14.4979L16.0874 22.6563C13.5874 25.1563 13.5874 29.2313 16.0874 31.7313L18.4291 34.073L10.8791 41.623C10.3291 42.173 10.3291 43.073 10.8791 43.623C11.1541 43.898 11.5207 44.0396 11.8791 44.0396C12.2374 44.0396 12.6041 43.898 12.8791 43.623L20.4291 36.073L22.7707 38.4146C24.0207 39.6646 25.6624 40.2896 27.3041 40.2896C28.9457 40.2896 30.5874 39.6646 31.8374 38.4146L39.9957 30.2563L40.8707 31.1313C41.1457 31.4063 41.5124 31.548 41.8707 31.548C42.229 31.548 42.5957 31.4063 42.8707 31.1313C43.4207 30.5813 43.4207 29.6813 42.8707 29.1313L38.8707 25.1313L44.1207 19.8813C44.6707 19.3313 44.6707 18.4313 44.1207 17.8813L44.1291 17.873ZM29.8374 36.4063C28.4374 37.8063 26.1707 37.8063 24.7707 36.4063L21.4374 33.073L18.1041 29.7396C16.7041 28.3396 16.7041 26.073 18.1041 24.673L26.2624 16.5146L38.0124 28.2646L29.8541 36.423L29.8374 36.4063Z" fill="#F54F4F"/>
</svg>
