<svg width="55" height="54" viewBox="0 0 55 54" fill="none" xmlns="http://www.w3.org/2000/svg">
<path d="M20.75 0H54.5V33.75C54.5 44.9269 45.4269 54 34.25 54H0.5V20.25C0.5 9.07312 9.57312 0 20.75 0Z" fill="#C9C2F5"/>
<path d="M24.3376 30.7334C24.5459 30.8417 24.7709 30.9001 24.9959 30.9001C25.2626 30.9001 25.5376 30.8251 25.7709 30.6667L33.2709 25.6667C33.6626 25.4084 33.8959 24.9751 33.8959 24.5084C33.8959 24.0417 33.6626 23.6084 33.2709 23.3501L25.7709 18.3501C25.3459 18.0667 24.7876 18.0334 24.3376 18.2834C23.8876 18.5251 23.6042 19.0001 23.6042 19.5167V29.5167C23.6042 30.0334 23.8876 30.5084 24.3376 30.7501V30.7334ZM26.3959 22.1084L29.9876 24.5001L26.3959 26.8917V22.1084ZM41.2459 13.1084H13.7459C12.2876 13.1084 11.1042 14.2917 11.1042 15.7501V33.2501C11.1042 34.7084 12.2876 35.8917 13.7459 35.8917H41.2459C42.7042 35.8917 43.8876 34.7084 43.8876 33.2501V15.7501C43.8876 14.2917 42.7042 13.1084 41.2459 13.1084ZM41.1042 33.1084H13.8959V15.9001H41.1042V33.1084ZM43.8959 39.5001C43.8959 40.2667 43.2709 40.8917 42.5042 40.8917H12.4959C11.7209 40.8917 11.1042 40.2667 11.1042 39.5001C11.1042 38.7334 11.7292 38.1084 12.4959 38.1084H42.4959C43.2709 38.1084 43.8876 38.7334 43.8876 39.5001H43.8959Z" fill="#2F1761"/>
</svg>
