<svg width="815" height="754" viewBox="0 0 815 754" fill="none" xmlns="http://www.w3.org/2000/svg">
<path fill-rule="evenodd" clip-rule="evenodd" d="M407.191 559.57L349.101 660.188C297.474 749.609 182.964 780.29 93.5443 728.666C4.12425 677.039 -26.5599 562.526 25.0671 473.109L244.162 93.6245C277.131 36.5199 335.747 3.3693 397.097 0.31411C465.497 -3.65919 533.611 30.2098 570.175 93.5415L789.269 473.026C840.896 562.446 810.215 676.956 720.794 728.583C631.374 780.21 516.865 749.526 465.237 660.105L407.191 559.57ZM625.552 418.167C543.246 418.167 476.423 484.99 476.423 567.296C476.423 649.602 543.246 716.424 625.552 716.424C707.861 716.424 774.681 649.602 774.681 567.296C774.681 484.99 707.861 418.167 625.552 418.167Z" fill="#226D4F"/>
</svg>
