<svg width="64" height="64" viewBox="0 0 64 64" fill="none" xmlns="http://www.w3.org/2000/svg">
<g clip-path="url(#clip0_1_4)">
<mask id="mask0_1_4" style="mask-type:luminance" maskUnits="userSpaceOnUse" x="-1" y="10" width="56" height="70">
<path d="M-0.308411 10.6799H54.8758V79.4779H-0.308411V10.6799Z" fill="white"/>
</mask>
<g mask="url(#mask0_1_4)">
<path d="M18.5849 16.9702C19.1127 15.5846 19.8385 14.3089 20.9163 13.2752C25.2272 9.07431 32.3534 10.13 35.2787 15.4087C37.4781 19.4116 39.8095 23.3266 42.075 27.2855L53.4241 47.0364C56.5694 52.5569 53.1602 59.5291 46.9138 60.4749C43.0867 61.0467 39.5016 59.2872 37.5221 55.8561L27.5366 38.5246C27.4706 38.3926 27.3827 38.2827 27.2947 38.1727C26.9428 37.8868 26.7888 37.4689 26.5689 37.095L19.2227 24.3603C18.3649 22.8647 17.969 21.2371 18.013 19.5216C18.079 18.6418 18.189 17.762 18.5849 16.9702Z" fill="#3C8BD9"/>
<path d="M18.5849 16.9702C18.3869 17.762 18.211 18.5538 18.167 19.3896C18.101 21.2371 18.5629 22.9527 19.4866 24.5583L26.7228 37.073C26.9428 37.4469 27.1187 37.8208 27.3387 38.1727L23.3577 45.0129L17.7931 54.6024C17.7051 54.6024 17.6831 54.5584 17.6611 54.4924C17.6391 54.3165 17.7051 54.1625 17.7491 53.9865C18.6508 50.6874 17.903 47.7622 15.6376 45.2548C14.2519 43.7372 12.4924 42.8795 10.4689 42.5935C7.82955 42.2196 5.49813 42.9015 3.40866 44.551C3.03475 44.8369 2.79281 45.2548 2.35292 45.4748C2.26494 45.4748 2.22095 45.4308 2.19896 45.3648L5.34417 39.8882L18.4309 17.2122C18.4749 17.1242 18.5409 17.0582 18.5849 16.9702Z" fill="#FABC04"/>
<path d="M2.28694 45.4308L3.54063 44.3091C8.88529 40.0862 16.9133 43.1434 18.079 49.8296C18.3649 51.4352 18.211 52.9748 17.7271 54.5144C17.7051 54.6464 17.6831 54.7563 17.6391 54.8883C17.4411 55.2402 17.2652 55.6141 17.0452 55.966C15.0877 59.1992 12.2065 60.8048 8.42341 60.5628C4.09049 60.2549 0.681342 56.9998 0.087491 52.6889C-0.198437 50.5994 0.219458 48.6419 1.29719 46.8384C1.51713 46.4425 1.78107 46.0906 2.02301 45.6947C2.13298 45.6067 2.08899 45.4308 2.28694 45.4308Z" fill="#34A852"/>
<path d="M2.28694 45.4308C2.19896 45.5188 2.19896 45.6727 2.045 45.6947C2.023 45.5408 2.11098 45.4528 2.19896 45.3428L2.28694 45.4308Z" fill="#FABC04"/>
<path d="M17.6391 54.8883C17.5511 54.7343 17.6391 54.6244 17.7271 54.5144L17.8151 54.6024L17.6391 54.8883Z" fill="#E1C025"/>
</g>
</g>
<defs>
<clipPath id="clip0_1_4">
<rect width="64" height="64" fill="white"/>
</clipPath>
</defs>
</svg>
