<svg xmlns="http://www.w3.org/2000/svg" width="38" height="38" viewBox="0 0 38 38" fill="none"><path d="M29.8841 29.8801C27.8049 31.9574 23.7398 33.1946 19.0056 33.1946C14.2714 33.1946 10.2017 31.9574 8.12868 29.8801C6.05565 27.8027 4.80449 23.7366 4.80449 19.0031C4.80449 14.2695 6.04953 10.2065 8.12714 8.12759C10.2048 6.04873 14.276 4.80538 19.0117 4.80538C23.7475 4.80538 27.811 6.04873 29.8902 8.12759C31.9693 10.2065 33.2052 14.271 33.2052 19.0031C33.2052 23.7351 31.9556 27.8012 29.8841 29.8801ZM38.0051 19C38.0051 15.2422 36.8906 11.5687 34.8026 8.44417C32.7146 5.31964 29.7468 2.88436 26.2745 1.4463C22.8022 0.00823259 18.9815 -0.368031 15.2953 0.365088C11.6092 1.09821 8.22328 2.90778 5.56572 5.56498C2.90817 8.22218 1.09835 11.6077 0.365137 15.2933C-0.36808 18.9789 0.00823331 22.7992 1.44649 26.271C2.88475 29.7428 5.32035 32.7102 8.4453 34.7979C11.5703 36.8857 15.2442 38 19.0026 38C21.498 38 23.969 37.5086 26.2745 36.5537C28.58 35.5989 30.6748 34.1994 32.4394 32.435C34.2039 30.6707 35.6036 28.5762 36.5586 26.271C37.5136 23.9658 38.0051 21.4951 38.0051 19Z" fill="#FC6423"/><path d="M22.6682 16.3408V21.5341C22.6695 21.8192 22.5576 22.0931 22.3571 22.2959C22.1567 22.4986 21.884 22.6136 21.5989 22.6156H16.3896C16.106 22.6176 15.8332 22.5069 15.6312 22.3079C15.4292 22.1088 15.3146 21.8377 15.3125 21.5541C15.3125 21.5475 15.3125 21.5408 15.3126 21.5341V16.3408C15.312 16.1992 15.3393 16.0588 15.3929 15.9278C15.4466 15.7967 15.5255 15.6775 15.6252 15.5769C15.7249 15.4764 15.8435 15.3964 15.9741 15.3417C16.1047 15.2869 16.2449 15.2585 16.3865 15.2579L16.3896 15.2578H21.5928C21.7344 15.2582 21.8746 15.2865 22.0053 15.3411C22.136 15.3957 22.2546 15.4754 22.3545 15.5758C22.4544 15.6763 22.5335 15.7954 22.5873 15.9264C22.6411 16.0573 22.6686 16.1976 22.6682 16.3393V16.3408Z" fill="#FC6423"/><path d="M27.8993 10.035C26.4266 8.56251 22.9298 7.60938 18.99 7.60938C15.0502 7.60938 11.5533 8.56251 10.0806 10.035C8.60798 11.5075 7.65625 15.0084 7.65625 18.9492C7.65625 22.89 8.60187 26.391 10.0806 27.865C11.5594 29.339 15.0502 30.289 18.99 30.289C22.9298 30.289 26.4266 29.3359 27.8993 27.865C29.372 26.394 30.3251 22.89 30.3251 18.9492C30.3251 15.0084 29.3795 11.4998 27.8993 10.035ZM24.459 24.3808C24.1535 24.6863 23.2139 25.6242 18.9593 25.6242C14.7048 25.6242 13.7653 24.6909 13.4598 24.3808C13.1542 24.0708 12.2164 23.1375 12.2164 18.882C12.2164 14.6265 13.1497 13.6887 13.4598 13.3832C13.7699 13.0777 14.6972 12.1459 18.9593 12.1459C23.2215 12.1459 24.1443 13.0731 24.459 13.3832C24.7737 13.6932 25.6948 14.6265 25.6948 18.882C25.6948 23.1375 24.763 24.0662 24.459 24.3747V24.3808Z" fill="#FC6423"/></svg>