<svg xmlns:x="ns_extend;" xmlns:i="ns_ai;" xmlns:graph="ns_graphs;" xmlns="http://www.w3.org/2000/svg" xmlns:xlink="http://www.w3.org/1999/xlink" version="1.1" id="Layer_1" x="0px" y="0px" viewBox="0 0 104.5 74.4" style="enable-background:new 0 0 104.5 74.4;" xml:space="preserve"><style type="text/css"> .st0{fill:url(#Path_241_1_);}	.st1{fill:url(#Path_242_1_);}	.st2{fill:url(#Path_243_1_);} </style><metadata></metadata><g><g><linearGradient id="Path_241_1_" gradientUnits="userSpaceOnUse" x1="-676.7817" y1="862.3243" x2="-675.8024" y2="862.3243" gradientTransform="matrix(85.087 0 0 -31.1166 57589.1094 26848.2852)"><stop offset="0" style="stop-color:#A5D270"></stop><stop offset="0.5" style="stop-color:#5DA4B6"></stop><stop offset="0.7739" style="stop-color:#2F87E2"></stop><stop offset="1" style="stop-color:#1476FC"></stop></linearGradient><path id="Path_241_00000138569960490702086780000016303982753577425315_" class="st0" d="M31.6,13.6L31.6,13.6l42.2,0 c4.9,0.1,8.7,1.2,11.3,3.2c0.1,0,0.1,0,0.2,0c0,0,0-0.1,0-0.1c-3.1-5.8-7.8-10.7-13.5-14c-3-1.7-6.5-2.6-9.9-2.6H30.6v0 C21,0.3,13.5,3.3,8.3,8.9c-5.1,5.4-7.8,12.9-8.1,22.2c0,0.1,0.1,0.1,0.1,0.1c0,0,0.1,0,0.1-0.1C7,20.2,18.8,13.6,31.6,13.6z"></path><linearGradient id="Path_242_1_" gradientUnits="userSpaceOnUse" x1="-679.4335" y1="862.4943" x2="-679.2552" y2="861.5483" gradientTransform="matrix(33.652 0 0 -74.3677 22948.0605 64143.5781)"><stop offset="1.700000e-02" style="stop-color:#FFD522"></stop><stop offset="0.1518" style="stop-color:#E0C437"></stop><stop offset="0.5612" style="stop-color:#7B8C7E"></stop><stop offset="0.9015" style="stop-color:#2379E9"></stop><stop offset="1" style="stop-color:#1476FC"></stop></linearGradient><path id="Path_242_00000014630845450602277260000002636582082785919384_" class="st1" d="M96.4,8.9c-8.6-9.4-22.8-9-25.4-8.8 c-0.1,0-0.1,0.1-0.1,0.1c0,0,0,0.1,0.1,0.1c10.7,5.3,18.2,15.7,19.8,27.5c0.7,4.9,0.3,14.7,0.3,14.7c-0.2,13.3-7.5,25.4-19.2,31.6 c-0.1,0-0.1,0.1-0.1,0.2c0,0,0.1,0.1,0.1,0.1c2.5,0.1,16.1,0.4,24.6-8.8c5.3-5.8,8.1-13.8,8.1-23.9v-8.8 C104.5,22.7,101.7,14.7,96.4,8.9z"></path><linearGradient id="Path_243_1_" gradientUnits="userSpaceOnUse" x1="-676.7969" y1="862.2358" x2="-675.9651" y2="861.709" gradientTransform="matrix(85.715 0 0 -56.1461 58012.7109 48449.2227)"><stop offset="0" style="stop-color:#FC4B38"></stop><stop offset="6.499109e-02" style="stop-color:#FC4B38"></stop><stop offset="0.5" style="stop-color:#7E6985"></stop><stop offset="0.9526" style="stop-color:#1476FC"></stop></linearGradient><path id="Path_243_00000016767590359823891360000011236747957546222227_" class="st2" d="M72.3,71.8c5.8-3.3,10.5-8.4,13.4-14.4 c0-0.1,0-0.1-0.1-0.2c0,0-0.1,0-0.1,0c-2.7,2.3-6.5,3.4-11.7,3.5H30.9c-5.9-0.1-10-1.6-12.7-4.5c-3-3.2-4.5-8.1-4.5-14.7v-8.8 c0-9.1,3-13.2,4.2-14.4c0-0.1,0-0.1,0-0.2c0,0-0.1,0-0.1,0C12,20.7,7,24.8,3.3,29.9C1.1,33.1,0,37,0,40.9c0,6.1,1.2,17,8.3,24.6 c5.7,6.1,14.3,8.8,22.3,8.7l32.2,0C66.1,74.3,69.4,73.5,72.3,71.8z"></path></g></g></svg>