<svg xmlns="http://www.w3.org/2000/svg" width="888" height="289" viewBox="0 0 888 289" fill="none"><path d="M0 0H89.72C89.72 29.91 89.72 59.81 89.72 89.72H0V0Z" fill="#F25022"/><path d="M98.88 0H188.6C188.6 29.91 188.6 59.81 188.6 89.72C158.7 89.72 128.79 89.72 98.89 89.72C98.88 59.81 98.89 29.91 98.89 0H98.88Z" fill="#80BA01"/><path d="M809.08 34.18C817.35 28.8 828.04 28.3 837.36 30.86C837.44 36.4 837.37 41.94 837.4 47.49C832.97 45.54 827.76 44.27 823.1 46.18C819.4 47.65 817.2 51.44 816.63 55.23C815.93 60.04 816.39 64.92 816.27 69.76C825.73 69.78 835.19 69.76 844.66 69.77C844.73 63.63 844.58 57.48 844.74 51.34C851.17 49.51 857.54 47.45 863.94 45.53C863.99 53.62 863.86 61.72 864.01 69.82C870.41 69.73 876.81 69.8 883.21 69.78V85.54C876.79 85.28 870.36 85.47 863.93 85.45C863.96 94.51 863.93 103.57 863.94 112.63C864.04 117.65 863.67 122.69 864.26 127.69C864.62 130.64 865.69 133.9 868.45 135.43C873.08 138.02 878.95 136.89 883.2 134.05V149.96C877.66 152.37 871.46 153.1 865.46 152.68C859.77 152.26 853.87 150.19 850.16 145.66C845.87 140.55 844.77 133.62 844.68 127.14C844.63 113.24 844.68 99.33 844.66 85.43C835.19 85.43 825.72 85.42 816.26 85.43C816.25 107.25 816.26 129.07 816.26 150.89H796.86C796.86 129.08 796.83 107.27 796.87 85.46C792.37 85.37 787.87 85.48 783.37 85.39C783.39 80.21 783.41 75.03 783.36 69.84C787.84 69.74 792.32 69.78 796.81 69.81C797.14 62.92 796.09 55.84 798.15 49.13C799.89 43.07 803.76 37.61 809.09 34.19L809.08 34.18Z" fill="#3A3535"/><path d="M393.62 35.32C397.53 34.73 401.77 36.06 404.36 39.12C407.4 42.47 407.96 47.81 405.71 51.72C403.22 56.14 397.65 58.19 392.79 57.13C387.75 56.22 383.55 51.54 383.78 46.32C383.63 40.82 388.23 35.93 393.62 35.31V35.32Z" fill="#3A3535"/><path d="M244.91 37.72H273.13C281.91 60.02 290.76 82.31 299.56 104.61C301.81 110.19 303.91 115.83 306.26 121.36C317.56 93.49 329.02 65.69 340.24 37.78C349.29 37.63 358.34 37.75 367.39 37.73C367.37 75.45 367.38 113.16 367.39 150.88C360.86 150.86 354.33 150.93 347.81 150.84C347.88 123.01 347.81 95.18 347.84 67.34C347.85 66.09 347.81 64.84 347.72 63.59C347.34 64.17 347 64.78 346.7 65.4C335.49 93.89 324.06 122.3 312.91 150.82C308.27 150.99 303.61 150.83 298.96 150.91C287.39 122.42 275.97 93.87 264.46 65.35C264.16 64.76 263.83 64.18 263.48 63.63C263.24 75.82 263.44 88.03 263.38 100.22C263.38 117.11 263.37 134 263.38 150.88C257.22 150.9 251.06 150.88 244.91 150.88C244.91 113.16 244.9 75.44 244.91 37.72Z" fill="#3A3535"/><path d="M447.02 69.7C456.39 67.03 466.48 67.14 475.84 69.79C477.77 70.33 479.64 71.08 481.37 72.1C481.26 78.28 481.37 84.47 481.31 90.65C475.05 85.87 467.12 82.84 459.16 83.84C452.84 84.41 446.82 87.69 443.04 92.79C438.18 99.12 437.06 107.52 437.9 115.26C438.53 121.32 441.03 127.37 445.74 131.38C450.63 135.73 457.49 137.27 463.89 136.78C470.22 136.05 476.19 133.37 481.3 129.63C481.35 135.49 481.27 141.34 481.34 147.2C473.41 151.92 463.9 153.14 454.82 152.69C445.53 152.2 436.27 148.68 429.54 142.15C422.23 135.11 418.27 125.06 417.8 115C417.33 104.54 419.45 93.63 425.47 84.89C430.51 77.44 438.4 72.16 447 69.68L447.02 69.7Z" fill="#3A3535"/><path d="M623.21 88.71C619.84 81.22 613.76 74.96 606.26 71.58C597.62 67.65 587.79 67.12 578.48 68.3C568.7 69.53 559.18 74.14 552.97 81.93C547.3 88.89 544.54 97.84 544.01 106.71C543.23 117.17 544.97 128.27 551.12 137C556.35 144.53 564.61 149.71 573.54 151.62C581 153.19 588.8 153.19 596.26 151.64C604.98 149.85 613.13 145.02 618.54 137.89C623.82 131.18 626.47 122.72 627.07 114.28C627.68 105.63 626.81 96.68 623.21 88.7V88.71ZM604.47 125.94C602.62 130.11 599.22 133.63 594.94 135.31C589.93 137.23 584.3 137.35 579.12 136.01C573.86 134.63 569.39 130.82 566.96 125.98C563.83 119.74 563.37 112.52 564.01 105.68C564.6 99.46 566.76 93.05 571.51 88.76C574.95 85.55 579.64 83.98 584.28 83.72C590.11 83.34 596.32 84.99 600.51 89.23C604.99 93.64 606.73 100.03 607.21 106.13C607.55 112.81 607.28 119.76 604.48 125.95L604.47 125.94Z" fill="#3A3535"/><path d="M658.99 68.47C667.96 66.89 677.35 68.05 685.85 71.27C685.86 77.22 685.85 83.16 685.85 89.11C679.92 85.03 672.67 82.84 665.47 83.09C661.84 83.23 657.86 84.77 656.2 88.21C654.89 91.62 655.8 96.09 659.01 98.14C664.51 101.82 671.08 103.38 676.78 106.68C681.27 109.2 685.62 112.5 687.9 117.25C692.17 126.15 690.36 137.92 682.85 144.55C675.68 151.25 665.35 153.11 655.85 152.75C649.1 152.31 642.32 150.98 636.12 148.22C636.15 141.96 636.08 135.71 636.15 129.46C641.37 133.25 647.39 135.96 653.75 137.06C658.18 137.78 663.01 137.81 667.14 135.83C671.1 133.86 671.81 128.24 669.46 124.8C667.26 122.15 664.03 120.69 660.99 119.26C655.27 116.69 649.26 114.54 644.24 110.69C640.71 107.94 638.04 104.06 636.99 99.68C635.44 93.23 635.92 85.96 639.67 80.32C643.95 73.75 651.4 69.81 658.98 68.46L658.99 68.47Z" fill="#3A3535"/><path d="M778.62 91.06C775.63 83.01 769.66 76.05 761.95 72.19C753.11 67.73 742.83 67.08 733.15 68.28C725.34 69.28 717.67 72.25 711.71 77.48C704.44 83.75 700.17 92.96 698.91 102.39C697.71 111.81 698.12 121.74 701.96 130.56C705.65 139.21 712.92 146.24 721.67 149.68C730.31 153.08 739.91 153.46 749 151.99C758.3 150.45 767.1 145.57 772.86 138.04C779.01 130.27 781.65 120.21 781.64 110.42C781.77 103.86 780.96 97.21 778.62 91.05V91.06ZM761.11 118.55C760.37 122.82 758.89 127.07 756.09 130.45C753.27 133.84 749.08 135.91 744.75 136.55C740.11 137.25 735.21 136.91 730.87 135.04C726.18 133.06 722.55 129 720.64 124.33C718.34 118.77 717.88 112.61 718.34 106.66C718.78 100.9 720.41 94.99 724.22 90.51C727.69 86.33 733.01 84.02 738.38 83.71C743.86 83.33 749.71 84.59 753.93 88.3C757.82 91.52 759.97 96.35 760.95 101.21C762.06 106.91 762.05 112.81 761.11 118.54V118.55Z" fill="#3A3535"/><path d="M524.77 71.02C530.13 67.8 536.93 67.53 542.78 69.5C542.75 75.97 542.78 82.44 542.76 88.92C538.93 86.44 534.16 85.38 529.64 85.84C524.13 86.47 519.77 90.7 517.5 95.54C515.04 100.68 514.58 106.48 514.74 112.1C514.74 125.03 514.74 137.95 514.74 150.88H495.61C495.59 123.86 495.63 96.84 495.59 69.82C501.98 69.74 508.36 69.77 514.75 69.8C514.72 74.44 514.75 79.08 514.73 83.72C516.8 78.67 519.89 73.77 524.76 71.01L524.77 71.02Z" fill="#3A3535"/><path d="M385.54 69.8C391.97 69.77 398.41 69.71 404.85 69.83C404.77 96.84 404.85 123.86 404.82 150.88H385.56C385.54 123.86 385.56 96.83 385.55 69.8H385.54Z" fill="#3A3535"/><path d="M0 98.88C29.91 98.89 59.81 98.88 89.72 98.89C89.72 128.8 89.72 158.7 89.72 188.61H0V98.88Z" fill="#02A4EF"/><path d="M98.89 98.89C128.79 98.88 158.7 98.89 188.61 98.89V188.61H98.89C98.89 158.7 98.89 128.8 98.89 98.89Z" fill="#FFB902"/><path d="M470.5 264.32H461.14L453.54 244.15H422.91L415.71 264.32H406.36L433.92 192.2H442.68L470.49 264.32H470.5ZM450.73 236.5L439.42 205.83C439.12 204.99 438.72 203.36 438.26 200.95H438.06C437.75 202.99 437.39 204.63 436.96 205.83L425.75 236.5H450.74H450.73Z" fill="#383636"/><path d="M521.5 264.33H513.26V255.58H513.06C509.23 262.25 503.32 265.57 495.35 265.57C489.01 265.57 483.92 263.32 480.06 258.84C476.04 254.21 474.03 247.88 474.03 239.81C474.03 231.24 476.17 224.37 480.46 219.24C484.75 214.11 490.47 211.54 497.61 211.54C504.75 211.54 509.8 214.33 513.06 219.89H513.26V188.05H521.5V264.31V264.33ZM513.26 241.03V233.44C513.26 229.31 511.92 225.85 509.24 223.02C506.45 220.08 502.94 218.6 498.67 218.6C493.65 218.6 489.69 220.44 486.8 224.11C483.92 227.79 482.48 232.86 482.48 239.37C482.48 245.88 483.97 250.4 486.95 253.82C489.69 256.96 493.29 258.54 497.72 258.54C502.41 258.54 506.22 256.83 509.14 253.41C511.89 250.12 513.27 245.99 513.27 241.02" fill="#383636"/><path d="M576.63 212.82L556.11 264.33H547.96L528.5 212.82H537.61L550.69 250.19C551.58 252.88 552.16 255.29 552.4 257.42H552.65C552.95 254.88 553.49 252.55 554.26 250.44L567.99 212.81H576.64L576.63 212.82Z" fill="#383636"/><path d="M624.42 240.65H588.06C588.2 246.4 589.74 250.82 592.69 253.91C595.64 257 599.69 258.54 604.86 258.54C610.66 258.54 615.97 256.67 620.81 252.9V260.6C616.31 263.9 610.34 265.57 602.89 265.57C595.85 265.57 590.27 263.36 586.14 258.93C581.71 254.24 579.51 247.51 579.51 238.77C579.51 230.48 581.9 223.8 586.7 218.71C591.19 213.94 596.69 211.55 603.19 211.55C610.17 211.55 615.49 213.89 619.19 218.54C622.67 222.9 624.41 228.82 624.41 236.3V240.64L624.42 240.65ZM615.97 233.65C615.9 228.96 614.81 225.3 612.66 222.68C610.41 219.97 607.22 218.61 603.09 218.61C599.21 218.61 595.91 220 593.19 222.76C590.48 225.52 588.8 229.17 588.16 233.65H615.97Z" fill="#383636"/><path d="M661.29 221.17C659.84 220.06 657.75 219.51 655 219.51C651.65 219.51 648.83 221.01 646.55 224.03C643.97 227.42 642.67 232.1 642.67 238.07V264.33H634.41V212.82H642.67V223.43H642.87C644.07 219.68 645.94 216.78 648.46 214.73C650.81 212.85 653.44 211.9 656.36 211.9C658.54 211.9 660.18 212.15 661.29 212.62V221.17Z" fill="#383636"/><path d="M695.09 263.81C693.15 264.92 690.57 265.48 687.35 265.48C678.37 265.48 673.88 260.41 673.88 250.29V219.8H665.02V212.82H673.88V200.23C676.49 199.4 679.23 198.5 682.12 197.56V212.82H695.09V219.8H682.12V248.87C682.12 252.33 682.71 254.79 683.88 256.24C685.06 257.71 687.02 258.44 689.77 258.44C691.82 258.44 693.6 257.88 695.09 256.78V263.81Z" fill="#383636"/><path d="M713.71 194.36C713.71 195.87 713.18 197.15 712.13 198.19C711.07 199.21 709.79 199.73 708.27 199.73C706.75 199.73 705.53 199.24 704.47 198.23C703.41 197.21 702.89 195.93 702.89 194.35C702.89 192.77 703.41 191.58 704.47 190.55C705.53 189.55 706.79 189.04 708.27 189.04C709.75 189.04 711.07 189.55 712.13 190.55C713.18 191.58 713.71 192.84 713.71 194.35M712.3 264.32H704.06V212.83H712.3V264.32Z" fill="#383636"/><path d="M755.05 250.55C755.05 254.77 753.48 258.27 750.32 261.06C746.88 264.08 742.16 265.58 736.19 265.58C731.31 265.58 727.04 264.55 723.42 262.47V253.61C727.45 256.91 731.9 258.55 736.8 258.55C743.33 258.55 746.61 256.15 746.61 251.36C746.61 249.35 745.9 247.68 744.45 246.38C743 245.07 740.19 243.5 736.01 241.65C731.67 239.77 728.61 237.82 726.79 235.82C724.61 233.44 723.52 230.33 723.52 226.52C723.52 222.2 725.21 218.65 728.6 215.83C731.98 212.98 736.36 211.56 741.68 211.56C745.76 211.56 749.44 212.39 752.7 213.99V222.3C749.31 219.83 745.42 218.61 741.04 218.61C738.28 218.61 736.09 219.29 734.44 220.63C732.79 221.97 731.96 223.7 731.96 225.82C731.96 228.1 732.65 229.87 734.03 231.15C735.26 232.31 737.86 233.75 741.77 235.42C746.17 237.26 749.35 239.16 751.28 241.1C753.8 243.58 755.05 246.73 755.05 250.56" fill="#383636"/><path d="M774.73 194.36C774.73 195.87 774.2 197.15 773.15 198.19C772.08 199.21 770.8 199.73 769.29 199.73C767.78 199.73 766.54 199.24 765.5 198.23C764.43 197.21 763.92 195.93 763.92 194.35C763.92 192.77 764.44 191.58 765.5 190.55C766.55 189.55 767.82 189.04 769.29 189.04C770.76 189.04 772.08 189.55 773.15 190.55C774.2 191.58 774.73 192.84 774.73 194.35M773.32 264.32H765.05V212.83H773.32V264.32Z" fill="#383636"/><path d="M830.7 264.32H822.46V234.95C822.46 224.06 818.47 218.6 810.48 218.6C806.35 218.6 802.95 220.14 800.25 223.23C797.55 226.31 796.21 230.21 796.21 234.95V264.32H787.97V212.81H796.21V221.36H796.41C800.26 214.83 805.9 211.55 813.3 211.55C818.97 211.55 823.29 213.39 826.26 217.09C829.23 220.79 830.71 226.02 830.71 232.78V264.31L830.7 264.32Z" fill="#383636"/><path d="M887.74 260.2C887.74 279.08 878.7 288.52 860.58 288.52C854.22 288.52 848.66 287.33 843.88 284.97V276.71C849.68 279.94 855.2 281.55 860.43 281.55C873.14 281.55 879.49 274.82 879.49 261.37V255.68H879.3C875.38 262.29 869.47 265.59 861.6 265.59C855.26 265.59 850.15 263.34 846.25 258.81C842.26 254.21 840.27 248.03 840.27 240.25C840.27 231.56 842.35 224.67 846.5 219.53C850.73 214.23 856.51 211.58 863.85 211.58C870.79 211.58 875.95 214.37 879.3 219.93H879.49V212.84H887.74V260.22V260.2ZM879.49 241.03V233.44C879.49 229.42 878.15 225.97 875.47 223.09C872.67 220.1 869.19 218.6 865.01 218.6C859.94 218.6 855.99 220.39 853.13 223.99C850.18 227.68 848.71 232.92 848.71 239.74C848.71 245.43 850.1 249.99 852.86 253.42C855.63 256.83 859.29 258.55 863.85 258.55C868.41 258.55 872.25 256.91 875.14 253.64C878.04 250.37 879.49 246.17 879.49 241.03Z" fill="#383636"/></svg>