<svg width="165" height="142" viewBox="0 0 165 142" fill="none" xmlns="http://www.w3.org/2000/svg">
<path fill-rule="evenodd" clip-rule="evenodd" d="M20 0C8.9543 0 0 8.95431 0 20V96.3101C0 107.356 8.9543 116.31 20 116.31H23.7476V141.887L49.3248 116.31H144.887C155.932 116.31 164.887 107.356 164.887 96.3101V20C164.887 8.9543 155.932 0 144.887 0H20ZM103.031 58.1873V87.9939H122.168V58.1873H131.652V44.2155H121.575V44.1308C121.575 42.2679 121.999 40.9131 122.846 40.0663C123.692 39.2195 124.793 38.7961 126.148 38.7961C126.938 38.7961 127.7 38.909 128.434 39.1348C129.168 39.3606 129.846 39.6147 130.467 39.8969L135.039 26.6025C133.628 25.8122 131.878 25.2477 129.789 24.909C127.757 24.5138 125.725 24.3162 123.692 24.3162C117.088 24.3162 111.979 26.0945 108.366 29.6509C104.809 33.2074 103.031 37.9776 103.031 43.9615V44.2155H96.6802V58.1873H103.031ZM29 28.7195V87.9939H48.4759V61.0407L71.0002 87.9939H87.4276V28.7195H67.9518V55.6727L45.4275 28.7195H29Z" fill="#0044CC"/>
</svg>
