<svg width="1188" height="1188" viewBox="0 0 1188 1188" fill="none" xmlns="http://www.w3.org/2000/svg">
<rect width="1188" height="1188" rx="40" fill="#080A0A"/>
<g clip-path="url(#clip0_948_8665)">
<path d="M359.73 342.971C357.826 342.165 358.296 339.34 360.359 339.225C410.506 336.285 461.008 340.04 490.903 346.61C543.982 358.29 591.773 379.197 624.706 430.274C638.848 452.209 649.129 476.393 652.379 501.24C652.591 502.843 651.36 504.269 649.749 504.269H470.368C468.96 504.269 467.818 503.18 467.72 501.781C463.904 443.681 432.733 373.751 359.73 342.971Z" fill="white"/>
<path d="M828.742 843.912C830.646 844.717 830.177 847.542 828.114 847.657C777.966 850.597 727.465 846.843 697.57 840.272C644.491 828.592 596.7 807.685 563.767 756.608C549.625 734.673 539.344 710.49 536.094 685.642C535.882 684.039 537.113 682.613 538.724 682.613H718.114C719.522 682.613 720.664 683.702 720.762 685.102C724.578 743.201 755.749 813.131 828.742 843.912Z" fill="white"/>
<path d="M456.033 521.362C457.166 519.768 455.528 517.687 453.722 518.422C410.526 536.132 222.493 626.093 260.943 748.313C294.752 854.762 474.407 850.299 515.85 847.802C517.913 847.678 518.374 844.862 516.47 844.065C442.316 812.868 411.278 741.317 408.232 683.085C406.027 640.908 416.91 576.379 456.033 521.362V521.362Z" fill="white"/>
<path d="M732.848 665.546C731.714 667.14 733.353 669.221 735.159 668.486C778.355 650.784 966.396 560.815 927.947 438.595C894.137 332.146 714.473 336.609 673.031 339.097C670.976 339.221 670.507 342.028 672.411 342.834C746.573 374.031 777.611 445.581 780.657 503.822C782.862 546 771.979 610.528 732.857 665.546H732.848Z" fill="white"/>
</g>
<defs>
<clipPath id="clip0_948_8665">
<rect width="677.311" height="510.478" fill="white" transform="translate(255.789 338.211)"/>
</clipPath>
</defs>
</svg>
