<?xml version="1.0" encoding="UTF-8"?><svg xmlns="http://www.w3.org/2000/svg" id="Layer_2" data-name="Layer 2" viewBox="0 0 38.92 44.93"><defs><style> .cls-1 { fill: #007bff; } .cls-2 { fill: #004a82; } .cls-3 { fill: #002942; } .cls-4 { fill: #c078ff; } .cls-5 { fill: #881ce8; } .cls-6 { fill: #006cce; } </style></defs><g id="Layer_1-2" data-name="Layer 1"><g><polygon class="cls-2" points="9.73 39.31 19.46 33.7 9.73 28.08 0 33.7 9.73 39.31"/><polygon class="cls-3" points="19.46 44.93 29.19 39.31 19.46 33.7 9.73 39.31 19.46 44.93"/><polygon class="cls-3" points="38.92 22.47 38.92 11.23 29.19 5.62 29.19 16.85 38.92 22.47"/><polygon class="cls-2" points="29.19 16.85 29.19 5.62 19.46 0 19.46 11.23 29.19 16.85"/><polygon class="cls-1" points="0 22.47 0 11.23 9.73 5.62 9.73 16.85 0 22.47"/><polygon class="cls-6" points="9.73 16.85 9.73 5.62 19.46 0 19.46 11.23 9.73 16.85"/><polygon class="cls-6" points="0 33.7 0 22.47 9.73 16.85 9.73 28.08 0 33.7"/><polygon class="cls-5" points="19.46 44.93 19.46 33.7 29.19 28.08 29.19 39.31 19.46 44.93"/><polygon class="cls-4" points="19.46 33.7 19.46 22.47 29.19 16.85 29.19 28.08 19.46 33.7"/><polygon class="cls-5" points="29.19 28.08 29.19 16.85 38.92 11.23 38.92 22.47 29.19 28.08"/></g></g></svg>