<svg width="200" height="58" viewBox="0 0 200 58" fill="none" xmlns="http://www.w3.org/2000/svg">
<rect x="1" y="1" width="198" height="56" rx="18" stroke="#1E40AF" stroke-width="2"/>
<path d="M32 41.4583C30.1548 41.4583 28.4135 41.1046 26.776 40.3972C25.1386 39.6899 23.7106 38.7268 22.492 37.508C21.2732 36.2894 20.3101 34.8614 19.6028 33.224C18.8954 31.5865 18.5417 29.8452 18.5417 28C18.5417 26.1402 18.8954 24.3952 19.6028 22.7651C20.3101 21.1349 21.2732 19.7106 22.492 18.492C23.7106 17.2732 25.1386 16.3101 26.776 15.6027C28.4135 14.8954 30.1548 14.5417 32 14.5417C33.8598 14.5417 35.6048 14.8954 37.2349 15.6027C38.865 16.3101 40.2894 17.2732 41.508 18.492C42.7268 19.7106 43.6899 21.1349 44.3973 22.7651C45.1046 24.3952 45.4583 26.1402 45.4583 28C45.4583 29.8452 45.1046 31.5865 44.3973 33.224C43.6899 34.8614 42.7268 36.2894 41.508 37.508C40.2894 38.7268 38.865 39.6899 37.2349 40.3972C35.6048 41.1046 33.8598 41.4583 32 41.4583ZM32 39.3032C32.723 38.3444 33.3314 37.3773 33.8254 36.4019C34.3193 35.4265 34.7217 34.3604 35.0324 33.2034H28.9676C29.2965 34.3967 29.7035 35.4811 30.1884 36.4564C30.6732 37.4318 31.277 38.3807 32 39.3032ZM29.2566 38.9136C28.7136 38.1345 28.2259 37.2487 27.7936 36.2563C27.3612 35.2637 27.0253 34.2461 26.7856 33.2034H21.9799C22.7282 34.6746 23.7316 35.9107 24.9903 36.9115C26.249 37.9122 27.6711 38.5795 29.2566 38.9136ZM34.7434 38.9136C36.3289 38.5795 37.751 37.9122 39.0097 36.9115C40.2684 35.9107 41.2718 34.6746 42.0201 33.2034H37.2144C36.9292 34.2551 36.5704 35.2772 36.1381 36.2698C35.706 37.2624 35.2411 38.1437 34.7434 38.9136ZM21.0888 31.0784H26.3553C26.2663 30.5519 26.2017 30.0356 26.1616 29.5296C26.1217 29.0239 26.1017 28.514 26.1017 28C26.1017 27.486 26.1217 26.9761 26.1616 26.4704C26.2017 25.9644 26.2663 25.4481 26.3553 24.9216H21.0888C20.9526 25.4028 20.8482 25.9031 20.7758 26.4225C20.703 26.942 20.6667 27.4678 20.6667 28C20.6667 28.5322 20.703 29.058 20.7758 29.5775C20.8482 30.0969 20.9526 30.5972 21.0888 31.0784ZM28.4799 31.0784H35.5201C35.6088 30.5519 35.6733 30.0402 35.7134 29.5435C35.7533 29.0467 35.7733 28.5322 35.7733 28C35.7733 27.4678 35.7533 26.9533 35.7134 26.4565C35.6733 25.9598 35.6088 25.4481 35.5201 24.9216H28.4799C28.3912 25.4481 28.3267 25.9598 28.2866 26.4565C28.2467 26.9533 28.2267 27.4678 28.2267 28C28.2267 28.5322 28.2467 29.0467 28.2866 29.5435C28.3267 30.0402 28.3912 30.5519 28.4799 31.0784ZM37.6447 31.0784H42.9112C43.0474 30.5972 43.1518 30.0969 43.2243 29.5775C43.297 29.058 43.3333 28.5322 43.3333 28C43.3333 27.4678 43.297 26.942 43.2243 26.4225C43.1518 25.9031 43.0474 25.4028 42.9112 24.9216H37.6447C37.7337 25.4481 37.7983 25.9644 37.8384 26.4704C37.8783 26.9761 37.8983 27.486 37.8983 28C37.8983 28.514 37.8783 29.0239 37.8384 29.5296C37.7983 30.0356 37.7337 30.5519 37.6447 31.0784ZM37.2144 22.7966H42.0201C41.2629 21.3072 40.2663 20.0712 39.0302 19.0885C37.7942 18.106 36.3652 17.434 34.7434 17.0725C35.2864 17.897 35.7695 18.7989 36.1926 19.778C36.616 20.7569 36.9566 21.7631 37.2144 22.7966ZM28.9676 22.7966H35.0324C34.7035 21.6122 34.2898 20.5211 33.7914 19.523C33.2927 18.525 32.6956 17.5829 32 16.6968C31.3044 17.5829 30.7073 18.525 30.2086 19.523C29.7102 20.5211 29.2965 21.6122 28.9676 22.7966ZM21.9799 22.7966H26.7856C27.0434 21.7631 27.384 20.7569 27.8074 19.778C28.2305 18.7989 28.7136 17.897 29.2566 17.0725C27.6256 17.434 26.1944 18.1084 24.9631 19.0955C23.7315 20.0825 22.7371 21.3162 21.9799 22.7966Z" fill="#1E40AF"/>
<path d="M89.064 18.6L81.576 41H78.952L73.288 23.592L67.624 41H65L57.48 18.6H60.744L66.376 36.008L72.04 18.6H74.664L80.264 36.04L85.8 18.6H89.064ZM94.3273 41.32C92.8339 41.32 91.4793 40.968 90.2633 40.264C89.0473 39.5387 88.0872 38.5467 87.3832 37.288C86.6793 36.0293 86.3273 34.6427 86.3273 33.128C86.3273 31.656 86.6793 30.312 87.3832 29.096C88.0872 27.8587 89.0473 26.888 90.2633 26.184C91.4793 25.4587 92.8233 25.096 94.2952 25.096C95.6819 25.096 96.9406 25.4267 98.0713 26.088C99.2233 26.7493 100.13 27.656 100.791 28.808C101.474 29.96 101.815 31.2507 101.815 32.68L101.783 33.832H89.1432C89.2712 35.304 89.8046 36.4987 90.7433 37.416C91.6819 38.312 92.8873 38.76 94.3593 38.76C95.4686 38.76 96.4286 38.504 97.2393 37.992C98.0499 37.48 98.5513 36.808 98.7433 35.976H101.655C101.378 37.5973 100.557 38.8987 99.1913 39.88C97.8473 40.84 96.2259 41.32 94.3273 41.32ZM98.6793 31.56C98.5726 30.4293 98.1033 29.4907 97.2713 28.744C96.4393 27.9973 95.4153 27.624 94.1993 27.624C92.9406 27.624 91.8739 27.976 90.9993 28.68C90.1246 29.3627 89.5486 30.3227 89.2713 31.56H98.6793ZM111.34 38.504C112.321 38.504 113.217 38.2693 114.028 37.8C114.838 37.3307 115.478 36.6907 115.948 35.88C116.417 35.0693 116.652 34.1733 116.652 33.192C116.652 32.2107 116.417 31.3147 115.948 30.504C115.478 29.6933 114.838 29.0533 114.028 28.584C113.217 28.1147 112.321 27.88 111.34 27.88C109.91 27.88 108.705 28.3173 107.724 29.192C106.742 30.0667 106.177 31.1973 106.028 32.584V33.8C106.177 35.1867 106.742 36.3173 107.724 37.192C108.705 38.0667 109.91 38.504 111.34 38.504ZM103.052 18.6H106.028V28.52C106.604 27.4107 107.393 26.5573 108.396 25.96C109.42 25.3627 110.604 25.064 111.948 25.064C113.334 25.064 114.604 25.4267 115.756 26.152C116.929 26.8773 117.846 27.8693 118.508 29.128C119.19 30.3653 119.532 31.72 119.532 33.192C119.532 34.664 119.19 36.0293 118.508 37.288C117.846 38.5253 116.929 39.5067 115.756 40.232C114.604 40.9573 113.334 41.32 111.948 41.32C110.604 41.32 109.42 41.0213 108.396 40.424C107.393 39.8267 106.604 38.9733 106.028 37.864V41H103.052V18.6ZM133.601 25.064C135.094 25.064 136.449 25.4267 137.665 26.152C138.902 26.856 139.873 27.8373 140.577 29.096C141.302 30.3333 141.665 31.7093 141.665 33.224C141.665 34.7173 141.302 36.0827 140.577 37.32C139.873 38.5573 138.902 39.5387 137.665 40.264C136.449 40.968 135.094 41.32 133.601 41.32C132.107 41.32 130.742 40.968 129.505 40.264C128.267 39.5387 127.286 38.5573 126.561 37.32C125.857 36.0827 125.505 34.7173 125.505 33.224C125.505 31.7093 125.857 30.3333 126.561 29.096C127.286 27.8373 128.257 26.856 129.473 26.152C130.71 25.4267 132.086 25.064 133.601 25.064ZM128.353 33.224C128.353 34.2053 128.587 35.1013 129.057 35.912C129.526 36.7013 130.155 37.3307 130.945 37.8C131.755 38.2693 132.641 38.504 133.601 38.504C134.539 38.504 135.414 38.2693 136.225 37.8C137.035 37.3307 137.675 36.7013 138.145 35.912C138.614 35.1013 138.849 34.2053 138.849 33.224C138.849 32.2427 138.614 31.3467 138.145 30.536C137.675 29.704 137.035 29.0533 136.225 28.584C135.414 28.1147 134.539 27.88 133.601 27.88C132.641 27.88 131.755 28.1147 130.945 28.584C130.155 29.0533 129.526 29.704 129.057 30.536C128.587 31.3467 128.353 32.2427 128.353 33.224ZM145.955 28.2C146.445 27.1973 147.128 26.4293 148.003 25.896C148.877 25.3413 149.88 25.064 151.011 25.064C153.016 25.064 154.605 25.6933 155.779 26.952C156.952 28.2107 157.539 29.9173 157.539 32.072V41H154.563V32.392C154.563 31.0267 154.179 29.9387 153.411 29.128C152.643 28.296 151.619 27.88 150.339 27.88C149.037 27.88 147.981 28.296 147.171 29.128C146.381 29.9387 145.987 31.0267 145.987 32.392H145.955V41H143.011V25.384H145.955V28.2ZM162.692 41H159.716V18.6H162.692V41ZM169.594 40.456L163.29 25.384H166.458L171.098 37.032L175.77 25.384H178.938L170.01 46.696H166.842L169.594 40.456Z" fill="#1E40AF"/>
</svg>
