<svg width="40" height="40" viewBox="0 0 40 40" fill="none" xmlns="http://www.w3.org/2000/svg">
<g clip-path="url(#clip0_1_12)">
<path d="M19.65 20.899C18.652 19.29 17.928 17.956 16.925 15.444C15.229 11.201 27.24 7.367 22.37 0C24.481 5.089 14.793 8.235 13.893 12.473C13.07 16.371 19.645 20.899 19.65 20.899Z" fill="#F44336"/>
<path d="M19.878 13.271C19.686 15.787 22.107 17.128 22.177 18.966C22.233 20.462 20.73 21.709 20.73 21.709C20.73 21.709 23.458 21.173 24.309 18.891C25.254 16.357 22.475 14.622 22.761 12.593C23.028 10.655 28.792 7.05 28.792 7.05C28.792 7.05 20.311 7.612 19.878 13.271Z" fill="#F44336"/>
<path d="M28.084 21.056C29.838 20.662 31.317 21.779 31.317 23.066C31.317 25.967 27.296 28.709 27.296 28.709C27.296 28.709 33.521 27.967 33.521 23.204C33.521 20.054 30.464 19.267 28.084 21.056ZM25.129 23.396C25.129 23.396 27.07 22.013 27.587 21.494C22.824 22.505 11.949 22.641 11.949 21.763C11.949 20.954 15.456 20.125 15.456 20.125C15.456 20.125 7.683 20.013 7.683 22.306C7.683 24.696 17.858 24.867 25.129 23.396Z" fill="#1565C0"/>
<path d="M23.935 25.572C19.426 27.071 11.121 26.592 13.581 24.579C12.383 24.579 10.607 25.542 10.607 26.468C10.607 28.325 19.589 29.759 26.237 27.04L23.935 25.572Z" fill="#1565C0"/>
<path d="M14.686 28.74C13.05 28.74 11.991 29.794 11.991 30.562C11.991 32.953 21.751 33.194 25.618 30.767L23.16 29.135C20.271 30.405 13.014 30.58 14.686 28.74Z" fill="#1565C0"/>
<path d="M32.281 32.633C32.281 31.697 31.226 31.256 30.848 31.045C33.076 36.418 8.531 36.001 8.531 32.829C8.531 32.108 10.338 31.402 12.008 31.736L10.588 30.897C7.26 30.375 5 31.838 5 33.018C5 38.521 32.281 38.256 32.281 32.633Z" fill="#1565C0"/>
<path d="M35 34.605C30.854 38.7 20.341 40.192 9.769 37.662C20.341 42.165 34.95 39.629 35 34.605Z" fill="#1565C0"/>
</g>
<defs>
<clipPath id="clip0_1_12">
<rect width="40" height="40" fill="white"/>
</clipPath>
</defs>
</svg>
