<svg xmlns="http://www.w3.org/2000/svg" width="20" height="20" viewBox="0 0 20 20" fill="none"><g clip-path="url(#clip0_1971_19130)"><path d="M5.83301 9.16634H0.833008V10.833H5.83301V9.16634ZM7.64134 6.46634L5.87467 4.69967L4.69967 5.87467L6.46634 7.64134L7.64134 6.46634ZM10.833 0.833008H9.16634V5.83301H10.833V0.833008ZM15.2997 5.87467L14.1247 4.69967L12.358 6.46634L13.533 7.64134L15.2997 5.87467ZM14.1663 9.16634V10.833H19.1663V9.16634H14.1663ZM9.99967 7.49967C8.61634 7.49967 7.49967 8.61634 7.49967 9.99967C7.49967 11.383 8.61634 12.4997 9.99967 12.4997C11.383 12.4997 12.4997 11.383 12.4997 9.99967C12.4997 8.61634 11.383 7.49967 9.99967 7.49967ZM12.358 13.533L14.1247 15.2997L15.2997 14.1247L13.533 12.358L12.358 13.533ZM4.69967 14.1247L5.87467 15.2997L7.64134 13.533L6.46634 12.358L4.69967 14.1247ZM9.16634 19.1663H10.833V14.1663H9.16634V19.1663Z" fill="#1E61F0"/></g><defs><clipPath id="clip0_1971_19130"><rect width="20" height="20" fill="white"/></clipPath></defs></svg>