<svg xmlns="http://www.w3.org/2000/svg" width="20" height="20" viewBox="0 0 20 20" fill="none"><path d="M10.8327 1.70801V4.23301C13.6577 4.64134 15.8327 7.05801 15.8327 9.99963C15.8327 10.7496 15.6827 11.458 15.4327 12.1163L17.5993 13.3913C18.066 12.358 18.3327 11.208 18.3327 9.99963C18.3327 5.68301 15.041 2.12467 10.8327 1.70801ZM9.99935 15.833C6.77435 15.833 4.16602 13.2246 4.16602 9.99963C4.16602 7.05801 6.34102 4.64134 9.16602 4.23301V1.70801C4.94935 2.12467 1.66602 5.67467 1.66602 9.99963C1.66602 14.5996 5.39102 18.333 9.99102 18.333C12.7493 18.333 15.191 16.9913 16.7077 14.9246L14.541 13.6496C13.4743 14.983 11.841 15.833 9.99935 15.833Z" fill="#1E61F0"/></svg>