<svg xmlns="http://www.w3.org/2000/svg" width="20" height="20" viewBox="0 0 20 20" fill="none"><path fill-rule="evenodd" clip-rule="evenodd" d="M2.5 12.5H4.16667V15.8333H7.5V17.5H4.16667C3.25 17.5 2.5 16.75 2.5 15.8333V12.5ZM7.5 4.16667H4.16667V7.5H2.5V4.16667C2.5 3.25 3.25 2.5 4.16667 2.5H7.5V4.16667ZM12.5 2.5H15.8333C16.75 2.5 17.5 3.25 17.5 4.16667V7.5H15.8333V4.16667H12.5V2.5ZM12.5 15.8333H15.8333V12.5H17.5V15.8333C17.5 16.75 16.75 17.5 15.8333 17.5H12.5V15.8333ZM12.9167 7.08333C13.375 7.08333 13.75 6.70833 13.75 6.25C13.75 5.79167 13.375 5.41667 12.9167 5.41667C12.4583 5.41667 12.0833 5.79167 12.0833 6.25C12.0833 6.70833 12.4583 7.08333 12.9167 7.08333ZM7.08333 9.16667C7.775 9.16667 8.33333 8.60833 8.33333 7.91667C8.33333 7.225 7.775 6.66667 7.08333 6.66667C6.39167 6.66667 5.83333 7.225 5.83333 7.91667C5.83333 8.60833 6.39167 9.16667 7.08333 9.16667ZM6.25 12.9167C6.70833 12.9167 7.08333 12.5417 7.08333 12.0833C7.08333 11.625 6.70833 11.25 6.25 11.25C5.79167 11.25 5.41667 11.625 5.41667 12.0833C5.41667 12.5417 5.79167 12.9167 6.25 12.9167ZM14.5833 13.75C14.5833 14.2083 14.2083 14.5833 13.75 14.5833C13.2917 14.5833 12.9167 14.2083 12.9167 13.75C12.9167 13.2917 13.2917 12.9167 13.75 12.9167C14.2083 12.9167 14.5833 13.2917 14.5833 13.75ZM14.5833 11.25C15.0417 11.25 15.4167 10.875 15.4167 10.4167C15.4167 9.95833 15.0417 9.58333 14.5833 9.58333C14.125 9.58333 13.75 9.95833 13.75 10.4167C13.75 10.875 14.125 11.25 14.5833 11.25ZM12.5 10.4167C12.5 11.1083 11.9417 11.6667 11.25 11.6667C10.5583 11.6667 10 11.1083 10 10.4167C10 9.725 10.5583 9.16667 11.25 9.16667C11.9417 9.16667 12.5 9.725 12.5 10.4167Z" fill="#1E61F0"/></svg>