<svg xmlns="http://www.w3.org/2000/svg" width="20" height="20" viewBox="0 0 20 20" fill="none"><path d="M17.5006 6.66699C16.2923 6.66699 15.6173 7.86699 15.8923 8.75866L12.934 11.7253C12.684 11.6503 12.3173 11.6503 12.0673 11.7253L9.94232 9.60033C10.2257 8.70866 9.55065 7.50033 8.33398 7.50033C7.12565 7.50033 6.44232 8.70033 6.72565 9.60033L2.92565 13.392C2.03398 13.117 0.833984 13.792 0.833984 15.0003C0.833984 15.917 1.58398 16.667 2.50065 16.667C3.70898 16.667 4.38398 15.467 4.10898 14.5753L7.90065 10.7753C8.15065 10.8503 8.51732 10.8503 8.76732 10.7753L10.8923 12.9003C10.609 13.792 11.284 15.0003 12.5007 15.0003C13.709 15.0003 14.3923 13.8003 14.109 12.9003L17.0756 9.94199C17.9673 10.217 19.1673 9.54199 19.1673 8.33366C19.1673 7.41699 18.4173 6.66699 17.5006 6.66699Z" fill="#1E61F0"/></svg>