<svg xmlns="http://www.w3.org/2000/svg" width="20" height="20" viewBox="0 0 20 20" fill="none"><path fill-rule="evenodd" clip-rule="evenodd" d="M2.91567 15.8333H10.4153C11.1755 16.8453 12.3858 17.5 13.749 17.5C16.0502 17.5 17.9157 15.6345 17.9157 13.3333C17.9157 11.0322 16.0502 9.16667 13.749 9.16667C13.4823 9.16667 13.2214 9.19175 12.9687 9.23958L12.0823 8.05833V4.58333L13.2073 3.175C13.424 2.9 13.2323 2.5 12.8823 2.5H6.28234C5.93234 2.5 5.74067 2.9 5.95734 3.175L7.08234 4.58333V8.05833L2.24901 14.5C1.84067 15.05 2.23234 15.8333 2.91567 15.8333ZM11.3852 9.90167L10.4157 8.60833V4.16667H8.74901V8.60833L4.58234 14.1667H9.66567C9.61101 13.8974 9.58234 13.6187 9.58234 13.3333C9.58234 11.9099 10.2961 10.6532 11.3852 9.90167ZM11.9339 15.1177L12.7454 15.7142L13.7383 14.1383L14.742 15.7142L15.5534 15.1177L14.4217 13.6317L16.13 13.1138L15.8097 12.1344L14.1761 12.8098L14.2508 10.9524H13.2365L13.3113 12.8098L11.6777 12.1344L11.3681 13.1138L13.0657 13.6317L11.9339 15.1177Z" fill="#1E61F0"/></svg>