<svg xmlns="http://www.w3.org/2000/svg" width="20" height="20" viewBox="0 0 20 20" fill="none"><path d="M9.99935 1.66699C5.39935 1.66699 1.66602 5.40033 1.66602 10.0003C1.66602 14.6003 5.39935 18.3337 9.99935 18.3337C14.5993 18.3337 18.3327 14.6003 18.3327 10.0003C18.3327 5.40033 14.5993 1.66699 9.99935 1.66699ZM9.99935 16.667C6.32435 16.667 3.33268 13.6753 3.33268 10.0003C3.33268 6.32533 6.32435 3.33366 9.99935 3.33366C13.6743 3.33366 16.666 6.32533 16.666 10.0003C16.666 13.6753 13.6743 16.667 9.99935 16.667ZM10.2577 9.28366C8.78268 8.90866 8.30768 8.50033 8.30768 7.89199C8.30768 7.19199 8.96602 6.70033 10.0577 6.70033C11.2077 6.70033 11.641 7.25033 11.6743 8.06699H13.0993C13.0577 6.95033 12.3743 5.92533 11.0243 5.59199V4.16699H9.08268V5.57533C7.82435 5.84199 6.81602 6.65866 6.81602 7.91699C6.81602 9.40866 8.05768 10.1587 9.86602 10.592C11.491 10.9753 11.816 11.5503 11.816 12.1503C11.816 12.592 11.491 13.3087 10.066 13.3087C8.73268 13.3087 8.20768 12.7087 8.13268 11.942H6.69935C6.78268 13.3587 7.83268 14.1587 9.08268 14.417V15.8337H11.0327V14.442C12.2993 14.2003 13.2993 13.4753 13.3077 12.1337C13.2993 10.3003 11.7243 9.66699 10.2577 9.28366Z" fill="#1E61F0"/></svg>