<svg width="20" height="21" viewBox="0 0 20 21" fill="none" xmlns="http://www.w3.org/2000/svg">
<g id="Icon Blog">
<path id="Vector" d="M16.875 4.04193H3.125C2.39584 4.04193 1.80417 4.6336 1.80417 5.36276V16.6128C1.80417 17.3419 2.39584 17.9336 3.125 17.9336H16.875C17.6042 17.9336 18.1958 17.3419 18.1958 16.6128V5.36276C18.1958 4.6336 17.6042 4.04193 16.875 4.04193ZM16.8042 16.5419H3.2V5.43776H16.8042V16.5419ZM5.55417 8.48776C5.55417 8.10443 5.86667 7.79193 6.25 7.79193H13.75C14.1375 7.79193 14.4458 8.10443 14.4458 8.48776C14.4458 8.8711 14.1333 9.1836 13.75 9.1836H6.25C5.8625 9.1836 5.55417 8.8711 5.55417 8.48776ZM5.55417 10.9878C5.55417 10.6044 5.86667 10.2919 6.25 10.2919H13.75C14.1375 10.2919 14.4458 10.6044 14.4458 10.9878C14.4458 11.3711 14.1333 11.6836 13.75 11.6836H6.25C5.8625 11.6836 5.55417 11.3711 5.55417 10.9878ZM5.55417 13.4878C5.55417 13.1044 5.86667 12.7919 6.25 12.7919H13.75C14.1375 12.7919 14.4458 13.1044 14.4458 13.4878C14.4458 13.8711 14.1333 14.1836 13.75 14.1836H6.25C5.8625 14.1836 5.55417 13.8711 5.55417 13.4878Z" fill="#5A5E68"/>
</g>
</svg>
