<svg xmlns="http://www.w3.org/2000/svg" width="21" height="20" viewBox="0 0 21 20" fill="none"><g id="Frame 4825"><path id="path8" d="M11.0327 20C6.57742 19.9883 2.69803 17.1751 1.42954 12.9766C0.37117 9.45907 1.056 6.24504 3.43733 3.43569C4.90037 1.70805 6.78365 0.649677 9.00155 0.198312C10.2428 -0.0546084 11.5191 -0.0662816 12.7642 0.167183C12.9043 0.194421 12.9043 0.22944 12.8498 0.342281C12.2389 1.61466 11.628 2.89094 11.0249 4.16721C10.9938 4.24892 10.9121 4.29951 10.8226 4.29172C8.19999 4.35787 5.95874 6.20224 5.39064 8.76257C4.77975 11.4824 6.25057 14.2957 8.8498 15.2957C10.9121 16.0856 12.8265 15.7704 14.5736 14.4202C14.6631 14.354 14.6981 14.3385 14.7642 14.4513C15.4335 15.6225 16.1066 16.7899 16.7876 17.9572C16.8459 18.0584 16.8265 18.105 16.737 18.1673C15.4218 19.0973 13.9043 19.6926 12.309 19.9066C11.8809 19.9572 11.4568 19.9883 11.0327 20Z" fill="white"/><path id="path10" d="M17.9512 17.105C17.8967 17.0739 17.8812 17.0155 17.8539 16.9649C17.0913 15.6497 16.3364 14.3345 15.5815 13.0155C15.5271 12.9065 15.4103 12.8404 15.2897 12.852C13.78 12.8559 12.2702 12.852 10.7605 12.852H10.5737C10.5737 12.7937 10.5932 12.7392 10.6321 12.6964C11.3986 11.3657 12.1652 10.031 12.9356 8.70027C12.9784 8.61078 13.0718 8.5563 13.173 8.56797C14.7177 8.57186 16.2664 8.57186 17.8111 8.56797C17.9084 8.5563 18.0018 8.61078 18.0446 8.70027C18.815 10.0427 19.5893 11.3851 20.3675 12.7275C20.422 12.7976 20.422 12.8949 20.3753 12.9688C19.5932 14.319 18.815 15.6653 18.0407 17.0155C18.0096 17.0427 18.0018 17.0894 17.9512 17.105Z" fill="white"/><path id="path12" d="M14.6983 2.95331C14.422 2.67704 14.1613 2.41245 13.8967 2.15175C13.815 2.07004 13.8734 2.01167 13.9084 1.94941C14.2158 1.41634 14.7139 1.01945 15.3014 0.844348C16.0213 0.606992 16.8111 0.684814 17.4726 1.05836C18.675 1.70817 18.5699 3.2179 17.8734 3.90273C17.6088 4.15565 17.3131 4.36966 16.9862 4.54087C16.6516 4.71986 16.317 4.88718 15.9901 5.07784C15.7177 5.23348 15.5076 5.44749 15.4065 5.76267C15.3676 5.88718 15.3909 5.9222 15.5232 5.91831C16.4065 5.91442 17.2936 5.91831 18.1769 5.91442C18.3092 5.91442 18.3598 5.94166 18.3559 6.08563C18.3442 6.39691 18.3481 6.71209 18.3559 7.02338C18.3559 7.12065 18.3287 7.15567 18.2275 7.15567C16.8072 7.15178 15.3831 7.15178 13.9629 7.15567C13.8967 7.15567 13.8345 7.15567 13.8345 7.0584C13.8345 6.07395 14.0174 5.15566 14.7878 4.45527C15.1535 4.12842 15.566 3.85993 16.0096 3.6537C16.2547 3.53308 16.4999 3.42024 16.71 3.24903C16.8967 3.09728 17.0251 2.9144 17.0368 2.66537C17.0563 2.27626 16.7489 1.99222 16.2858 1.96109C15.6205 1.91439 15.1419 2.21401 14.8033 2.77043C14.7722 2.81712 14.7411 2.8716 14.6983 2.95331Z" fill="white"/><path id="path14" d="M18.0869 18.5058V18.1828H17.9702V18.1167H18.2776V18.1828H18.1609V18.5058H18.0869ZM18.3321 18.5058V18.1167H18.4488L18.515 18.3813L18.5811 18.1167H18.6978V18.5058H18.6317V18.2023L18.5539 18.5058H18.4799L18.4021 18.2023V18.5058H18.3321Z" fill="white"/></g></svg>