<svg width="20" height="21" viewBox="0 0 20 21" fill="none" xmlns="http://www.w3.org/2000/svg">
<g id="help">
<mask id="mask0_388_26865" style="mask-type:alpha" maskUnits="userSpaceOnUse" x="0" y="0" width="20" height="21">
<rect id="Bounding box" y="0.987793" width="20" height="20" fill="#D9D9D9"/>
</mask>
<g mask="url(#mask0_388_26865)">
<path id="help_2" d="M10 15.9878C10.2778 15.9878 10.5139 15.8906 10.7083 15.6961C10.9028 15.5017 11 15.2656 11 14.9878C11 14.71 10.9028 14.4739 10.7083 14.2795C10.5139 14.085 10.2778 13.9878 10 13.9878C9.72222 13.9878 9.48611 14.085 9.29167 14.2795C9.09722 14.4739 9 14.71 9 14.9878C9 15.2656 9.09722 15.5017 9.29167 15.6961C9.48611 15.8906 9.72222 15.9878 10 15.9878ZM9.25 12.8003H10.7708C10.7708 12.2864 10.816 11.9218 10.9062 11.7065C10.9965 11.4913 11.2153 11.217 11.5625 10.8836C12.0486 10.4114 12.3854 10.0086 12.5729 9.67529C12.7604 9.34196 12.8542 8.9739 12.8542 8.57113C12.8542 7.80724 12.5938 7.18571 12.0729 6.70654C11.5521 6.22738 10.8889 5.98779 10.0833 5.98779C9.375 5.98779 8.76042 6.17529 8.23958 6.55029C7.71875 6.92529 7.35417 7.43224 7.14583 8.07113L8.5 8.63363C8.625 8.24474 8.82292 7.94265 9.09375 7.72738C9.36458 7.5121 9.68056 7.40446 10.0417 7.40446C10.4306 7.40446 10.75 7.51557 11 7.73779C11.25 7.96002 11.375 8.25168 11.375 8.61279C11.375 8.93224 11.2674 9.21696 11.0521 9.46696C10.8368 9.71696 10.5972 9.96002 10.3333 10.1961C9.84722 10.6406 9.54514 11.0052 9.42708 11.2899C9.30903 11.5746 9.25 12.0781 9.25 12.8003ZM10 18.9878C8.90278 18.9878 7.86806 18.7795 6.89583 18.3628C5.92361 17.9461 5.07292 17.3732 4.34375 16.644C3.61458 15.9149 3.04167 15.0642 2.625 14.092C2.20833 13.1197 2 12.085 2 10.9878C2 9.87668 2.20833 8.83849 2.625 7.87321C3.04167 6.90793 3.61458 6.06071 4.34375 5.33154C5.07292 4.60238 5.92361 4.02946 6.89583 3.61279C7.86806 3.19613 8.90278 2.98779 10 2.98779C11.1111 2.98779 12.1493 3.19613 13.1146 3.61279C14.0799 4.02946 14.9271 4.60238 15.6562 5.33154C16.3854 6.06071 16.9583 6.90793 17.375 7.87321C17.7917 8.83849 18 9.87668 18 10.9878C18 12.085 17.7917 13.1197 17.375 14.092C16.9583 15.0642 16.3854 15.9149 15.6562 16.644C14.9271 17.3732 14.0799 17.9461 13.1146 18.3628C12.1493 18.7795 11.1111 18.9878 10 18.9878ZM10 17.4878C11.8056 17.4878 13.3403 16.8558 14.6042 15.592C15.8681 14.3281 16.5 12.7933 16.5 10.9878C16.5 9.18224 15.8681 7.64752 14.6042 6.38363C13.3403 5.11974 11.8056 4.48779 10 4.48779C8.19444 4.48779 6.65972 5.11974 5.39583 6.38363C4.13194 7.64752 3.5 9.18224 3.5 10.9878C3.5 12.7933 4.13194 14.3281 5.39583 15.592C6.65972 16.8558 8.19444 17.4878 10 17.4878Z" fill="#5A5E68"/>
</g>
</g>
</svg>
