<svg width="20" height="21" viewBox="0 0 20 21" fill="none" xmlns="http://www.w3.org/2000/svg">
<g id="icon-amplitude">
<path id="Vector" fill-rule="evenodd" clip-rule="evenodd" d="M9.1805 7.21649C9.28367 7.3667 9.462 7.70394 9.72592 8.45712C9.90642 8.97243 10.1034 9.61079 10.3118 10.3556C9.52125 10.3442 8.72133 10.3356 7.94682 10.3275L7.55457 10.3232C7.99767 8.69717 8.53825 7.46332 8.93333 7.17198C8.95858 7.15678 8.99775 7.13881 9.04067 7.13881C9.0925 7.13881 9.13933 7.16553 9.1805 7.21649ZM15.3935 11.1677C15.393 11.1681 15.3924 11.1685 15.3918 11.169C15.3837 11.1756 15.3755 11.1819 15.3669 11.1878C15.3642 11.1897 15.3614 11.1917 15.3587 11.1936C15.3529 11.1973 15.347 11.2009 15.341 11.2043C15.3357 11.2075 15.3303 11.2108 15.3247 11.2137C15.3244 11.2139 15.324 11.214 15.3237 11.2142C15.2685 11.2433 15.2057 11.26 15.139 11.26H11.5864C11.6148 11.3784 11.6459 11.5129 11.6796 11.6593C11.8743 12.5048 12.3915 14.751 12.941 14.751L12.9517 14.7512L12.9578 14.7504L12.9683 14.7505C13.3974 14.7504 13.6165 14.1263 14.0966 12.759L14.1024 12.7425C14.1795 12.523 14.2666 12.2752 14.3608 12.013L14.3847 11.9462C14.4092 11.8808 14.4722 11.8344 14.5459 11.8344C14.6408 11.8344 14.7178 11.9118 14.7178 12.0073C14.7178 12.0245 14.7152 12.0413 14.7104 12.057L14.6906 12.1243C14.6404 12.287 14.5872 12.5087 14.5257 12.7653C14.2396 13.9579 13.8072 15.7596 12.6982 15.7596L12.6901 15.7595C11.9735 15.7539 11.5447 14.6017 11.3616 14.1097C11.0191 13.1897 10.76 12.2094 10.5101 11.26H7.23993L6.56109 13.4451L6.55113 13.4372C6.48906 13.5355 6.38018 13.5985 6.26002 13.5985C6.07048 13.5985 5.91552 13.4433 5.91467 13.2527L5.91509 13.2409L5.95619 12.9937C6.04997 12.4322 6.16233 11.8494 6.29045 11.26H4.90945L4.90435 11.2547C4.65368 11.2184 4.46117 10.996 4.46117 10.7368C4.46117 10.4825 4.64008 10.2661 4.88658 10.2221C4.90926 10.2192 4.95487 10.2153 5.04815 10.2153C5.06812 10.2153 5.09045 10.2155 5.11524 10.2159C5.55302 10.2235 6.01729 10.2305 6.52668 10.237C7.24757 7.29145 8.08242 5.79619 9.00842 5.79196C10.0022 5.79196 10.7393 8.06763 11.3294 10.2936L11.3317 10.3025C12.5441 10.3269 13.8364 10.3625 15.0926 10.4529L15.1452 10.4579C15.1654 10.4581 15.1852 10.4602 15.2045 10.4634L15.2118 10.4641C15.2141 10.4645 15.2161 10.4651 15.2182 10.4655C15.2193 10.4657 15.2205 10.466 15.2216 10.4662C15.4044 10.503 15.5401 10.6645 15.5401 10.8581C15.5401 10.9822 15.483 11.094 15.3935 11.1677ZM10 3.48779C5.85787 3.48779 2.5 6.86485 2.5 11.0306C2.5 15.1965 5.85787 18.5735 10 18.5735C14.1421 18.5735 17.5 15.1965 17.5 11.0306C17.5 6.86485 14.1421 3.48779 10 3.48779Z" fill="#5A5E68"/>
</g>
</svg>
