<svg width="24" height="25" viewBox="0 0 24 25" fill="none" xmlns="http://www.w3.org/2000/svg">
<g id="thumb_down">
<mask id="mask0_388_26353" style="mask-type:alpha" maskUnits="userSpaceOnUse" x="0" y="0" width="24" height="25">
<rect id="Bounding box" y="0.987793" width="24" height="24" fill="#D9D9D9"/>
</mask>
<g mask="url(#mask0_388_26353)">
<path id="thumb_down_2" d="M6 3.98779H17V16.9878L10 23.9878L8.75 22.7378C8.63333 22.6211 8.5375 22.4628 8.4625 22.2628C8.3875 22.0628 8.35 21.8711 8.35 21.6878V21.3378L9.45 16.9878H3C2.46667 16.9878 2 16.7878 1.6 16.3878C1.2 15.9878 1 15.5211 1 14.9878V12.9878C1 12.8711 1.01667 12.7461 1.05 12.6128C1.08333 12.4795 1.11667 12.3545 1.15 12.2378L4.15 5.18779C4.3 4.85446 4.55 4.57113 4.9 4.33779C5.25 4.10446 5.61667 3.98779 6 3.98779ZM15 5.98779H6L3 12.9878V14.9878H12L10.65 20.4878L15 16.1378V5.98779ZM17 16.9878V14.9878H20V5.98779H17V3.98779H22V16.9878H17Z" fill="#1C1B1F"/>
</g>
</g>
</svg>
