<svg width="24" height="25" viewBox="0 0 24 25" fill="none" xmlns="http://www.w3.org/2000/svg">
<g id="thumb_up">
<mask id="mask0_388_26348" style="mask-type:alpha" maskUnits="userSpaceOnUse" x="0" y="0" width="24" height="25">
<rect id="Bounding box" y="0.987793" width="24" height="24" fill="#D9D9D9"/>
</mask>
<g mask="url(#mask0_388_26348)">
<path id="thumb_up_2" d="M18 21.9878H7V8.98779L14 1.98779L15.25 3.23779C15.3667 3.35446 15.4625 3.51279 15.5375 3.71279C15.6125 3.91279 15.65 4.10446 15.65 4.28779V4.63779L14.55 8.98779H21C21.5333 8.98779 22 9.18779 22.4 9.58779C22.8 9.98779 23 10.4545 23 10.9878V12.9878C23 13.1045 22.9833 13.2295 22.95 13.3628C22.9167 13.4961 22.8833 13.6211 22.85 13.7378L19.85 20.7878C19.7 21.1211 19.45 21.4045 19.1 21.6378C18.75 21.8711 18.3833 21.9878 18 21.9878ZM9 19.9878H18L21 12.9878V10.9878H12L13.35 5.48779L9 9.83779V19.9878ZM7 8.98779V10.9878H4V19.9878H7V21.9878H2V8.98779H7Z" fill="#1C1B1F"/>
</g>
</g>
</svg>
