<svg xmlns="http://www.w3.org/2000/svg" width="24" height="24" viewBox="0 0 24 24" fill="none"><g id="Frame 4824"><path id="Vector" d="M24 4.29446C23.1166 4.69598 22.1644 4.95985 21.1778 5.08604C22.1874 4.47801 22.9675 3.51434 23.3346 2.35564C22.3824 2.92925 21.327 3.33078 20.2141 3.56023C19.3078 2.57361 18.0344 2 16.5889 2C13.8929 2 11.6902 4.20268 11.6902 6.92161C11.6902 7.31166 11.7361 7.69025 11.8164 8.04589C7.73231 7.83939 4.0956 5.87763 1.67495 2.90631C1.25048 3.62906 1.00956 4.47801 1.00956 5.37285C1.00956 7.08222 1.86998 8.59656 3.20077 9.45698C2.38623 9.45698 1.62906 9.22753 0.963671 8.88337C0.963671 8.88337 0.963671 8.88337 0.963671 8.91778C0.963671 11.304 2.66157 13.3002 4.91013 13.7476C4.49713 13.8623 4.06119 13.9197 3.61377 13.9197C3.30402 13.9197 2.99426 13.8853 2.69599 13.8279C3.31549 15.7667 5.11664 17.2122 7.2849 17.2467C5.60994 18.5774 3.48757 19.3576 1.17017 19.3576C0.780115 19.3576 0.390057 19.3346 0 19.2887C2.17973 20.6883 4.77247 21.5029 7.54876 21.5029C16.5889 21.5029 21.5564 14 21.5564 7.49522C21.5564 7.27725 21.5564 7.07075 21.5449 6.85277C22.5086 6.16444 23.3346 5.29254 24 4.29446Z" fill="white"/></g></svg>