<svg xmlns="http://www.w3.org/2000/svg" width="64" height="64" viewBox="0 0 64 64" fill="none"><path d="M24 0H64V40C64 53.2467 53.2467 64 40 64H0V24C0 10.7533 10.7533 0 24 0Z" fill="#C1E0FE"/><path d="M48.2083 23.6208C48.2083 23.6208 48.2083 23.6208 48.2083 23.6125C48.1833 23.5458 48.1583 23.4792 48.125 23.4125C48.125 23.3958 48.1167 23.3792 48.1083 23.3625C48.1083 23.3542 48.1 23.3458 48.0917 23.3375C47.8583 22.8792 47.4917 22.4875 47.0167 22.2292L33.2583 14.7042C32.4667 14.2708 31.525 14.2708 30.7417 14.7042L16.9917 22.2292C16.5167 22.4875 16.1583 22.8792 15.9167 23.3375C15.9167 23.3375 15.9083 23.3542 15.9 23.3542C15.9 23.3708 15.8917 23.3792 15.8833 23.3958C15.7167 23.7458 15.625 24.1208 15.625 24.5208V39.4708C15.625 40.4292 16.15 41.3125 16.9917 41.7708L30.7417 49.2958C31.0417 49.4625 31.3583 49.5375 31.6833 49.5792C31.7833 49.6042 31.8917 49.6208 32 49.6208C32.1083 49.6208 32.2167 49.6042 32.3167 49.5792C32.6417 49.5375 32.9583 49.4542 33.2583 49.2958L47.0083 41.7708C47.85 41.3125 48.375 40.4292 48.375 39.4708V24.5292C48.375 24.2125 48.3083 23.9125 48.2083 23.6208ZM32 17.1458L44.2917 23.8708L32 30.5958L19.7083 23.8792L32 17.1458ZM18.375 26.2792L30.625 32.9875V46.1042L18.375 39.3958V26.2792ZM33.375 46.1042V32.9875L45.625 26.2792V39.3958L33.375 46.1042Z" fill="#0D1F91"/></svg>