<svg xmlns="http://www.w3.org/2000/svg" width="64" height="64" viewBox="0 0 64 64" fill="none"><path d="M24 0H64V40C64 53.2467 53.2467 64 40 64H0V24C0 10.7533 10.7533 0 24 0Z" fill="#C9C2F5"/><path d="M48.7167 31.1757C47.1584 24.1257 44.7834 20.3507 41.2417 19.3007C40.4917 19.0841 39.7167 18.9591 38.9584 18.9757C37.925 18.9757 37.05 19.2257 36.1084 19.4841C34.9667 19.8007 33.7834 20.1341 31.9917 20.1341C30.2 20.1341 29.0167 19.8007 27.8667 19.4841C26.9417 19.2341 26.0584 18.9841 25.0417 18.9841C24.225 18.9841 23.45 19.0841 22.6583 19.3091C19.1417 20.3507 16.775 24.1174 15.1917 31.1757C13.4833 38.8007 14.3667 43.6341 17.675 44.7757C20.9667 45.9174 23.4667 42.8091 24.4083 41.6424C25.7 40.0341 27.225 39.2091 32 39.2091C36.775 39.2091 38.1834 39.9924 39.5084 41.6424C40.2334 42.5424 42.225 45.0257 44.85 45.0257C45.3 45.0257 45.7667 44.9507 46.2417 44.7924C50.8167 43.2341 49.85 36.2757 48.7167 31.1757ZM45.325 42.1174C44.375 42.4424 43.1584 41.6841 41.7 39.8757C39.35 36.9424 36.475 36.3841 31.9917 36.3841C27.5084 36.3841 24.5334 36.9591 22.2 39.8674C20.2583 42.2841 19.25 42.3341 18.5917 42.1007C17.225 41.6257 16.4917 38.2507 17.9417 31.7841C19.2583 25.9091 21.0583 22.7174 23.4333 22.0091C23.9417 21.8674 24.4583 21.7924 24.9917 21.7924C25.65 21.8091 26.2917 21.9674 27.1083 22.1924C28.3084 22.5257 29.8084 22.9507 31.9917 22.9507C34.175 22.9507 35.6667 22.5341 36.875 22.1924C37.6834 21.9674 38.3167 21.7924 38.9667 21.7924C39.4584 21.7924 39.975 21.8591 40.45 22.0007C42.8584 22.7091 44.6667 25.9091 45.9584 31.7757C47.3 37.8424 47.075 41.5091 45.325 42.1091V42.1174ZM36.05 29.6757C36.05 30.4757 35.4 31.1257 34.6 31.1257C33.8 31.1257 33.15 30.4757 33.15 29.6757C33.15 28.8757 33.8 28.2257 34.6 28.2257C35.4 28.2257 36.05 28.8757 36.05 29.6757ZM39.2417 32.8674C39.2417 33.6674 38.5917 34.3174 37.7917 34.3174C36.9917 34.3174 36.3417 33.6674 36.3417 32.8674C36.3417 32.0674 36.9917 31.4174 37.7917 31.4174C38.5917 31.4174 39.2417 32.0674 39.2417 32.8674ZM39.2417 26.4841C39.2417 27.2841 38.5917 27.9341 37.7917 27.9341C36.9917 27.9341 36.3417 27.2841 36.3417 26.4841C36.3417 25.6841 36.9917 25.0341 37.7917 25.0341C38.5917 25.0341 39.2417 25.6841 39.2417 26.4841ZM42.4334 29.6757C42.4334 30.4757 41.7834 31.1257 40.9834 31.1257C40.1834 31.1257 39.5334 30.4757 39.5334 29.6757C39.5334 28.8757 40.1834 28.2257 40.9834 28.2257C41.7834 28.2257 42.4334 28.8757 42.4334 29.6757ZM29.7834 29.6757C29.7834 30.3841 29.2084 30.9591 28.5 30.9591H26.3V33.1591C26.3 33.8674 25.725 34.4424 25.0167 34.4424C24.3084 34.4424 23.7334 33.8674 23.7334 33.1591V30.9591H21.5333C20.825 30.9591 20.25 30.3841 20.25 29.6757C20.25 28.9674 20.825 28.3924 21.5333 28.3924H23.7334V26.1924C23.7334 25.4841 24.3084 24.9091 25.0167 24.9091C25.725 24.9091 26.3 25.4841 26.3 26.1924V28.3924H28.5C29.2084 28.3924 29.7834 28.9674 29.7834 29.6757Z" fill="#2F1761"/></svg>