<svg xmlns="http://www.w3.org/2000/svg" width="64" height="64" viewBox="0 0 64 64" fill="none"><path opacity="0.1" d="M24 0H64V40C64 53.2467 53.2467 64 40 64H0V24C0 10.7533 10.7533 0 24 0Z" fill="white"/><path d="M39.2499 27.25C39.7999 27.8 39.7999 28.7 39.2499 29.25L30.4999 38C30.2249 38.275 29.8583 38.4167 29.4999 38.4167C29.1416 38.4167 28.7749 38.275 28.4999 38L24.7499 34.25C24.1999 33.7 24.1999 32.8 24.7499 32.25C25.2999 31.7 26.1999 31.7 26.7499 32.25L29.4999 35L37.2499 27.25C37.7999 26.7 38.6999 26.7 39.2499 27.25ZM48.4166 32C48.4166 41.05 41.0499 48.4167 31.9999 48.4167C22.9499 48.4167 15.5833 41.05 15.5833 32C15.5833 22.95 22.9499 15.5833 31.9999 15.5833C41.0499 15.5833 48.4166 22.95 48.4166 32ZM45.5833 32C45.5833 24.5083 39.4916 18.4167 31.9999 18.4167C24.5083 18.4167 18.4166 24.5083 18.4166 32C18.4166 39.4917 24.5083 45.5833 31.9999 45.5833C39.4916 45.5833 45.5833 39.4917 45.5833 32Z" fill="white"/></svg>