<svg xmlns="http://www.w3.org/2000/svg" width="64" height="64" viewBox="0 0 64 64" fill="none"><path opacity="0.1" d="M24 0H64V40C64 53.2467 53.2467 64 40 64H0V24C0 10.7533 10.7533 0 24 0Z" fill="white"/><path d="M45.7501 18.1083H18.2501C16.7917 18.1083 15.6084 19.2916 15.6084 20.7499V43.2499C15.6084 44.7083 16.7917 45.8916 18.2501 45.8916H45.7501C47.2084 45.8916 48.3917 44.7083 48.3917 43.2499V20.7499C48.3917 19.2916 47.2084 18.1083 45.7501 18.1083ZM45.6084 43.1083H18.4001V20.8999H45.6084V43.1083ZM23.1084 26.9999C23.1084 26.2333 23.7334 25.6083 24.5001 25.6083H39.5001C40.2751 25.6083 40.8917 26.2333 40.8917 26.9999C40.8917 27.7666 40.2667 28.3916 39.5001 28.3916H24.5001C23.7251 28.3916 23.1084 27.7666 23.1084 26.9999ZM23.1084 31.9999C23.1084 31.2333 23.7334 30.6083 24.5001 30.6083H39.5001C40.2751 30.6083 40.8917 31.2333 40.8917 31.9999C40.8917 32.7666 40.2667 33.3916 39.5001 33.3916H24.5001C23.7251 33.3916 23.1084 32.7666 23.1084 31.9999ZM23.1084 36.9999C23.1084 36.2333 23.7334 35.6083 24.5001 35.6083H39.5001C40.2751 35.6083 40.8917 36.2333 40.8917 36.9999C40.8917 37.7666 40.2667 38.3916 39.5001 38.3916H24.5001C23.7251 38.3916 23.1084 37.7666 23.1084 36.9999Z" fill="white"/></svg>