<svg xmlns="http://www.w3.org/2000/svg" width="64" height="64" viewBox="0 0 64 64" fill="none"><path opacity="0.1" d="M24 0H64V40C64 53.2467 53.2467 64 40 64H0V24C0 10.7533 10.7533 0 24 0Z" fill="white"/><path d="M38.8748 29.5834H46.3748C47.7998 29.5834 48.9582 28.425 48.9582 27V19.5C48.9582 18.075 47.7998 16.9167 46.3748 16.9167H38.8748C37.4498 16.9167 36.2915 18.075 36.2915 19.5V21.9167H35.1248C32.3248 21.9167 30.0415 24.2 30.0415 27V30.6667H25.2082V29.5C25.2082 28.075 24.0498 26.9167 22.6248 26.9167H17.6248C16.1998 26.9167 15.0415 28.075 15.0415 29.5V34.5C15.0415 35.925 16.1998 37.0834 17.6248 37.0834H22.6248C24.0498 37.0834 25.2082 35.925 25.2082 34.5V33.3334H30.0415V37C30.0415 39.8 32.3248 42.0834 35.1248 42.0834H36.2915V44.5C36.2915 45.925 37.4498 47.0834 38.8748 47.0834H46.3748C47.7998 47.0834 48.9582 45.925 48.9582 44.5V37C48.9582 35.575 47.7998 34.4167 46.3748 34.4167H38.8748C37.4498 34.4167 36.2915 35.575 36.2915 37V39.4167H35.1248C33.7915 39.4167 32.7082 38.3334 32.7082 37V27C32.7082 25.6667 33.7915 24.5834 35.1248 24.5834H36.2915V27C36.2915 28.425 37.4498 29.5834 38.8748 29.5834ZM22.5415 34.4167H17.7082V29.5834H22.5415V34.4167ZM38.9582 37.0834H46.2915V44.4167H38.9582V37.0834ZM38.9582 19.5834H46.2915V26.9167H38.9582V19.5834Z" fill="white"/></svg>