<svg xmlns="http://www.w3.org/2000/svg" width="64" height="64" viewBox="0 0 64 64" fill="none"><path d="M24 0H64V40C64 53.2467 53.2467 64 40 64H0V24C0 10.7533 10.7533 0 24 0Z" fill="#F5D9E1"/><path d="M48.0341 33.6042C47.2174 41.8542 40.3341 48.0792 32.0341 48.0792C26.5841 48.0792 21.6258 45.4042 18.6341 40.8875V43.7958C18.6341 44.5292 18.0341 45.1292 17.3008 45.1292C16.5674 45.1292 15.9591 44.5292 15.9591 43.7958V38.7875C15.9591 38.2042 16.1924 37.6292 16.6091 37.2208C17.0258 36.8042 17.5924 36.5708 18.1758 36.5708H23.1841C23.9174 36.5708 24.5174 37.1708 24.5174 37.9042C24.5174 38.6375 23.9174 39.2375 23.1841 39.2375H20.7424C23.2258 43.1125 27.4174 45.4125 32.0341 45.4125C38.9591 45.4125 44.6924 40.2292 45.3758 33.3458C45.4091 32.9875 45.5841 32.6708 45.8591 32.4458C46.1341 32.2208 46.4841 32.1125 46.8424 32.1542C47.5758 32.2292 48.1091 32.8792 48.0424 33.6125L48.0341 33.6042ZM46.7008 18.8708C45.9674 18.8708 45.3674 19.4708 45.3674 20.2042V23.1125C44.1674 21.3042 42.5841 19.7292 40.7674 18.5458C38.1424 16.8292 35.1008 15.9208 31.9591 15.9208C23.6591 15.9208 16.7841 22.1458 15.9591 30.3958C15.8841 31.1292 16.4258 31.7875 17.1591 31.8542C17.2008 31.8542 17.2508 31.8542 17.2924 31.8542C17.6008 31.8542 17.8924 31.7458 18.1341 31.5542C18.4091 31.3292 18.5841 31.0042 18.6174 30.6542C19.3008 23.7792 25.0341 18.5958 31.9508 18.5958C34.5674 18.5958 37.1091 19.3542 39.2924 20.7875C40.8674 21.8125 42.2258 23.1875 43.2341 24.7708H40.7924C40.0591 24.7708 39.4591 25.3708 39.4591 26.1042C39.4591 26.8375 40.0591 27.4375 40.7924 27.4375H45.8008C46.0924 27.4375 46.3841 27.3792 46.6508 27.2708C46.9174 27.1625 47.1674 26.9958 47.3758 26.7875C47.5841 26.5792 47.7424 26.3375 47.8591 26.0708C47.9674 25.7958 48.0258 25.5125 48.0258 25.2208V20.2125C48.0258 19.4792 47.4258 18.8792 46.6924 18.8792L46.7008 18.8708ZM33.2758 35.1625C32.9174 35.4125 32.3674 35.5458 31.7591 35.5208C30.7924 35.4875 29.8508 35.0708 29.4091 34.4958C28.9674 33.9042 28.1258 33.7875 27.5341 34.2292C26.9424 34.6708 26.8258 35.5125 27.2674 36.1042C27.9674 37.0292 29.0591 37.7125 30.3674 38.0208V39.2292C30.3674 39.9625 30.9674 40.5625 31.7008 40.5625C32.4341 40.5625 33.0341 39.9625 33.0341 39.2292V38.0875C33.7008 37.9542 34.2924 37.7125 34.7924 37.3542C35.8258 36.6292 36.4008 35.4958 36.4008 34.1708C36.4008 33.5292 36.2508 32.9458 35.9508 32.4375C35.6841 31.9958 35.3091 31.6125 34.8174 31.3042C34.0674 30.8292 33.1424 30.5708 32.4091 30.3708L32.3341 30.3458C31.5424 30.1292 30.9591 29.9625 30.5758 29.7208C30.4424 29.6375 30.3591 29.5542 30.3091 29.4708C30.2591 29.3875 30.2341 29.2708 30.2341 29.1125C30.2341 28.5542 30.4174 28.3542 30.5508 28.2458C30.7841 28.0708 31.1924 27.9708 31.6674 27.9875H31.6758C32.5758 28.0125 33.6008 28.4125 34.1258 28.9375C34.6341 29.4458 35.5091 29.4458 36.0174 28.9375C36.2674 28.6875 36.4091 28.3458 36.4091 27.9958C36.4091 27.6458 36.2674 27.3042 36.0174 27.0542C35.2924 26.3292 34.2174 25.7625 33.0424 25.4958V24.6292C33.0424 23.8958 32.4424 23.2958 31.7091 23.2958C30.9758 23.2958 30.3758 23.8958 30.3758 24.6292V25.4625C29.8341 25.5958 29.3508 25.8125 28.9508 26.1208C28.0508 26.8042 27.5758 27.8375 27.5758 29.1208C27.5758 29.7625 27.7258 30.3458 28.0258 30.8542C28.2924 31.2958 28.6674 31.6792 29.1591 31.9875C29.9091 32.4625 30.8258 32.7125 31.5674 32.9208L31.6424 32.9458C32.4591 33.1708 33.0174 33.3292 33.4008 33.5708C33.5341 33.6542 33.6174 33.7375 33.6674 33.8208C33.7174 33.9042 33.7424 34.0208 33.7424 34.1792C33.7424 34.6375 33.6008 34.9458 33.2758 35.1708V35.1625Z" fill="#F54F4F"/></svg>