<svg xmlns="http://www.w3.org/2000/svg" width="64" height="64" viewBox="0 0 64 64" fill="none"><path d="M24 0H64V40C64 53.2467 53.2467 64 40 64H0V24C0 10.7533 10.7533 0 24 0Z" fill="#C1E0FE"/><path d="M46.4373 19.2417C45.8956 18.7 45.2206 18.4333 44.3956 18.4333H36.2706C36.0373 17.4583 35.5206 16.65 34.7206 16.0167C33.9206 15.3833 33.0123 15.0667 31.9873 15.0667C30.9623 15.0667 30.0373 15.3833 29.2373 16.0167C28.4456 16.65 27.9373 17.45 27.7123 18.4333H19.5789C18.7539 18.4333 18.0789 18.7 17.5456 19.2417C17.0123 19.7833 16.7456 20.4583 16.7456 21.2833V46.1C16.7456 46.925 17.0123 47.6 17.5539 48.1333C18.0956 48.6667 18.7706 48.9333 19.5873 48.9333H44.4039C45.2289 48.9333 45.9039 48.6667 46.4456 48.1333C46.9873 47.6 47.2539 46.9167 47.2539 46.1V21.275C47.2539 20.45 46.9873 19.775 46.4456 19.2333L46.4373 19.2417ZM30.7956 18.3167C31.1123 18 31.5123 17.8333 31.9789 17.8333C32.4456 17.8333 32.8456 17.9917 33.1623 18.3167C33.4789 18.6333 33.6456 19.0333 33.6456 19.5C33.6456 19.9667 33.4873 20.3583 33.1623 20.6833C32.8456 21.0083 32.4456 21.1667 31.9789 21.1667C31.5123 21.1667 31.1123 21.0083 30.7956 20.6833C30.4789 20.3583 30.3123 19.9667 30.3123 19.5C30.3123 19.0333 30.4706 18.6333 30.7956 18.3167ZM44.3956 46.1H19.5789V21.275H22.0289V23.725C22.0289 24.125 22.1623 24.4583 22.4373 24.7333C22.7123 25.0083 23.0456 25.1417 23.4456 25.1417H40.5289C40.9289 25.1417 41.2623 25.0083 41.5373 24.7333C41.8123 24.4583 41.9456 24.125 41.9456 23.725V21.275H44.3956V46.0917V46.1ZM39.3623 29.975C39.6123 30.2083 39.7373 30.5083 39.7373 30.8667C39.7373 31.225 39.6039 31.5417 39.3456 31.8L31.6873 39.4583C31.4039 39.75 31.0706 39.8917 30.6873 39.8917C30.3039 39.8917 29.9706 39.75 29.6789 39.4583L25.6373 35.375C25.3789 35.1 25.2539 34.7833 25.2539 34.4167C25.2539 34.05 25.3789 33.7333 25.6373 33.475C25.9039 33.2083 26.2206 33.0833 26.5956 33.0833C26.9706 33.0833 27.2873 33.2083 27.5456 33.4667L30.8039 36.725L37.5123 30.0167C37.7456 29.7833 38.0456 29.6583 38.4289 29.6417C38.8123 29.625 39.1206 29.7417 39.3706 29.975H39.3623Z" fill="#0D1F91"/></svg>