<svg xmlns="http://www.w3.org/2000/svg" width="64" height="64" viewBox="0 0 64 64" fill="none"><path d="M24 0H64V40C64 53.2467 53.2467 64 40 64H0V24C0 10.7533 10.7533 0 24 0Z" fill="#91D9E3"/><path d="M31.9999 15.5834C22.9499 15.5834 15.5833 22.95 15.5833 32C15.5833 41.05 22.9499 48.4167 31.9999 48.4167C41.0499 48.4167 48.4166 41.05 48.4166 32C48.4166 22.95 41.0499 15.5834 31.9999 15.5834ZM31.9999 45.5834C24.5083 45.5834 18.4166 39.4917 18.4166 32C18.4166 24.5084 24.5083 18.4167 31.9999 18.4167C39.4916 18.4167 45.5833 24.5084 45.5833 32C45.5833 39.4917 39.4916 45.5834 31.9999 45.5834ZM33.9999 38.875C33.9999 39.975 33.0999 40.875 31.9999 40.875C30.8999 40.875 29.9999 39.975 29.9999 38.875C29.9999 37.775 30.8999 36.875 31.9999 36.875C33.0999 36.875 33.9999 37.775 33.9999 38.875ZM38.3749 27.625C38.3749 30.3667 36.2333 32.675 33.3749 33.2417C33.3749 34.0084 32.7583 34.625 31.9999 34.625C31.2416 34.625 30.6249 34.0084 30.6249 33.25V32C30.6249 31.2417 31.2416 30.625 31.9999 30.625C33.9999 30.625 35.6249 29.2834 35.6249 27.625C35.6249 25.9667 33.9999 24.625 31.9999 24.625C29.9999 24.625 28.3749 25.9667 28.3749 27.625V28.25C28.3749 29.0084 27.7583 29.625 26.9999 29.625C26.2416 29.625 25.6249 29.0084 25.6249 28.25V27.625C25.6249 24.4584 28.4833 21.875 31.9999 21.875C35.5166 21.875 38.3749 24.4584 38.3749 27.625Z" fill="#0F4F73"/></svg>