<svg xmlns="http://www.w3.org/2000/svg" width="64" height="64" viewBox="0 0 64 64" fill="none"><path opacity="0.1" d="M24 0H64V40C64 53.2467 53.2467 64 40 64H0V24C0 10.7533 10.7533 0 24 0Z" fill="white"/><path d="M38.4334 41.0417C38.6834 41.2917 38.8084 41.6083 38.8084 41.975C38.8084 42.3417 38.6834 42.6583 38.4334 42.9083C38.1834 43.1583 37.875 43.2833 37.5084 43.2833H26.475C26.1 43.2833 25.7917 43.1583 25.5417 42.9083C25.2917 42.6583 25.1667 42.3417 25.1667 41.9667C25.1667 41.5917 25.2917 41.2833 25.5417 41.0333C25.7917 40.7833 26.1 40.6583 26.475 40.6583H37.5084C37.875 40.6583 38.1834 40.7833 38.4334 41.0333V41.0417ZM29.5334 48.45C30.2084 49.1333 31.025 49.475 31.9917 49.475C32.9584 49.475 33.775 49.1333 34.45 48.45C35.125 47.7667 35.4584 46.925 35.4584 45.925H28.525C28.525 46.925 28.8584 47.7667 29.5334 48.45ZM44.75 27.275C44.75 29.575 44.2 31.65 43.1084 33.4833C42.0167 35.3167 40.5084 36.85 38.6 38.0667H25.3834C23.5084 36.8417 22.0167 35.3167 20.9084 33.4833C19.8 31.65 19.2417 29.5833 19.2417 27.275C19.2417 23.825 20.5 20.8333 23.025 18.3083C25.55 15.7833 28.5334 14.525 31.9917 14.525C35.45 14.525 38.4417 15.7833 40.9667 18.3083C43.4917 20.8333 44.7584 23.8167 44.7584 27.275H44.75ZM41.9 27.275C41.9 24.55 40.925 22.2167 38.9834 20.2833C37.0417 18.3417 34.7084 17.375 31.9834 17.375C29.2584 17.375 26.925 18.3417 24.9834 20.2833C23.0417 22.225 22.0667 24.55 22.0667 27.275C22.0667 28.8917 22.45 30.4 23.225 31.8C24 33.2 25.05 34.3417 26.4 35.225H37.5917C38.9167 34.3417 39.9667 33.2 40.7334 31.8C41.5 30.4 41.8834 28.8917 41.8834 27.275H41.9Z" fill="white"/></svg>