<svg xmlns="http://www.w3.org/2000/svg" width="64" height="64" viewBox="0 0 64 64" fill="none"><path opacity="0.1" d="M24 0H64V40C64 53.2467 53.2467 64 40 64H0V24C0 10.7533 10.7533 0 24 0Z" fill="white"/><path d="M49.6646 22.2458V32.2458C49.6646 33.0292 49.0313 33.6625 48.248 33.6625C47.4646 33.6625 46.8313 33.0292 46.8313 32.2458V24.8292L33.798 37.8625C33.248 38.4125 32.348 38.4125 31.798 37.8625L26.7063 32.7708L16.7479 42.7375C16.4729 43.0125 16.1063 43.1542 15.7479 43.1542C15.3896 43.1542 15.0229 43.0125 14.7479 42.7375C14.1979 42.1875 14.1979 41.2875 14.7479 40.7375L25.7063 29.7792C26.2396 29.2458 27.1813 29.2458 27.7063 29.7792L32.798 34.8708L43.9896 23.6792H38.2396C37.4563 23.6792 36.823 23.0458 36.823 22.2625C36.823 21.4792 37.4563 20.8458 38.2396 20.8458H48.2396C49.023 20.8458 49.6563 21.4792 49.6563 22.2625L49.6646 22.2458Z" fill="white"/></svg>