<svg xmlns="http://www.w3.org/2000/svg" width="64" height="64" viewBox="0 0 64 64" fill="none"><path d="M24 0H64V40C64 53.2467 53.2467 64 40 64H0V24C0 10.7533 10.7533 0 24 0Z" fill="#C9C2F5"/><path d="M47.1666 35.75V44.5C47.1666 45.9667 45.9666 47.1667 44.4999 47.1667H19.4999C18.0333 47.1667 16.8333 45.9667 16.8333 44.5V35.75C16.8333 34.9667 17.4666 34.3333 18.2499 34.3333C19.0333 34.3333 19.6666 34.9667 19.6666 35.75V44.3333H44.3333V35.75C44.3333 34.9667 44.9666 34.3333 45.7499 34.3333C46.5333 34.3333 47.1666 34.9667 47.1666 35.75ZM30.9999 36.75C31.0666 36.8167 31.1416 36.875 31.2166 36.925C31.2499 36.95 31.2833 36.9667 31.3249 36.9833C31.3666 37.0083 31.4166 37.0333 31.4666 37.0583C31.5166 37.075 31.5583 37.0917 31.6083 37.1C31.6499 37.1083 31.6916 37.125 31.7333 37.1333C31.8249 37.15 31.9166 37.1583 32.0083 37.1583C32.0999 37.1583 32.1916 37.15 32.2833 37.1333C32.3249 37.125 32.3666 37.1083 32.4083 37.1C32.4583 37.0833 32.5083 37.075 32.5499 37.0583C32.5999 37.0417 32.6416 37.0083 32.6916 36.9833C32.7249 36.9667 32.7666 36.95 32.7999 36.925C32.8749 36.875 32.9499 36.8167 33.0166 36.75L39.2666 30.5C39.8166 29.95 39.8166 29.05 39.2666 28.5C38.7166 27.95 37.8166 27.95 37.2666 28.5L33.4333 32.3333V18.25C33.4333 17.4667 32.7999 16.8333 32.0166 16.8333C31.2333 16.8333 30.5999 17.4667 30.5999 18.25V32.3333L26.7666 28.5C26.2166 27.95 25.3166 27.95 24.7666 28.5C24.2166 29.05 24.2166 29.95 24.7666 30.5L31.0166 36.75H30.9999Z" fill="#2F1761"/></svg>