<svg xmlns="http://www.w3.org/2000/svg" width="64" height="64" viewBox="0 0 64 64" fill="none"><path d="M24 0H64V40C64 53.2467 53.2467 64 40 64H0V24C0 10.7533 10.7533 0 24 0Z" fill="#C1E0FE"/><path d="M16.5249 29.8072H19.9083V38.9656H17.7166C16.9583 38.9656 16.3416 39.5822 16.3416 40.3406C16.3416 41.0989 16.9583 41.7156 17.7166 41.7156H46.2916C47.0499 41.7156 47.6666 41.0989 47.6666 40.3406C47.6666 39.5822 47.0499 38.9656 46.2916 38.9656H44.0999V29.8072H47.4833C48.0999 29.8072 48.6416 29.3989 48.8083 28.8072C48.9749 28.2156 48.7333 27.5823 48.2083 27.2656L32.7249 17.7323C32.2833 17.4573 31.7249 17.4573 31.2833 17.7323L15.7999 27.2572C15.2749 27.5822 15.0333 28.2073 15.1999 28.7989C15.3666 29.3906 15.9083 29.7989 16.5249 29.7989V29.8072ZM22.6583 29.8072H27.0499V38.9656H22.6583V29.8072ZM34.1916 29.8072V38.9656H29.7999V29.8072H34.1916ZM41.3333 38.9656H36.9416V29.8072H41.3333V38.9656ZM31.9999 20.5239L42.6166 27.0573H21.3833L31.9999 20.5239ZM50.0416 45.0989C50.0416 45.8572 49.4249 46.4739 48.6666 46.4739H15.3333C14.5749 46.4739 13.9583 45.8572 13.9583 45.0989C13.9583 44.3406 14.5749 43.7239 15.3333 43.7239H48.6666C49.4249 43.7239 50.0416 44.3406 50.0416 45.0989Z" fill="#0D1F91"/></svg>