<svg xmlns="http://www.w3.org/2000/svg" width="64" height="64" viewBox="0 0 64 64" fill="none"><path opacity="0.1" d="M24 0H64V40C64 53.2467 53.2467 64 40 64H0V24C0 10.7533 10.7533 0 24 0Z" fill="white"/><path d="M45.9044 44.0167C45.4294 45.0667 44.621 45.5917 43.4793 45.5917H20.5284C19.3867 45.5917 18.5784 45.0667 18.1033 44.0167C17.6283 42.9667 17.7783 42 18.57 41.1333L27.7537 30.7667V20.9417H26.0203C25.662 20.9417 25.362 20.8167 25.1203 20.575C24.8786 20.3333 24.7536 20.025 24.7536 19.6667C24.7536 19.3083 24.8786 19.0083 25.1203 18.7667C25.362 18.525 25.662 18.4083 26.0203 18.4083H37.9791C38.3375 18.4083 38.6375 18.5333 38.8875 18.775C39.1375 19.0167 39.2542 19.325 39.2542 19.6833C39.2542 20.0417 39.1292 20.3417 38.8875 20.5833C38.6458 20.825 38.3375 20.9417 37.9791 20.9417H36.254V30.7667L45.4377 41.1333C46.2211 42.0083 46.3711 42.9667 45.8961 44.0167H45.9044Z" fill="white"/></svg>