<svg xmlns="http://www.w3.org/2000/svg" width="64" height="64" viewBox="0 0 64 64" fill="none"><path d="M24 0H64V40C64 53.2467 53.2467 64 40 64H0V24C0 10.7533 10.7533 0 24 0Z" fill="#C9C2F5"/><path d="M21.2584 49.7125C20.4751 49.7125 19.8084 49.4375 19.2501 48.8792C18.6917 48.3208 18.4167 47.6542 18.4167 46.8708V28.9708C18.4167 28.1875 18.6917 27.5208 19.2501 26.9625C19.8084 26.4042 20.4751 26.1292 21.2584 26.1292H23.9751V22.3458C23.9751 20.1125 24.7584 18.2125 26.3167 16.6458C27.8834 15.0708 29.7751 14.2875 32.0001 14.2875C34.2251 14.2875 36.1167 15.0708 37.6834 16.6375C39.2417 18.2042 40.0251 20.1042 40.0251 22.3375V26.1208H42.7417C43.5251 26.1208 44.1917 26.3958 44.7501 26.9542C45.3084 27.5125 45.5834 28.1792 45.5834 28.9625V46.8625C45.5834 47.6458 45.3084 48.3125 44.7501 48.8708C44.1917 49.4292 43.5251 49.7042 42.7417 49.7042H21.2584V49.7125ZM21.2584 46.8708H42.7417V28.9708H21.2584V46.8708ZM26.8167 26.1208H37.1917V22.3458C37.1917 20.8875 36.6917 19.6625 35.6834 18.6458C34.6751 17.6375 33.4584 17.1292 32.0084 17.1292C30.5584 17.1292 29.3334 17.6375 28.3251 18.6458C27.3167 19.6542 26.8084 20.8875 26.8084 22.3458V26.1208H26.8167Z" fill="#2F1761"/></svg>