<svg xmlns="http://www.w3.org/2000/svg" width="64" height="64" viewBox="0 0 64 64" fill="none"><path opacity="0.1" d="M24 0H64V40C64 53.2467 53.2467 64 40 64H0V24C0 10.7533 10.7533 0 24 0Z" fill="white"/><path d="M26.9917 23.5324L17.4667 31.9991L26.9917 40.4657C27.5751 40.9824 27.6251 41.8824 27.1084 42.4657C26.8251 42.7824 26.4417 42.9407 26.0501 42.9407C25.7167 42.9407 25.3834 42.8241 25.1084 42.5824L14.3917 33.0574C14.0917 32.7907 13.9167 32.3991 13.9167 31.9991C13.9167 31.5991 14.0917 31.2074 14.3917 30.9407L25.1084 21.4157C25.6917 20.8991 26.5917 20.9491 27.1084 21.5324C27.6251 22.1157 27.5751 23.0157 26.9917 23.5324ZM49.6084 30.9407L38.8918 21.4157C38.3084 20.8991 37.4084 20.9491 36.8918 21.5324C36.3751 22.1157 36.4251 23.0157 37.0084 23.5324L46.5334 31.9991L37.0084 40.4657C36.4251 40.9824 36.3751 41.8824 36.8918 42.4657C37.1751 42.7824 37.5584 42.9407 37.9501 42.9407C38.2834 42.9407 38.6168 42.8241 38.8918 42.5824L49.6084 33.0574C49.9084 32.7907 50.0834 32.3991 50.0834 31.9991C50.0834 31.5991 49.9084 31.2074 49.6084 30.9407Z" fill="white"/></svg>