<svg xmlns="http://www.w3.org/2000/svg" width="64" height="64" viewBox="0 0 64 64" fill="none"><path d="M24 0H64V40C64 53.2467 53.2467 64 40 64H0V24C0 10.7533 10.7533 0 24 0Z" fill="#F5D9E1"/><path d="M48.6293 22.8729C48.0793 22.3229 47.1793 22.3229 46.6293 22.8729L41.3793 28.1229L35.8793 22.6229L41.1293 17.3729C41.6793 16.8229 41.6793 15.9229 41.1293 15.3729C40.5793 14.8229 39.6793 14.8229 39.1293 15.3729L33.8793 20.6229L29.8793 16.6229C29.3293 16.0729 28.4293 16.0729 27.8793 16.6229C27.3293 17.1729 27.3293 18.0729 27.8793 18.6229L28.7543 19.4979L20.5876 27.6563C18.0876 30.1563 18.0876 34.2313 20.5876 36.7313L22.9293 39.0729L15.3793 46.6229C14.8293 47.1729 14.8293 48.0729 15.3793 48.6229C15.6543 48.8979 16.021 49.0396 16.3793 49.0396C16.7376 49.0396 17.1043 48.8979 17.3793 48.6229L24.9293 41.0729L27.271 43.4146C28.521 44.6646 30.1626 45.2896 31.8043 45.2896C33.446 45.2896 35.0876 44.6646 36.3376 43.4146L44.496 35.2563L45.371 36.1313C45.646 36.4063 46.0126 36.5479 46.371 36.5479C46.7293 36.5479 47.096 36.4063 47.371 36.1313C47.921 35.5813 47.921 34.6813 47.371 34.1313L43.371 30.1313L48.621 24.8813C49.171 24.3313 49.171 23.4313 48.621 22.8813L48.6293 22.8729ZM34.3376 41.4063C32.9376 42.8063 30.671 42.8063 29.271 41.4063L25.9376 38.0729L22.6043 34.7396C21.2043 33.3396 21.2043 31.0729 22.6043 29.6729L30.7626 21.5146L42.5126 33.2646L34.3543 41.4229L34.3376 41.4063Z" fill="#F54F4F"/></svg>