<svg xmlns="http://www.w3.org/2000/svg" width="64" height="64" viewBox="0 0 64 64" fill="none"><path opacity="0.1" d="M24 0H64V40C64 53.2467 53.2467 64 40 64H0V24C0 10.7533 10.7533 0 24 0Z" fill="white"/><path fill-rule="evenodd" clip-rule="evenodd" d="M31.9999 15.5834C22.9499 15.5834 15.5833 22.95 15.5833 32C15.5833 41.05 22.9499 48.4167 31.9999 48.4167C41.0499 48.4167 48.4166 41.05 48.4166 32C48.4166 22.95 41.0499 15.5834 31.9999 15.5834ZM31.9999 45.5834C24.5083 45.5834 18.4166 39.4917 18.4166 32C18.4166 24.5084 24.5083 18.4167 31.9999 18.4167C39.4916 18.4167 45.5833 24.5084 45.5833 32C45.5833 39.4917 39.4916 45.5834 31.9999 45.5834ZM39.0833 31.1334V32.8584C39.0833 33.3584 38.6749 33.7667 38.1749 33.7667H33.7666V38.175C33.7666 38.675 33.3583 39.0834 32.8583 39.0834H31.1333C30.6333 39.0834 30.2249 38.675 30.2249 38.175V33.7667H25.8166C25.3166 33.7667 24.9083 33.3584 24.9083 32.8584V31.1334C24.9083 30.6334 25.3166 30.225 25.8166 30.225H30.2249V25.8167C30.2249 25.3167 30.6333 24.9084 31.1333 24.9084H32.8583C33.3583 24.9084 33.7666 25.3167 33.7666 25.8167V30.225H38.1749C38.6749 30.225 39.0833 30.6334 39.0833 31.1334Z" fill="white"/></svg>