<svg xmlns="http://www.w3.org/2000/svg" width="64" height="64" viewBox="0 0 64 64" fill="none"><path d="M24 0H64V40C64 53.2467 53.2467 64 40 64H0V24C0 10.7533 10.7533 0 24 0Z" fill="#C1E0FE"/><path d="M46.5459 39.1292C44.9043 37.4875 42.1876 37.1792 40.1459 38.3625L37.3793 35.6042C38.1126 34.5125 38.5043 33.2625 38.5043 31.9709C38.5043 30.6792 38.1126 29.4292 37.3793 28.3375L40.1293 25.5875C40.9376 26.0792 41.8709 26.3459 42.8376 26.3459C44.2293 26.3459 45.5459 25.8042 46.5376 24.8209C47.5209 23.8375 48.0709 22.5209 48.0709 21.1209C48.0709 19.7209 47.5293 18.4125 46.5376 17.4209C44.5709 15.4542 41.1126 15.4542 39.1459 17.4209C37.4459 19.1209 37.1293 21.7875 38.3709 23.8292L35.6126 26.5875C33.4543 25.1709 30.5293 25.1709 28.3709 26.5875L25.6126 23.8292C26.8543 21.7875 26.5376 19.1209 24.8376 17.4209C22.8709 15.4542 19.4126 15.4542 17.4459 17.4209C16.4543 18.4042 15.9126 19.7209 15.9126 21.1209C15.9126 22.5209 16.4543 23.8292 17.4459 24.8209C18.4293 25.8042 19.7459 26.3459 21.1459 26.3459C22.1043 26.3459 23.0376 26.0875 23.8543 25.5875L26.6043 28.3375C25.8709 29.4292 25.4793 30.6792 25.4793 31.9709C25.4793 33.2625 25.8709 34.5125 26.6043 35.6042L23.8459 38.3625C21.8043 37.1709 19.0876 37.4875 17.4459 39.1292C16.4543 40.1125 15.9126 41.4292 15.9126 42.8292C15.9126 44.2292 16.4543 45.5375 17.4459 46.5292C18.4293 47.5125 19.7459 48.0542 21.1459 48.0542C22.5459 48.0542 23.8543 47.5125 24.8459 46.5292C26.5459 44.8292 26.8626 42.1625 25.6209 40.1209L28.3709 37.3709C30.5459 38.8459 33.4543 38.8459 35.6293 37.3709L38.3793 40.1209C37.1376 42.1625 37.4543 44.8292 39.1543 46.5292C40.1376 47.5125 41.4543 48.0542 42.8543 48.0542C44.2543 48.0542 45.5626 47.5125 46.5543 46.5292C47.5376 45.5459 48.0876 44.2292 48.0876 42.8292C48.0876 41.4292 47.5459 40.1209 46.5543 39.1292H46.5459ZM19.2043 40.8875C19.7209 40.3709 20.4043 40.0875 21.1376 40.0875C21.8709 40.0875 22.5543 40.3709 23.0709 40.8875C24.1376 41.9542 24.1376 43.6959 23.0709 44.7625C22.5793 45.2542 21.8709 45.5375 21.1376 45.5375C20.4043 45.5375 19.6959 45.2542 19.2043 44.7625C18.6876 44.2459 18.4043 43.5625 18.4043 42.8292C18.4043 42.0959 18.6876 41.4125 19.2043 40.8959V40.8875ZM23.0793 23.0542C22.0459 24.0875 20.2376 24.0875 19.2043 23.0542C18.1376 21.9875 18.1376 20.2459 19.2043 19.1792C19.7209 18.6625 20.4043 18.3792 21.1376 18.3792C21.8709 18.3792 22.5543 18.6625 23.0709 19.1792C24.1376 20.2459 24.1376 21.9875 23.0709 23.0542H23.0793ZM36.0209 31.9709C36.0209 33.0459 35.6043 34.0542 34.8376 34.8209C33.3209 36.3375 30.6626 36.3375 29.1459 34.8209C28.3876 34.0625 27.9626 33.0459 27.9626 31.9709C27.9626 30.8959 28.3793 29.8875 29.1459 29.1209C29.9043 28.3625 30.9126 27.9375 31.9959 27.9375C33.0793 27.9375 34.0793 28.3542 34.8459 29.1209C35.6043 29.8792 36.0293 30.8875 36.0293 31.9709H36.0209ZM40.9126 19.1792C41.4293 18.6625 42.1126 18.3792 42.8459 18.3792C43.5793 18.3792 44.2626 18.6625 44.7793 19.1792C45.8459 20.2459 45.8459 21.9875 44.7793 23.0542C43.7459 24.0875 41.9376 24.0875 40.9043 23.0542C40.3876 22.5375 40.1043 21.8459 40.1043 21.1125C40.1043 20.3792 40.3876 19.6959 40.9043 19.1792H40.9126ZM40.9126 40.8875C41.4293 40.3709 42.1126 40.0875 42.8459 40.0875C43.5793 40.0875 44.2626 40.3709 44.7793 40.8875C45.2959 41.4042 45.5793 42.0875 45.5793 42.8209C45.5793 43.5542 45.2959 44.2375 44.7793 44.7542C43.7459 45.7875 41.9376 45.7875 40.9043 44.7542C39.8376 43.6875 39.8376 41.9459 40.9043 40.8792L40.9126 40.8875Z" fill="#0D1F91"/></svg>