<svg xmlns="http://www.w3.org/2000/svg" width="64" height="64" viewBox="0 0 64 64" fill="none"><path opacity="0.1" d="M24 0H64V40C64 53.2467 53.2467 64 40 64H0V24C0 10.7533 10.7533 0 24 0Z" fill="white"/><path d="M45.7499 21.8333H39.6666V20.75C39.6666 18.5916 37.9083 16.8333 35.7499 16.8333H28.2499C26.0916 16.8333 24.3333 18.5916 24.3333 20.75V21.8333H18.2499C16.7833 21.8333 15.5833 23.0333 15.5833 24.5V44.5C15.5833 45.975 16.7833 47.1666 18.2499 47.1666H45.7499C47.2166 47.1666 48.4166 45.9666 48.4166 44.5V24.5C48.4166 23.0333 47.2166 21.8333 45.7499 21.8333ZM27.1666 20.75C27.1666 20.15 27.6499 19.6666 28.2499 19.6666H35.7499C36.3499 19.6666 36.8333 20.15 36.8333 20.75V21.8333H27.1666V20.75ZM45.5833 24.6666V35.5833H18.4166V24.6666H45.5833ZM18.4166 44.3333V38.4166H45.5833V44.3333H18.4166Z" fill="white"/></svg>