<svg xmlns="http://www.w3.org/2000/svg" width="64" height="64" viewBox="0 0 64 64" fill="none"><path d="M24 0H64V40C64 53.2467 53.2467 64 40 64H0V24C0 10.7533 10.7533 0 24 0Z" fill="#C9C2F5"/><path d="M31.9999 15.5834C22.9499 15.5834 15.5833 22.95 15.5833 32C15.5833 41.05 22.9499 48.4167 31.9999 48.4167C41.0499 48.4167 48.4166 41.05 48.4166 32C48.4166 22.95 41.0499 15.5834 31.9999 15.5834ZM31.9999 45.5834C24.5083 45.5834 18.4166 39.4917 18.4166 32C18.4166 24.5084 24.5083 18.4167 31.9999 18.4167C39.4916 18.4167 45.5833 24.5084 45.5833 32C45.5833 39.4917 39.4916 45.5834 31.9999 45.5834ZM36.2999 32.35C36.9916 33.175 37.3333 34.225 37.3333 35.475C37.3333 36.725 36.9416 37.85 36.1583 38.6667C35.4749 39.3834 34.4999 39.875 33.2666 40.1334V41.1417C33.2666 41.5334 33.1249 41.875 32.8666 42.1334C32.6083 42.3917 32.2666 42.525 31.8833 42.525C31.4999 42.525 31.1583 42.3917 30.8916 42.1334C30.6333 41.875 30.4916 41.5334 30.4916 41.1417V40.1C29.6916 39.9084 28.9916 39.5834 28.3999 39.1334C27.7083 38.6 27.1666 37.9167 26.7749 37.1084C26.6083 36.75 26.6083 36.3584 26.7749 35.9834C26.9333 35.625 27.2083 35.35 27.5749 35.2C27.9166 35.0584 28.2833 35.0584 28.6416 35.2C28.9749 35.3417 29.2333 35.575 29.4249 35.8917C29.7166 36.4334 30.0666 36.8167 30.5083 37.0667C30.9499 37.3167 31.4666 37.45 32.0333 37.45C32.7916 37.45 33.3833 37.275 33.8416 36.9167C34.2583 36.5917 34.4666 36.15 34.4666 35.575C34.4666 34.9417 34.2749 34.4667 33.8833 34.1334C33.5749 33.8667 32.8583 33.4334 31.2166 32.9C29.8249 32.4584 28.7499 31.8417 28.0333 31.0667C27.2916 30.2584 26.9083 29.2417 26.9083 28.05C26.9083 26.925 27.2749 25.95 28.0083 25.1584C28.6416 24.475 29.4666 24.0334 30.4749 23.85V22.8584C30.4749 22.4667 30.6166 22.125 30.8749 21.8667C31.3916 21.35 32.3333 21.3584 32.8499 21.8667C33.1083 22.125 33.2416 22.4667 33.2416 22.8584V23.8667C33.7916 23.9917 34.2999 24.1917 34.7666 24.4667C35.3583 24.8167 35.8666 25.275 36.2583 25.8417C36.4916 26.1917 36.5416 26.575 36.3999 26.9667C36.2666 27.3334 35.9999 27.6167 35.6249 27.7667C35.3083 27.9084 34.9499 27.925 34.5999 27.8084C34.2749 27.7 33.9833 27.5 33.7416 27.2084C33.5416 26.9584 33.2999 26.7834 33.0083 26.6584C32.6999 26.5334 32.3249 26.4667 31.8833 26.4667C31.1833 26.4667 30.6333 26.6167 30.2499 26.9084C29.8999 27.175 29.7416 27.525 29.7416 28C29.7416 28.5167 29.9333 28.9084 30.3333 29.2417C30.6583 29.5 31.4166 29.9334 33.2083 30.4834C34.5583 30.9084 35.5833 31.5334 36.2583 32.3417L36.2999 32.35Z" fill="#2F1761"/></svg>