<svg xmlns="http://www.w3.org/2000/svg" width="64" height="64" viewBox="0 0 64 64" fill="none"><path d="M24 0H64V40C64 53.2467 53.2467 64 40 64H0V24C0 10.7533 10.7533 0 24 0Z" fill="#C9C2F5"/><mask id="mask0_3_31" style="mask-type:alpha" maskUnits="userSpaceOnUse" x="10" y="9" width="45" height="45"><rect x="10" y="9" width="45" height="45" fill="#D9D9D9"/></mask><g mask="url(#mask0_3_31)"><path d="M25 48.375V44.625H28.75V40.875H17.5C16.4687 40.875 15.5859 40.5078 14.8516 39.7734C14.1172 39.0391 13.75 38.1563 13.75 37.125V18.375C13.75 17.3437 14.1172 16.4609 14.8516 15.7266C15.5859 14.9922 16.4687 14.625 17.5 14.625H47.5C48.5313 14.625 49.4141 14.9922 50.1484 15.7266C50.8828 16.4609 51.25 17.3437 51.25 18.375V37.125C51.25 38.1563 50.8828 39.0391 50.1484 39.7734C49.4141 40.5078 48.5313 40.875 47.5 40.875H36.25V44.625H40V48.375H25ZM17.5 37.125H47.5V18.375H17.5V37.125Z" fill="#2F1761"/></g></svg>