<svg xmlns="http://www.w3.org/2000/svg" width="64" height="64" viewBox="0 0 64 64" fill="none"><path d="M24 0H64V40C64 53.2467 53.2467 64 40 64H0V24C0 10.7533 10.7533 0 24 0Z" fill="#C1E0FE"/><path d="M24.3924 29.5271C25.8091 30.3854 27.4924 30.4604 29.1591 29.7354L31.3591 31.9354V34.6187C31.3591 35.2354 31.8591 35.7437 32.4841 35.7437C33.1091 35.7437 33.6091 35.2437 33.6091 34.6187V31.7187C33.6091 30.6187 33.9507 29.5687 34.5924 28.6854C36.8507 29.7437 39.1424 29.6854 41.0591 28.5104C44.0674 26.6854 45.6757 22.4937 45.3674 17.2854C45.3341 16.7187 44.8841 16.2604 44.3174 16.2271C39.1007 15.9187 34.9091 17.5271 33.0841 20.5354C31.9007 22.4854 31.8591 24.8271 32.9674 27.1187C32.4674 27.7437 32.0841 28.4437 31.8091 29.1937L30.7591 28.1437C31.4757 26.4854 31.4007 24.7937 30.5424 23.3771C29.1757 21.1187 26.0591 19.9104 22.2257 20.1437C21.6591 20.1771 21.2007 20.6271 21.1674 21.1937C20.9424 25.0354 22.1507 28.1437 24.4007 29.5104L24.3924 29.5271ZM25.6757 24.1937V24.1021L25.3924 24.3854C24.9591 24.8187 24.9591 25.5354 25.3924 25.9771L27.3674 27.9521C26.7091 28.0521 26.0924 27.9354 25.5591 27.6104C24.2174 26.8021 23.4341 24.9021 23.3757 22.3771C25.8924 22.4271 27.8007 23.2104 28.6091 24.5604C28.9341 25.0937 29.0507 25.7187 28.9507 26.3687L26.9757 24.3937C26.6507 24.0687 26.0924 23.9854 25.6757 24.1937ZM41.1341 22.0437C41.5674 21.6104 41.5674 20.8937 41.1341 20.4521C40.7007 20.0187 39.9757 20.0187 39.5424 20.4521L34.6341 25.3604C34.2007 24.0437 34.3174 22.7854 34.9757 21.7104C36.2257 19.6521 39.2091 18.4437 43.0091 18.4437C43.0507 18.4437 43.1007 18.4437 43.1424 18.4437C43.1674 22.3021 41.9507 25.3437 39.8757 26.6104C38.7924 27.2687 37.5341 27.3854 36.2174 26.9521L41.1341 22.0437ZM47.8757 37.8521L47.5507 36.8437V37.1854C46.9424 36.2937 45.8257 35.8604 44.7341 36.1771L37.1091 38.3437C36.8591 38.1271 36.5674 37.9521 36.2591 37.8354L28.7007 34.9687C28.5757 34.9187 28.4507 34.9021 28.3174 34.9021H23.9507C23.7007 34.1771 23.0174 33.6854 22.2507 33.6854H17.8091C16.8091 33.6854 16.0007 34.4937 16.0007 35.4937V44.9021C16.0007 45.9021 16.8091 46.7104 17.8091 46.7104H22.2591C23.0924 46.7104 23.8091 46.1354 24.0091 45.3437L32.7091 47.7687C32.8091 47.7937 32.9091 47.8104 33.0007 47.8104C33.1757 47.8104 33.3507 47.7687 33.5007 47.6854L46.6091 40.9021C47.7257 40.3187 48.2591 39.0354 47.8757 37.8354V37.8521ZM35.9341 40.8604L35.8924 40.9604C35.7257 41.2687 35.3674 41.4271 35.0174 41.3437L28.1007 39.5604C27.8174 39.4854 27.5257 39.5354 27.2841 39.6771C27.0424 39.8187 26.8674 40.0521 26.7841 40.3437C26.7174 40.6271 26.7591 40.9187 26.9007 41.1604C27.0507 41.4104 27.2841 41.5937 27.5674 41.6604L34.4841 43.4354C34.7174 43.4937 34.9591 43.5271 35.2174 43.5271C36.4174 43.5271 37.5174 42.7771 37.9507 41.6521C38.1174 41.2187 38.1757 40.7604 38.1341 40.3021L45.3174 38.2604C45.5341 38.2021 45.7507 38.3187 45.8174 38.5271C45.8757 38.7104 45.7924 38.9187 45.6174 39.0104L32.8841 45.5937L24.0674 43.1354V37.0687H28.1257L35.4924 39.8604C35.6924 39.9354 35.8507 40.0854 35.9257 40.2771C36.0091 40.4687 36.0174 40.6771 35.9424 40.8687L35.9341 40.8604ZM21.9091 35.8521V44.5604H18.1591V35.8521H21.9091Z" fill="#0D1F91"/></svg>