<svg xmlns="http://www.w3.org/2000/svg" width="64" height="64" viewBox="0 0 64 64" fill="none"><path d="M24 0H64V40C64 53.2467 53.2467 64 40 64H0V24C0 10.7533 10.7533 0 24 0Z" fill="#91D9E3"/><path d="M48.4083 20.6583C48.4083 20.6083 48.4083 20.5583 48.3916 20.5083C48.3916 20.4583 48.3666 20.4167 48.3583 20.375C48.3499 20.3333 48.3333 20.2833 48.3166 20.2417C48.2999 20.1917 48.2749 20.15 48.2499 20.1083C48.2333 20.0667 48.2083 20.0333 48.1916 19.9917C48.1666 19.95 48.1249 19.9083 48.0916 19.8667C48.0749 19.8417 48.0583 19.8167 48.0416 19.7917C48.0416 19.7917 48.0249 19.7833 48.0166 19.775C47.9833 19.7333 47.9416 19.7 47.8999 19.6667C47.8666 19.6417 47.8416 19.6167 47.8083 19.5917C47.7666 19.5667 47.7249 19.5417 47.6833 19.5167C47.6416 19.4917 47.6083 19.475 47.5666 19.45C47.5249 19.4333 47.4833 19.4167 47.4416 19.4083C47.3999 19.3917 47.3499 19.375 47.3083 19.3667C47.2666 19.3583 47.2249 19.3583 47.1833 19.35C47.1333 19.35 47.0749 19.3333 47.0249 19.3333C47.0166 19.3333 47.0083 19.3333 46.9916 19.3333H16.9999C16.9999 19.3333 16.9833 19.3333 16.9666 19.3333C16.9166 19.3333 16.8583 19.3417 16.8083 19.35C16.7666 19.35 16.7249 19.35 16.6916 19.3667C16.6416 19.375 16.5999 19.3917 16.5499 19.4083C16.5083 19.425 16.4666 19.4333 16.4249 19.45C16.3833 19.4667 16.3416 19.4917 16.3083 19.5167C16.2666 19.5417 16.2249 19.5583 16.1916 19.5833C16.1583 19.6083 16.1249 19.6333 16.0999 19.6583C16.0583 19.6917 16.0166 19.725 15.9833 19.7667C15.9833 19.7667 15.9666 19.775 15.9583 19.7833C15.9416 19.8083 15.9249 19.8333 15.9083 19.8583C15.8749 19.9 15.8416 19.9417 15.8083 19.9833C15.7833 20.0167 15.7666 20.0583 15.7499 20.1C15.7249 20.1417 15.7083 20.1833 15.6833 20.2333C15.6666 20.275 15.6583 20.3167 15.6416 20.3667C15.6333 20.4083 15.6166 20.4583 15.6083 20.5C15.5999 20.55 15.5999 20.6 15.5916 20.65C15.5916 20.6833 15.5833 20.7167 15.5833 20.75V42C15.5833 43.4667 16.7833 44.6667 18.2499 44.6667H45.7499C47.2166 44.6667 48.4166 43.4667 48.4166 42V20.7583C48.4166 20.7583 48.4166 20.6917 48.4083 20.6583ZM43.3583 22.175L31.9999 32.5833L20.6416 22.175H43.3583ZM18.4166 41.8417V23.975L31.0416 35.55C31.3166 35.8 31.6583 35.925 31.9999 35.925C32.3416 35.925 32.6833 35.8 32.9583 35.55L45.5833 23.975V41.8417H18.4166Z" fill="#0F4F73"/></svg>