<svg xmlns="http://www.w3.org/2000/svg" width="64" height="64" viewBox="0 0 64 64" fill="none"><path d="M24 0H64V40C64 53.2467 53.2467 64 40 64H0V24C0 10.7533 10.7533 0 24 0Z" fill="#C9C2F5"/><path d="M28.8373 35.7333C29.0457 35.8416 29.2707 35.8999 29.4957 35.8999C29.7623 35.8999 30.0373 35.8249 30.2707 35.6666L37.7707 30.6666C38.1623 30.4083 38.3957 29.9749 38.3957 29.5083C38.3957 29.0416 38.1623 28.6083 37.7707 28.3499L30.2707 23.3499C29.8457 23.0666 29.2873 23.0333 28.8373 23.2833C28.3873 23.5249 28.104 23.9999 28.104 24.5166V34.5166C28.104 35.0333 28.3873 35.5083 28.8373 35.7499V35.7333ZM30.8957 27.1083L34.4873 29.4999L30.8957 31.8916V27.1083ZM45.7457 18.1083H18.2457C16.7873 18.1083 15.604 19.2916 15.604 20.7499V38.2499C15.604 39.7083 16.7873 40.8916 18.2457 40.8916H45.7457C47.204 40.8916 48.3873 39.7083 48.3873 38.2499V20.7499C48.3873 19.2916 47.204 18.1083 45.7457 18.1083ZM45.604 38.1083H18.3957V20.8999H45.604V38.1083ZM48.3957 44.4999C48.3957 45.2666 47.7707 45.8916 47.004 45.8916H16.9957C16.2207 45.8916 15.604 45.2666 15.604 44.4999C15.604 43.7333 16.229 43.1083 16.9957 43.1083H46.9957C47.7707 43.1083 48.3873 43.7333 48.3873 44.4999H48.3957Z" fill="#2F1761"/></svg>