<svg xmlns="http://www.w3.org/2000/svg" width="64" height="64" viewBox="0 0 64 64" fill="none"><path d="M24 0H64V40C64 53.2467 53.2467 64 40 64H0V24C0 10.7533 10.7533 0 24 0Z" fill="#C1E0FE"/><path d="M30.2876 33.9042L36.9959 27.1958C37.2293 26.9625 37.5293 26.8375 37.9126 26.8208C38.2959 26.8042 38.6043 26.9208 38.8543 27.1542C39.1043 27.3875 39.2293 27.6875 39.2293 28.0458C39.2293 28.4042 39.0959 28.7208 38.8376 28.9792L31.1793 36.6375C30.8959 36.9292 30.5626 37.0708 30.1793 37.0708C29.7959 37.0708 29.4626 36.9292 29.1709 36.6375L25.1293 32.5542C24.8709 32.2792 24.7459 31.9625 24.7459 31.5958C24.7459 31.2292 24.8709 30.9125 25.1293 30.6542C25.3959 30.3875 25.7126 30.2625 26.0876 30.2625C26.4626 30.2625 26.7793 30.3875 27.0376 30.6458L30.2959 33.9042H30.2876ZM45.5876 22.1375V30.2292C45.5876 34.2875 44.4459 38.0292 42.1626 41.4625C39.8793 44.8958 36.7876 47.2708 32.8959 48.5708C32.7543 48.6292 32.6126 48.6792 32.4626 48.7125C32.3126 48.7458 32.1626 48.7625 31.9876 48.7625C31.8209 48.7625 31.6626 48.7458 31.5126 48.7125C31.3626 48.6792 31.2209 48.6375 31.0793 48.5708C27.1876 47.2625 24.0959 44.8958 21.8209 41.4625C19.5543 38.0375 18.4126 34.2875 18.4126 30.2292V22.1375C18.4126 21.5292 18.5793 20.9792 18.9209 20.4875C19.2626 19.9958 19.7043 19.6458 20.2543 19.4292L31.0043 15.4208C31.3459 15.2958 31.6709 15.2375 31.9959 15.2375C32.3209 15.2375 32.6543 15.2958 32.9876 15.4208L43.7293 19.4292C44.2793 19.6458 44.7293 19.9958 45.0709 20.4875C45.4126 20.9792 45.5876 21.5292 45.5876 22.1375ZM42.7376 22.1375L31.9959 18.0875L21.2543 22.1458V30.2375C21.2543 33.8542 22.2543 37.1042 24.2543 40.0125C26.2543 42.9125 28.8376 44.9042 31.9959 45.9958C35.1543 44.9042 37.7376 42.9125 39.7376 40.0125C41.7376 37.1125 42.7376 33.8542 42.7376 30.2458V22.1458V22.1375Z" fill="#0D1F91"/></svg>