<svg xmlns="http://www.w3.org/2000/svg" width="64" height="64" viewBox="0 0 64 64" fill="none"><path opacity="0.1" d="M24 0H64V40C64 53.2467 53.2467 64 40 64H0V24C0 10.7533 10.7533 0 24 0Z" fill="white"/><path d="M47.4584 38.7208C46.4917 37.7541 45.3167 37.2791 43.9251 37.2791C42.7167 37.2791 41.6751 37.6375 40.8084 38.3625C39.9417 39.0875 39.3834 39.9458 39.1251 40.9541H30.4667C29.3501 40.9541 28.4334 40.5958 27.7167 39.8875C27.0084 39.1791 26.6501 38.2541 26.6501 37.1375C26.6501 36.0208 27.0084 35.1041 27.7167 34.3958C28.4251 33.6875 29.3417 33.3291 30.4667 33.3291H33.6751C35.5251 33.3291 37.0667 32.7208 38.2834 31.5041C39.5001 30.2875 40.1084 28.7541 40.1084 26.8958C40.1084 25.0375 39.5001 23.5041 38.2834 22.2875C37.0667 21.0708 35.5334 20.4625 33.6751 20.4625H24.9084C24.6417 19.4541 24.0834 18.5958 23.2167 17.8708C22.3501 17.1458 21.3084 16.7875 20.1001 16.7875C18.7084 16.7875 17.5334 17.2708 16.5667 18.2291C15.6001 19.1875 15.1084 20.3625 15.1084 21.7541C15.1084 23.1458 15.5917 24.3291 16.5501 25.2875C17.5167 26.2541 18.6917 26.7291 20.0834 26.7291C21.2917 26.7291 22.3334 26.3708 23.2001 25.6458C24.0667 24.9208 24.6334 24.0625 24.8917 23.0541H33.6584C34.7751 23.0541 35.6917 23.4125 36.4001 24.1208C37.1084 24.8291 37.4667 25.7458 37.4667 26.8625C37.4667 27.9791 37.1084 28.8958 36.4001 29.6125C35.6917 30.3291 34.7751 30.6791 33.6584 30.6791H30.4501C28.5917 30.6791 27.0584 31.2875 25.8417 32.5041C24.6251 33.7208 24.0167 35.2541 24.0167 37.1041C24.0167 38.9541 24.6251 40.4958 25.8417 41.7125C27.0584 42.9291 28.5917 43.5375 30.4501 43.5375H39.1084C39.3334 44.5458 39.8917 45.4041 40.7751 46.1291C41.6584 46.8458 42.7001 47.2125 43.9167 47.2125C45.3084 47.2125 46.4834 46.7291 47.4501 45.7708C48.4167 44.8041 48.8917 43.6291 48.8917 42.2375C48.8917 40.8458 48.4084 39.6625 47.4501 38.7041L47.4584 38.7208ZM21.6917 23.3625C21.2584 23.7958 20.7251 24.0041 20.0917 24.0041C19.4584 24.0041 18.9167 23.7875 18.4917 23.3625C18.0584 22.9291 17.8417 22.3958 17.8417 21.7541C17.8417 21.1125 18.0584 20.5791 18.4917 20.1541C18.9251 19.7291 19.4584 19.5125 20.0917 19.5125C20.7251 19.5125 21.2667 19.7291 21.6917 20.1541C22.1251 20.5875 22.3417 21.1208 22.3417 21.7541C22.3417 22.3875 22.1251 22.9291 21.6917 23.3625Z" fill="white"/></svg>