<svg xmlns="http://www.w3.org/2000/svg" width="64" height="64" viewBox="0 0 64 64" fill="none"><path d="M24 0H64V40C64 53.2467 53.2467 64 40 64H0V24C0 10.7533 10.7533 0 24 0Z" fill="#F5D9E1"/><path d="M44.4999 18.0833H40.9166V17C40.9166 16.2166 40.2833 15.5833 39.4999 15.5833C38.7166 15.5833 38.0833 16.2166 38.0833 17V18.0833H25.9166V17C25.9166 16.2166 25.2833 15.5833 24.4999 15.5833C23.7166 15.5833 23.0833 16.2166 23.0833 17V18.0833H19.4999C18.0333 18.0833 16.8333 19.2833 16.8333 20.75V45.75C16.8333 47.2166 18.0333 48.4166 19.4999 48.4166H44.4999C45.9666 48.4166 47.1666 47.2166 47.1666 45.75V20.75C47.1666 19.2833 45.9666 18.0833 44.4999 18.0833ZM23.0833 20.9166V22C23.0833 22.7833 23.7166 23.4166 24.4999 23.4166C25.2833 23.4166 25.9166 22.7833 25.9166 22V20.9166H38.0833V22C38.0833 22.7833 38.7166 23.4166 39.4999 23.4166C40.2833 23.4166 40.9166 22.7833 40.9166 22V20.9166H44.3333V25.5833H19.6666V20.9166H23.0833ZM19.6666 45.5833V28.4166H44.3333V45.5833H19.6666Z" fill="#F54F4F"/></svg>