<svg xmlns="http://www.w3.org/2000/svg" width="64" height="64" viewBox="0 0 64 64" fill="none"><path d="M24 0H64V40C64 53.2467 53.2467 64 40 64H0V24C0 10.7533 10.7533 0 24 0Z" fill="#91D9E3"/><path d="M46.6249 41.6042C46.4333 41.1208 46.1416 40.6875 45.7666 40.3125L36.4416 30.9875C36.6583 30.3458 36.8333 29.7125 36.9583 29.0875C37.0833 28.4625 37.15 27.8208 37.15 27.1625C37.15 24.3458 36.1666 21.9458 34.1916 19.9792C32.225 17.9958 29.825 17.0125 27.0166 17.0125C26.1666 17.0125 25.3166 17.1375 24.4583 17.3958C23.6 17.6542 22.8083 17.9958 22.1 18.4125L28.3583 24.6708L24.525 28.2542L18.425 22.1625C18.0083 22.8958 17.6833 23.6958 17.4416 24.5542C17.2 25.4125 17.075 26.2792 17.075 27.1542C17.075 29.8958 18.0416 32.2292 19.975 34.1625C21.9083 36.0958 24.25 37.0542 27.0166 37.0542C27.7 37.0542 28.35 36.9875 28.9666 36.8625C29.5833 36.7375 30.2083 36.5625 30.8333 36.3458L40.2583 45.8375C40.6333 46.2208 41.05 46.5042 41.5083 46.6958C41.9666 46.8875 42.4499 46.9875 42.9499 46.9875C43.4499 46.9875 43.9333 46.8958 44.4 46.7208C44.8583 46.5375 45.2916 46.2708 45.6999 45.9208C46.1083 45.5708 46.4166 45.1458 46.6166 44.6625C46.825 44.1792 46.925 43.6708 46.925 43.1292C46.925 42.5875 46.825 42.0875 46.6333 41.6042H46.6249ZM43.8666 43.9292C43.6416 44.1542 43.3666 44.2708 43.0333 44.2708C42.7 44.2708 42.425 44.1542 42.2 43.9292L31.2666 32.9958C30.6833 33.4375 30 33.7708 29.225 33.9958C28.45 34.2208 27.7083 34.3292 27.0166 34.3292C25.0833 34.3292 23.4 33.6375 21.9583 32.2458C20.525 30.8542 19.7666 29.0958 19.6833 26.9542L23.725 30.9542C23.975 31.2042 24.2833 31.3292 24.6416 31.3292C25 31.3292 25.3083 31.2042 25.5583 30.9542L31.0583 25.7875C31.3083 25.5375 31.4333 25.2292 31.4333 24.8708C31.4333 24.5125 31.3083 24.2042 31.0583 23.9542L26.85 19.6625C28.825 19.6875 30.5833 20.4292 32.125 21.8708C33.6666 23.3125 34.4416 25.0792 34.4416 27.1625C34.4416 27.8875 34.3333 28.6458 34.1083 29.4292C33.8833 30.2208 33.55 30.9125 33.1083 31.4958L43.875 42.2625C44.1 42.4875 44.2083 42.7708 44.2083 43.1042C44.2083 43.4375 44.1 43.7125 43.875 43.9375L43.8666 43.9292Z" fill="#0F4F73"/></svg>