<svg xmlns="http://www.w3.org/2000/svg" width="64" height="64" viewBox="0 0 64 64" fill="none"><path d="M24 0H64V40C64 53.2467 53.2467 64 40 64H0V24C0 10.7533 10.7533 0 24 0Z" fill="#91D9E3"/><path d="M46.6166 17.2084H36.8749C34.9082 17.2084 33.1499 18.1167 31.9999 19.5417C30.8499 18.1167 29.0916 17.2084 27.1249 17.2084H17.3916C15.9499 17.2084 14.7749 18.3834 14.7749 19.825V39.3084C14.7749 40.75 15.9499 41.925 17.3916 41.925H27.1332C29.0499 41.925 30.6082 43.4834 30.6082 45.4C30.6082 46.1667 31.2332 46.7917 31.9999 46.7917C32.7666 46.7917 33.3916 46.1667 33.3916 45.4C33.3916 43.4834 34.9499 41.925 36.8666 41.925H46.6082C48.0499 41.925 49.2249 40.75 49.2249 39.3084V19.825C49.2249 18.3834 48.0499 17.2084 46.6082 17.2084H46.6166ZM27.1332 39.1334H17.5666V20H27.1332C29.0499 20 30.6082 21.5584 30.6082 23.475V40.1834C29.6166 39.5167 28.4166 39.1334 27.1332 39.1334ZM46.4416 39.1334H36.8749C35.5916 39.1334 34.3916 39.525 33.3999 40.1917V23.475C33.3999 21.5584 34.9582 20 36.8749 20H46.4416V39.1334Z" fill="#0F4F73"/></svg>