<svg xmlns="http://www.w3.org/2000/svg" width="64" height="64" viewBox="0 0 64 64" fill="none"><path d="M24 0H64V40C64 53.2467 53.2467 64 40 64H0V24C0 10.7533 10.7533 0 24 0Z" fill="#91D9E3"/><path d="M22.125 28.3167V18.25C22.125 17.4917 21.5083 16.875 20.75 16.875C19.9917 16.875 19.375 17.4917 19.375 18.25V28.3167C17.2167 28.9167 15.625 30.9 15.625 33.25C15.625 35.6 17.2167 37.575 19.375 38.1833V45.75C19.375 46.5083 19.9917 47.125 20.75 47.125C21.5083 47.125 22.125 46.5083 22.125 45.75V38.1833C24.2833 37.5833 25.875 35.6 25.875 33.25C25.875 30.9 24.2833 28.925 22.125 28.3167ZM20.75 35.625C19.4417 35.625 18.375 34.5583 18.375 33.25C18.375 31.9417 19.4417 30.875 20.75 30.875C22.0583 30.875 23.125 31.9417 23.125 33.25C23.125 34.5583 22.0583 35.625 20.75 35.625ZM33.375 20.8167V18.25C33.375 17.4917 32.7583 16.875 32 16.875C31.2417 16.875 30.625 17.4917 30.625 18.25V20.8167C28.4667 21.4167 26.875 23.4 26.875 25.75C26.875 28.1 28.4667 30.075 30.625 30.6833V45.75C30.625 46.5083 31.2417 47.125 32 47.125C32.7583 47.125 33.375 46.5083 33.375 45.75V30.6833C35.5333 30.0833 37.125 28.1 37.125 25.75C37.125 23.4 35.5333 21.425 33.375 20.8167ZM32 28.125C30.6917 28.125 29.625 27.0583 29.625 25.75C29.625 24.4417 30.6917 23.375 32 23.375C33.3083 23.375 34.375 24.4417 34.375 25.75C34.375 27.0583 33.3083 28.125 32 28.125ZM48.375 38.25C48.375 35.9 46.7833 33.925 44.625 33.3167V18.25C44.625 17.4917 44.0083 16.875 43.25 16.875C42.4917 16.875 41.875 17.4917 41.875 18.25V33.3167C39.7167 33.9167 38.125 35.9 38.125 38.25C38.125 40.6 39.7167 42.575 41.875 43.1833V45.75C41.875 46.5083 42.4917 47.125 43.25 47.125C44.0083 47.125 44.625 46.5083 44.625 45.75V43.1833C46.7833 42.5833 48.375 40.6 48.375 38.25ZM43.25 40.625C41.9417 40.625 40.875 39.5583 40.875 38.25C40.875 36.9417 41.9417 35.875 43.25 35.875C44.5583 35.875 45.625 36.9417 45.625 38.25C45.625 39.5583 44.5583 40.625 43.25 40.625Z" fill="#0F4F73"/></svg>