<svg xmlns="http://www.w3.org/2000/svg" width="64" height="64" viewBox="0 0 64 64" fill="none"><path d="M24 0H64V40C64 53.2467 53.2467 64 40 64H0V24C0 10.7533 10.7533 0 24 0Z" fill="#F5D9E1"/><path d="M45.9251 44.0663C45.2751 43.5746 44.5751 43.1746 43.8418 42.8496C45.0668 41.6913 45.8334 40.0663 45.8334 38.2579C45.8334 34.7663 42.9918 31.9246 39.5001 31.9246C36.0084 31.9246 33.1668 34.7663 33.1668 38.2579C33.1668 40.0663 33.9334 41.6996 35.1501 42.8496C33.9834 43.3663 32.9168 44.0829 32.0001 44.9829C31.6668 44.6496 31.3084 44.3413 30.9251 44.0579C30.2751 43.5663 29.5751 43.1663 28.8418 42.8413C30.0668 41.6829 30.8334 40.0579 30.8334 38.2496C30.8334 34.7579 27.9918 31.9163 24.5001 31.9163C21.0084 31.9163 18.1668 34.7579 18.1668 38.2496C18.1668 40.0579 18.9334 41.6913 20.1501 42.8413C18.5001 43.5746 17.0501 44.7163 15.9334 46.1996C15.4918 46.7913 15.6084 47.6246 16.2001 48.0663C16.4418 48.2496 16.7168 48.3329 17.0001 48.3329C17.4084 48.3329 17.8084 48.1496 18.0668 47.7996C19.3584 46.0829 21.2334 44.9663 23.3668 44.6663C25.4918 44.3663 27.6084 44.9079 29.3251 46.1913C29.9334 46.6496 30.4751 47.1913 30.9334 47.7996C31.4334 48.4746 32.5668 48.4746 33.0668 47.7996C34.3584 46.0829 36.2334 44.9663 38.3668 44.6663C40.4918 44.3663 42.6084 44.9079 44.3251 46.1913C44.9334 46.6496 45.4751 47.1913 45.9334 47.7996C46.3751 48.3913 47.2084 48.5079 47.8001 48.0663C48.3918 47.6246 48.5084 46.7913 48.0668 46.1996C47.4584 45.3829 46.7334 44.6663 45.9251 44.0579V44.0663ZM24.5001 34.5913C26.5251 34.5913 28.1668 36.2329 28.1668 38.2579C28.1668 40.2829 26.5251 41.9246 24.5001 41.9246C22.4751 41.9246 20.8334 40.2829 20.8334 38.2579C20.8334 36.2329 22.4751 34.5913 24.5001 34.5913ZM39.5001 34.5913C41.5251 34.5913 43.1668 36.2329 43.1668 38.2579C43.1668 40.2829 41.5251 41.9246 39.5001 41.9246C37.4751 41.9246 35.8334 40.2829 35.8334 38.2579C35.8334 36.2329 37.4751 34.5913 39.5001 34.5913ZM16.2001 31.8246C16.4418 32.0079 16.7168 32.0913 17.0001 32.0913C17.4084 32.0913 17.8084 31.9079 18.0668 31.5579C19.3584 29.8413 21.2334 28.7246 23.3668 28.4246C25.4918 28.1246 27.6084 28.6663 29.3251 29.9496C29.9334 30.4079 30.4751 30.9496 30.9334 31.5579C31.1834 31.8913 31.5834 32.0913 32.0001 32.0913C32.4168 32.0913 32.8168 31.8913 33.0668 31.5579C34.3584 29.8413 36.2334 28.7246 38.3668 28.4246C40.4918 28.1246 42.6084 28.6663 44.3251 29.9496C44.9334 30.4079 45.4751 30.9496 45.9334 31.5579C46.3751 32.1496 47.2084 32.2663 47.8001 31.8246C48.3918 31.3829 48.5084 30.5496 48.0668 29.9579C47.4584 29.1496 46.7334 28.4246 45.9251 27.8163C45.2751 27.3246 44.5751 26.9246 43.8418 26.5996C45.0668 25.4413 45.8334 23.8163 45.8334 22.0079C45.8334 18.5163 42.9918 15.6746 39.5001 15.6746C36.0084 15.6746 33.1668 18.5163 33.1668 22.0079C33.1668 23.8163 33.9334 25.4496 35.1501 26.5996C33.9834 27.1163 32.9168 27.8329 32.0001 28.7329C31.6668 28.3996 31.3084 28.0913 30.9251 27.8079C30.2751 27.3163 29.5751 26.9163 28.8418 26.5913C30.0668 25.4329 30.8334 23.8079 30.8334 21.9996C30.8334 18.5079 27.9918 15.6663 24.5001 15.6663C21.0084 15.6663 18.1668 18.5163 18.1668 22.0079C18.1668 23.8163 18.9334 25.4496 20.1501 26.5996C18.5001 27.3329 17.0501 28.4746 15.9334 29.9579C15.4918 30.5496 15.6084 31.3829 16.2001 31.8246ZM39.5001 18.3413C41.5251 18.3413 43.1668 19.9829 43.1668 22.0079C43.1668 24.0329 41.5251 25.6746 39.5001 25.6746C37.4751 25.6746 35.8334 24.0329 35.8334 22.0079C35.8334 19.9829 37.4751 18.3413 39.5001 18.3413ZM24.5001 18.3413C26.5251 18.3413 28.1668 19.9829 28.1668 22.0079C28.1668 24.0329 26.5251 25.6746 24.5001 25.6746C22.4751 25.6746 20.8334 24.0329 20.8334 22.0079C20.8334 19.9829 22.4751 18.3413 24.5001 18.3413Z" fill="#F54F4F"/></svg>