<svg xmlns="http://www.w3.org/2000/svg" width="64" height="64" viewBox="0 0 64 64" fill="none"><path d="M24 0H64V40C64 53.2467 53.2467 64 40 64H0V24C0 10.7533 10.7533 0 24 0Z" fill="#F5D9E1"/><path d="M32.0002 15.5834C22.9502 15.5834 15.5835 22.95 15.5835 32C15.5835 41.05 22.9502 48.4167 32.0002 48.4167C41.0502 48.4167 48.4168 41.05 48.4168 32C48.4168 22.95 41.0502 15.5834 32.0002 15.5834ZM32.0002 45.5834C24.5085 45.5834 18.4168 39.4917 18.4168 32C18.4168 24.5084 24.5085 18.4167 32.0002 18.4167C39.4918 18.4167 45.5835 24.5084 45.5835 32C45.5835 39.4917 39.4918 45.5834 32.0002 45.5834ZM36.3002 32.35C36.9918 33.175 37.3335 34.225 37.3335 35.475C37.3335 36.725 36.9418 37.85 36.1585 38.6667C35.4752 39.3834 34.5002 39.875 33.2668 40.1334V41.1417C33.2668 41.5334 33.1252 41.875 32.8668 42.1334C32.6085 42.3917 32.2668 42.525 31.8835 42.525C31.5002 42.525 31.1585 42.3917 30.8918 42.1334C30.6335 41.875 30.4918 41.5334 30.4918 41.1417V40.1C29.6918 39.9084 28.9918 39.5834 28.4002 39.1334C27.7085 38.6 27.1668 37.9167 26.7752 37.1084C26.6085 36.75 26.6085 36.3584 26.7752 35.9834C26.9335 35.625 27.2085 35.35 27.5752 35.2C27.9168 35.0584 28.2835 35.0584 28.6418 35.2C28.9752 35.3417 29.2335 35.575 29.4252 35.8917C29.7168 36.4334 30.0668 36.8167 30.5085 37.0667C30.9502 37.3167 31.4668 37.45 32.0335 37.45C32.7918 37.45 33.3835 37.275 33.8418 36.9167C34.2585 36.5917 34.4668 36.15 34.4668 35.575C34.4668 34.9417 34.2752 34.4667 33.8835 34.1334C33.5752 33.8667 32.8585 33.4334 31.2168 32.9C29.8252 32.4584 28.7502 31.8417 28.0335 31.0667C27.2918 30.2584 26.9085 29.2417 26.9085 28.05C26.9085 26.925 27.2752 25.95 28.0085 25.1584C28.6418 24.475 29.4668 24.0334 30.4752 23.85V22.8584C30.4752 22.4667 30.6168 22.125 30.8752 21.8667C31.3918 21.35 32.3335 21.3584 32.8502 21.8667C33.1085 22.125 33.2418 22.4667 33.2418 22.8584V23.8667C33.7918 23.9917 34.3002 24.1917 34.7668 24.4667C35.3585 24.8167 35.8668 25.275 36.2585 25.8417C36.4918 26.1917 36.5418 26.575 36.4002 26.9667C36.2668 27.3334 36.0002 27.6167 35.6252 27.7667C35.3085 27.9084 34.9502 27.925 34.6002 27.8084C34.2752 27.7 33.9835 27.5 33.7418 27.2084C33.5418 26.9584 33.3002 26.7834 33.0085 26.6584C32.7002 26.5334 32.3252 26.4667 31.8835 26.4667C31.1835 26.4667 30.6335 26.6167 30.2502 26.9084C29.9002 27.175 29.7418 27.525 29.7418 28C29.7418 28.5167 29.9335 28.9084 30.3335 29.2417C30.6585 29.5 31.4168 29.9334 33.2085 30.4834C34.5585 30.9084 35.5835 31.5334 36.2585 32.3417L36.3002 32.35Z" fill="#F54F4F"/></svg>