<svg xmlns="http://www.w3.org/2000/svg" width="64" height="64" viewBox="0 0 64 64" fill="none"><path d="M24 0H64V40C64 53.2467 53.2467 64 40 64H0V24C0 10.7533 10.7533 0 24 0Z" fill="#91D9E3"/><path d="M48.0928 22.0917C47.8261 21.7667 47.4261 21.5834 47.0011 21.5834H22.9845L22.2845 17.7334C22.0595 16.4834 20.9761 15.5834 19.7095 15.5834H17.0011C16.2178 15.5834 15.5845 16.2167 15.5845 17C15.5845 17.7834 16.2178 18.4167 17.0011 18.4167H19.5261L23.3178 39.2834C23.4261 39.8917 23.6928 40.4417 24.0511 40.9084C23.2678 41.7084 22.7845 42.7917 22.7845 44C22.7845 46.4334 24.7678 48.4167 27.2011 48.4167C29.6345 48.4167 31.6178 46.4334 31.6178 44C31.6178 43.4417 31.5011 42.9084 31.3095 42.4167H37.4845C37.2928 42.9084 37.1761 43.4417 37.1761 44C37.1761 46.4334 39.1595 48.4167 41.5928 48.4167C44.0261 48.4167 46.0095 46.4334 46.0095 44C46.0095 41.5667 44.1761 39.7667 41.8761 39.6084C41.7845 39.5917 41.6845 39.5834 41.5928 39.5834H27.0761C26.6011 39.5834 26.1928 39.2417 26.1095 38.775L25.6845 36.4167H42.8178C44.6595 36.4167 46.2428 35.1 46.5678 33.2834L48.3928 23.25C48.4678 22.8334 48.3595 22.4084 48.0845 22.0917H48.0928ZM28.7845 44C28.7845 44.875 28.0761 45.5834 27.2011 45.5834C26.3261 45.5834 25.6178 44.875 25.6178 44C25.6178 43.125 26.3261 42.4167 27.2011 42.4167C28.0761 42.4167 28.7845 43.125 28.7845 44ZM41.6011 45.5834C40.7261 45.5834 40.0178 44.875 40.0178 44C40.0178 43.125 40.7261 42.4167 41.6011 42.4167C42.4761 42.4167 43.1845 43.125 43.1845 44C43.1845 44.875 42.4761 45.5834 41.6011 45.5834ZM43.7845 32.775C43.7011 33.2417 43.2928 33.5834 42.8178 33.5834H25.1678L23.5011 24.4167H45.3095L43.7845 32.775Z" fill="#0F4F73"/></svg>