<svg xmlns="http://www.w3.org/2000/svg" width="64" height="64" viewBox="0 0 64 64" fill="none"><path d="M24 0H64V40C64 53.2467 53.2467 64 40 64H0V24C0 10.7533 10.7533 0 24 0Z" fill="#F5D9E1"/><path d="M47.6461 27.2281L47.6294 27.1865C47.3377 26.4781 46.9044 25.8365 46.3461 25.2698L40.1461 19.0698C39.5877 18.5115 38.9627 18.0865 38.2877 17.8198C36.9294 17.2781 35.3794 17.2781 34.0211 17.8198C33.3461 18.0948 32.7211 18.5115 32.1627 19.0698L31.4294 19.8031L30.6961 19.0698C30.1294 18.5031 29.5044 18.0865 28.8461 17.8198C27.5044 17.2781 25.9461 17.2781 24.5794 17.8198C23.8877 18.0948 23.2627 18.5198 22.7127 19.0698L17.5544 24.2281C17.0044 24.7781 16.5877 25.4115 16.3044 26.1031C16.0211 26.8031 15.8794 27.5615 15.8794 28.3615C15.8961 29.1198 16.0377 29.8531 16.3044 30.5448C16.5794 31.2531 16.9211 31.8698 17.3294 32.3698L17.6294 32.7365L19.4877 30.9031L19.2627 30.6031C19.0211 30.2781 18.8211 29.9281 18.6544 29.5448C18.4961 29.1781 18.4294 28.8031 18.4461 28.4198C18.4461 27.9698 18.5294 27.5198 18.6794 27.1365C18.8211 26.7615 19.0627 26.4115 19.3794 26.0948L24.5794 20.8948C24.8877 20.5865 25.2294 20.3531 25.5877 20.2031C26.2961 19.8948 27.1211 19.8948 27.8711 20.2031C28.2461 20.3615 28.5877 20.5948 28.8961 20.9031L34.1211 26.1281C34.2711 26.2865 34.3961 26.4531 34.4794 26.6281C34.5544 26.7698 34.5877 26.9115 34.5877 27.0365C34.5877 27.2781 34.4877 27.5031 34.2794 27.7115C33.8461 28.1448 33.3711 28.0448 33.0544 27.8865C32.8461 27.7781 32.6711 27.6615 32.5211 27.5115L28.4127 23.4031L20.2377 31.5781C19.9211 31.9115 19.6627 32.3031 19.4794 32.7531C19.3044 33.2031 19.2127 33.6531 19.2127 34.1031C19.2127 35.0615 19.5544 35.8698 20.2294 36.4865C20.7961 37.0115 21.4877 37.3281 22.2877 37.4365C22.3961 38.2365 22.7211 38.9198 23.2544 39.4615C23.7961 40.0115 24.4877 40.3531 25.3127 40.4698C25.4211 41.3031 25.7627 41.9948 26.3294 42.5448C26.8794 43.0698 27.5627 43.3948 28.3461 43.5031C28.4461 44.3198 28.7877 45.0198 29.3544 45.5865C30.0211 46.2531 30.8044 46.5865 31.6961 46.5865C32.1711 46.5865 32.6211 46.5031 33.0461 46.3365C33.4711 46.1698 33.8627 45.9031 34.2127 45.5448L46.3961 33.3698C46.9461 32.8198 47.3794 32.1948 47.6711 31.5281C47.9711 30.8531 48.1211 30.1365 48.1211 29.4031C48.1211 28.6698 47.9711 27.9365 47.6794 27.2365L47.6461 27.2281ZM30.9294 42.8115L30.9544 42.7448C30.9961 42.6448 31.0627 42.5615 31.1377 42.4781L36.5794 37.0365L34.7711 35.2281L29.3294 40.6698C29.2294 40.7698 29.1127 40.8448 29.0044 40.8948C28.6877 41.0198 28.3294 40.9865 28.0627 40.7198C27.8961 40.5531 27.8127 40.3698 27.8127 40.1448C27.8127 40.0115 27.8461 39.8698 27.9044 39.7365C27.9627 39.5948 28.0377 39.4698 28.1127 39.3948L33.5294 33.9948L31.7211 32.1865L26.2794 37.6281C26.1961 37.7115 26.0961 37.7865 25.9794 37.8281C25.6044 37.9865 25.2877 37.9281 25.0211 37.6615C24.8544 37.4948 24.7711 37.3115 24.7711 37.0865C24.7711 36.9531 24.7961 36.8198 24.8461 36.6781C24.8877 36.5531 24.9627 36.4365 25.0627 36.3365L30.3044 31.1031L28.4961 29.2948L23.2294 34.5615C23.1461 34.6448 23.0294 34.7281 22.8961 34.7948C22.5544 34.9698 22.1877 34.8948 21.9461 34.6615C21.7961 34.5115 21.7211 34.3281 21.7211 34.0865C21.7211 33.9615 21.7461 33.8198 21.7961 33.6948C21.8377 33.5781 21.9127 33.4698 22.0127 33.3615L28.3544 27.0198L30.8294 29.5031C31.1711 29.8365 31.5627 30.1031 31.9961 30.2948C32.4294 30.4698 32.9461 30.5615 33.5294 30.5615C34.4794 30.5615 35.3127 30.2115 36.0127 29.5115C36.7211 28.8115 37.0877 27.9781 37.0877 27.0198C37.0877 26.4781 36.9627 25.9531 36.7211 25.4781C36.4877 25.0281 36.2044 24.6198 35.8794 24.2781L33.2377 21.6115L33.9794 20.8698C34.2794 20.5615 34.6211 20.3281 34.9794 20.1698C35.7127 19.8698 36.5461 19.8698 37.2711 20.1698C37.6377 20.3281 37.9794 20.5615 38.2877 20.8698L44.5294 27.1115C44.8377 27.4198 45.0794 27.7781 45.2461 28.1698C45.4127 28.5615 45.4961 28.9615 45.4961 29.3615C45.4961 29.7615 45.4127 30.1198 45.2544 30.4781C45.0794 30.8448 44.8377 31.1948 44.5211 31.5031L32.3294 43.7198C32.2711 43.7865 32.1627 43.8531 32.0294 43.9115C31.8711 43.9698 31.7461 43.9948 31.6377 43.9948C31.3794 43.9948 31.1961 43.9281 31.0377 43.7781C30.8961 43.6448 30.8211 43.4531 30.8211 43.1948C30.8211 43.0865 30.8461 42.9531 30.8961 42.8031L30.9294 42.8115Z" fill="#F54F4F"/></svg>