<svg xmlns="http://www.w3.org/2000/svg" width="64" height="64" viewBox="0 0 64 64" fill="none"><path d="M24 0H64V40C64 53.2467 53.2467 64 40 64H0V24C0 10.7533 10.7533 0 24 0Z" fill="#C1E0FE"/><path d="M50.9192 34.4958C50.9192 35.2792 50.2859 35.9125 49.5026 35.9125H47.1692V38.2458C47.1692 39.0292 46.5359 39.6625 45.7526 39.6625C44.9692 39.6625 44.3359 39.0292 44.3359 38.2458V35.9125H42.0026C41.2192 35.9125 40.5859 35.2792 40.5859 34.4958C40.5859 33.7125 41.2192 33.0792 42.0026 33.0792H44.3359V30.7458C44.3359 29.9625 44.9692 29.3292 45.7526 29.3292C46.5359 29.3292 47.1692 29.9625 47.1692 30.7458V33.0792H49.5026C50.2859 33.0792 50.9192 33.7125 50.9192 34.4958ZM41.8359 43.5875C42.3359 44.1875 42.2609 45.0792 41.6609 45.5875C41.0609 46.0875 40.1692 46.0125 39.6609 45.4125C36.5442 41.7042 32.2692 39.6708 27.6192 39.6708C22.9692 39.6708 18.6942 41.7125 15.5776 45.4125C15.2942 45.7458 14.8942 45.9208 14.4942 45.9208C14.1692 45.9208 13.8526 45.8125 13.5859 45.5875C12.9859 45.0875 12.9109 44.1875 13.4109 43.5875C15.6859 40.8792 18.5026 38.9292 21.6192 37.8375C18.7276 35.8958 16.8276 32.6042 16.8276 28.8708C16.8359 22.9208 21.6776 18.0792 27.6276 18.0792C33.5776 18.0792 38.4192 22.9208 38.4192 28.8708C38.4192 32.6042 36.5109 35.8958 33.6276 37.8375C36.7526 38.9292 39.5609 40.8792 41.8359 43.5875ZM27.6276 36.8292C32.0192 36.8292 35.5859 33.2625 35.5859 28.8708C35.5859 24.4792 32.0192 20.9125 27.6276 20.9125C23.2359 20.9125 19.6692 24.4792 19.6692 28.8708C19.6692 33.2625 23.2359 36.8292 27.6276 36.8292Z" fill="#0D1F91"/></svg>