<svg xmlns="http://www.w3.org/2000/svg" width="64" height="64" viewBox="0 0 64 64" fill="none"><path d="M24 0H64V40C64 53.2467 53.2467 64 40 64H0V24C0 10.7533 10.7533 0 24 0Z" fill="#C1E0FE"/><path d="M32.0042 31.9959C33.4458 31.9959 34.6458 31.5042 35.6208 30.5125C36.5958 29.5209 37.0875 28.3209 37.0875 26.9042C37.0875 25.4875 36.5958 24.2625 35.6208 23.2875C34.6458 22.3125 33.4375 21.8209 32.0042 21.8209C30.5708 21.8209 29.3875 22.3125 28.3958 23.2875C27.4042 24.2625 26.9125 25.4709 26.9125 26.9042C26.9125 28.3375 27.4042 29.5209 28.3958 30.5125C29.3875 31.5042 30.5875 31.9959 32.0042 31.9959ZM30.2958 25.1792C30.7625 24.7209 31.3375 24.4875 32.0125 24.4875C32.6875 24.4875 33.2542 24.7125 33.7208 25.1709C34.1875 25.6292 34.4208 26.1959 34.4208 26.8792C34.4208 27.5625 34.1875 28.1375 33.7292 28.6042C33.2708 29.0709 32.7042 29.3042 32.0208 29.3042C31.3375 29.3042 30.7542 29.0709 30.2875 28.5959C29.8208 28.1209 29.5958 27.5542 29.5958 26.8792C29.5958 26.2042 29.8292 25.6292 30.2958 25.1709V25.1792ZM19.2042 36.1459C19.4708 36.1542 19.7458 36.1792 20.0125 36.2209C19.7792 36.7209 19.6042 37.2292 19.4875 37.7459C19.3708 38.2625 19.3125 38.7959 19.3125 39.3625V42.1792H11.9958V39.8625C11.9958 38.7625 12.5792 37.8625 13.7458 37.1792C14.9125 36.4875 16.4458 36.1459 18.3375 36.1459C18.6375 36.1459 18.9208 36.1459 19.1875 36.1625L19.2042 36.1459ZM20.4375 29.8375C21.0208 30.4209 21.3125 31.1209 21.3125 31.9542C21.3125 32.7875 21.0208 33.4542 20.4375 34.0375C19.8542 34.6209 19.1458 34.9125 18.3125 34.9125C17.4792 34.9125 16.8042 34.6209 16.2292 34.0375C15.6458 33.4542 15.3625 32.7542 15.3625 31.9375C15.3625 31.1209 15.6542 30.4125 16.2375 29.8375C16.8208 29.2542 17.5208 28.9709 18.3375 28.9709C19.1542 28.9709 19.8625 29.2625 20.4458 29.8375H20.4375ZM52.0042 39.8542V42.1709H44.6959V39.3542C44.6959 38.7792 44.6458 38.2375 44.5375 37.7292C44.4292 37.2209 44.2625 36.7209 44.0375 36.2292C44.3042 36.1875 44.5792 36.1625 44.8458 36.1542C45.1125 36.1459 45.3875 36.1375 45.6708 36.1375C47.5792 36.1375 49.1042 36.4792 50.2625 37.1542C51.4208 37.8292 51.9958 38.7375 51.9958 39.8625L52.0042 39.8542ZM39.2875 34.9209C38.3875 34.3625 37.3208 33.9375 36.0792 33.6625C34.8458 33.3792 33.4792 33.2375 31.9958 33.2375C30.5125 33.2375 29.1875 33.3792 27.9542 33.6625C26.7125 33.9459 25.6458 34.3625 24.7458 34.9209C23.8458 35.4792 23.1542 36.1292 22.6708 36.8792C22.1875 37.6292 21.9375 38.4542 21.9375 39.3542V42.1625H42.0542V39.3542C42.0542 38.4542 41.8125 37.6209 41.3375 36.8792C40.8625 36.1375 40.1792 35.4792 39.2792 34.9209H39.2875ZM39.2375 39.4875H24.7542V39.2792C24.8042 38.2709 25.5042 37.4542 26.8458 36.8375C28.1875 36.2209 29.9042 35.9125 31.9958 35.9125C34.0875 35.9125 35.8042 36.2209 37.1375 36.8375C38.4792 37.4542 39.1792 38.2542 39.2292 39.2459V39.4959L39.2375 39.4875ZM45.6542 34.9209C44.8458 34.9209 44.1458 34.6292 43.5708 34.0459C42.9875 33.4625 42.7042 32.7625 42.7042 31.9459C42.7042 31.1292 42.9959 30.4209 43.5792 29.8459C44.1625 29.2625 44.8625 28.9792 45.6792 28.9792C46.4958 28.9792 47.2042 29.2709 47.7875 29.8459C48.3708 30.4292 48.6625 31.1292 48.6625 31.9625C48.6625 32.7959 48.3708 33.4625 47.7875 34.0459C47.2042 34.6292 46.4959 34.9209 45.6625 34.9209H45.6542Z" fill="#0D1F91"/></svg>