<svg xmlns="http://www.w3.org/2000/svg" width="64" height="64" viewBox="0 0 64 64" fill="none"><path d="M24 0H64V40C64 53.2467 53.2467 64 40 64H0V24C0 10.7533 10.7533 0 24 0Z" fill="#91D9E3"/><path d="M24.5188 25.4584C24.4855 25.3834 24.4105 25.3334 24.3271 25.3334H21.9688C21.8855 25.3334 21.8105 25.3834 21.7771 25.4584L15.9688 38.35C15.9355 38.4167 15.9438 38.4917 15.9855 38.5584C16.0271 38.6167 16.0938 38.6584 16.1688 38.6584H18.6355C18.7188 38.6584 18.8021 38.6084 18.8355 38.525L20.0521 35.675H26.2188L27.4521 38.5334C27.4855 38.6084 27.5605 38.6667 27.6521 38.6667H30.1605C30.2355 38.6667 30.3021 38.6334 30.3438 38.5667C30.3855 38.5 30.3855 38.425 30.3605 38.3584L24.5188 25.4584ZM25.2355 33.3667H21.0438L23.1355 28.4834L25.2438 33.3667H25.2355ZM36.0438 31.0084V32.9834C36.0438 33.1 35.9438 33.2 35.8271 33.2H30.7271C30.6105 33.2 30.5105 33.1 30.5105 32.9834V31.0084C30.5105 30.8917 30.6105 30.7917 30.7271 30.7917H35.8271C35.9438 30.7917 36.0438 30.8917 36.0438 31.0084ZM48.0521 36.4167V38.4417C48.0521 38.5584 47.9521 38.6584 47.8355 38.6584H36.8438C36.7271 38.6584 36.6271 38.5584 36.6271 38.4417V36.8417C36.6271 36.7917 36.6438 36.7417 36.6771 36.7084L43.9771 27.7917H36.9688C36.8521 27.7917 36.7521 27.6917 36.7521 27.575V25.55C36.7521 25.4334 36.8521 25.3334 36.9688 25.3334H47.5938C47.7105 25.3334 47.8105 25.4334 47.8105 25.55V27.15C47.8105 27.2 47.7938 27.25 47.7605 27.2834L40.4605 36.2H47.8355C47.9521 36.2 48.0521 36.3 48.0521 36.4167Z" fill="#0F4F73"/></svg>