<svg xmlns="http://www.w3.org/2000/svg" width="64" height="64" viewBox="0 0 64 64" fill="none"><path d="M24 0H64V40C64 53.2467 53.2467 64 40 64H0V24C0 10.7533 10.7533 0 24 0Z" fill="#91D9E3"/><path d="M29.5083 32.9708L43.6667 23.6458L34.4667 37.9708C33.9083 38.8291 33.0167 39.2791 31.8167 39.3208C30.6083 39.3625 29.6917 39.0625 29.05 38.4208C28.4083 37.7875 28.1167 36.8541 28.175 35.6375C28.2333 34.4208 28.675 33.5291 29.5083 32.9625V32.9708ZM47.925 30.2958C47.3917 28.6791 46.5833 27.0875 45.5 25.5125L43.6334 27.9791C44.5167 29.1208 45.125 30.3541 45.4584 31.6875C45.7917 33.0208 45.9583 34.2541 45.9583 35.3958C45.9583 36.6708 45.7834 37.9625 45.4334 39.2708C45.0834 40.5708 44.6 41.7291 43.9917 42.7291H19.9833C19.35 41.6541 18.8667 40.4875 18.525 39.2375C18.1833 37.9875 18.0167 36.7375 18.0167 35.4791C18.0167 31.5458 19.3833 28.1958 22.1083 25.4291C24.8417 22.6625 28.1333 21.2791 32 21.2791C33.05 21.2791 34.275 21.4708 35.6833 21.8625C37.0833 22.2541 38.4083 22.8625 39.6583 23.6875L42.1333 21.9041C40.5417 20.6458 38.8583 19.7541 37.0917 19.2208C35.325 18.6875 33.625 18.4291 32.0083 18.4291C29.7083 18.4291 27.5333 18.8791 25.4833 19.7875C23.4333 20.6958 21.6417 21.9125 20.125 23.4541C18.6 24.9958 17.4 26.8041 16.5083 28.8708C15.625 30.9375 15.1833 33.1375 15.1833 35.4791C15.1833 37.0541 15.3833 38.5458 15.775 39.9541C16.1667 41.3541 16.7333 42.7291 17.4583 44.0708C17.7 44.5458 18.0667 44.9208 18.5667 45.1791C19.0667 45.4375 19.575 45.5708 20.0917 45.5708H43.8834C44.4834 45.5708 44.9917 45.4875 45.4 45.3291C45.8084 45.1708 46.1917 44.7541 46.5584 44.0708C47.325 42.7958 47.9 41.4125 48.2917 39.9125C48.6834 38.4125 48.8584 36.8291 48.8084 35.1458C48.75 33.5375 48.4583 31.9208 47.925 30.3041V30.2958Z" fill="#0F4F73"/></svg>