<svg xmlns="http://www.w3.org/2000/svg" width="64" height="64" viewBox="0 0 64 64" fill="none"><path d="M24 0H64V40C64 53.2467 53.2467 64 40 64H0V24C0 10.7533 10.7533 0 24 0Z" fill="#91D9E3"/><path d="M48.2248 38.7885C48.6165 39.4635 48.3915 40.3302 47.7165 40.7219L32.7165 49.4719C32.4998 49.5969 32.2498 49.6635 31.9998 49.6635C31.7498 49.6635 31.5081 49.5969 31.2831 49.4719L16.2831 40.7302C15.6081 40.3385 15.3831 39.4719 15.7748 38.7969C16.1665 38.1219 17.0331 37.8885 17.7165 38.2885L31.9998 46.6219L46.2831 38.2885C46.9581 37.8969 47.8248 38.1219 48.2248 38.7969V38.7885ZM46.2831 30.7802L31.9998 39.1135L17.7165 30.7802C17.0415 30.3885 16.1748 30.6135 15.7748 31.2885C15.3831 31.9635 15.6081 32.8302 16.2831 33.2219L31.2831 41.9719C31.4998 42.0969 31.7498 42.1635 31.9998 42.1635C32.2498 42.1635 32.4915 42.0969 32.7165 41.9719L47.7165 33.2219C48.3915 32.8302 48.6165 31.9635 48.2248 31.2885C47.8331 30.6135 46.9665 30.3802 46.2831 30.7802ZM15.5831 24.5052C15.5831 24.0052 15.8498 23.5385 16.2831 23.2802L31.2831 14.5302C31.7248 14.2719 32.2665 14.2719 32.7081 14.5302L47.7081 23.2802C48.1415 23.5302 48.4081 23.9969 48.4081 24.5052C48.4081 25.0135 48.1415 25.4719 47.7081 25.7302L32.7081 34.4802C32.4915 34.6052 32.2415 34.6719 31.9915 34.6719C31.7415 34.6719 31.4998 34.6052 31.2748 34.4802L16.2831 25.7302C15.8498 25.4719 15.5831 25.0052 15.5831 24.5052ZM19.8081 24.5052L31.9998 31.6135L44.1915 24.5052L31.9998 17.3969L19.8081 24.5052Z" fill="#0F4F73"/></svg>