<svg xmlns="http://www.w3.org/2000/svg" width="130" height="25" fill="none" viewBox="0 0 130 25" aria-label="Fullstory Logo" role="img"><path fill="#000" d="M117.77 24.78v-2.791h.34c1.571 0 2.451-.595 3.175-2.012l.231-.462-5.064-12.988h3.305l3.386 9.605 3.362-9.605h3.229l-5.921 14.977c-.98 2.044-2.545 3.16-5.703 3.275h-.34Zm-10.23-4.874V6.734h2.89v2.198c1.033-1.496 2.558-2.405 4.414-2.405h.232l1.162 2.967h-1.394c-2.788 0-4.414 1.574-4.414 4.001v6.406h-2.89v.007-.002Zm-8.371-13.8c-4.031 0-7.051 2.968-7.051 6.9 0 3.932 3.02 6.9 7.05 6.9 4.032 0 7.052-2.968 7.052-6.9 0-3.932-3.02-6.9-7.051-6.9Zm0 11.01c-2.32 0-4.077-1.78-4.077-4.11 0-2.329 1.75-4.109 4.077-4.109 2.326 0 4.054 1.78 4.054 4.11 0 2.328-1.728 4.108-4.054 4.108Zm-8.88 2.79c-2.866 0-4.414-1.45-4.414-4.054V9.368h-1.99V6.731h1.112c.671 0 1.032-.363 1.032-1.033V3.169h2.735v3.562h3.023v2.637h-3.023v6.02c0 1.164.494 1.858 1.704 1.858h1.319v2.66h-1.498Zm-12.228.204c-3.174 0-5.262-1.704-5.262-4.185h2.945c0 1.011.955 1.682 2.35 1.682 1.295 0 2.142-.593 2.142-1.418 0-2.374-7.228-1.056-7.228-5.735 0-2.558 2.042-4.132 4.954-4.132 2.913 0 5.01 1.627 5.01 4.001h-2.945c0-.902-.854-1.525-2.088-1.525-1.233 0-2.012.54-2.012 1.342 0 2.296 7.251 1.033 7.251 5.735 0 2.558-2.041 4.23-5.108 4.23l-.007.007h-.002v-.002Zm-9.37-.204V1.313h2.889v18.593h-2.89Zm-4.882 0V1.313h2.89v18.593h-2.89Zm-9.067.31c-3.02 0-5.032-2.012-5.032-5.088V6.734h2.889v7.538c0 1.888 1.21 3.153 3.075 3.153 1.964 0 3.276-1.295 3.276-3.2V6.735h2.889v13.174h-2.89v-1.626c-1.01 1.263-2.45 1.934-4.207 1.934ZM40.738 25v-2.708c1.34 0 1.672-.758 1.672-2.046V9.396h-1.922V6.713h1.922V5.337c0-2.841 1.677-4.417 4.8-4.417h1.174v2.708h-.916c-1.34 0-2.122.76-2.122 2.05v1.028h3.038v2.683h-3.038v11.194c0 2.841-1.484 4.415-4.61 4.415l.002.002Zm-6.197-5.094v-2.862H22.633l10.255-5.88.06-.034-1.434-2.476-10.317 5.914 5.921-10.186.035-.06-2.458-1.41-.034-.02-5.956 10.245V1.311h-2.873v11.838L9.913 2.96l-.034-.06L7.42 4.31l-.035.021 5.956 10.246-10.257-5.88-.06-.034-1.433 2.476 10.315 5.914H0v2.855h10.74c3.04-.315 4.674-2.007 5.51-3.374a8.517 8.517 0 0 0 1.024-2.547c.115.524.398 1.52 1.025 2.547.836 1.364 2.469 3.057 5.517 3.374h10.726v-.002Z"></path></svg>